<svg width="56" height="56" viewBox="0 0 56 56" fill="none" xmlns="http://www.w3.org/2000/svg">
<circle cx="28" cy="28" r="28" fill="black"/>
<path fill-rule="evenodd" clip-rule="evenodd" d="M34.9291 10.0031C34.9291 11.7098 34.1754 13.4164 33.1115 14.6478C31.9808 16.0088 30.0303 17.0241 28.4786 17.0243C28.3013 17.0243 28.1238 17.0026 28.0131 16.981C27.991 16.8947 27.9466 16.6353 27.9466 16.3761C27.9466 14.6478 28.8555 12.9411 29.8307 11.861C31.0721 10.4568 33.1336 9.39822 34.8626 9.33337C34.907 9.5279 34.9291 9.76552 34.9291 10.0031ZM41.0271 20.7534C41.0701 20.7259 41.0997 20.707 41.1135 20.6965C38.8082 17.4778 35.3058 17.3912 34.3303 17.391C32.8399 17.391 31.5059 17.9064 30.3843 18.3397C29.571 18.6538 28.8695 18.9249 28.3011 18.9249C27.6741 18.9249 26.9561 18.6421 26.1549 18.3265C25.1434 17.9281 23.9991 17.4774 22.7375 17.4774C18.4817 17.4774 14.1592 20.9124 14.1592 27.3933C14.1592 31.433 15.7551 35.6888 17.7279 38.4325C19.4346 40.7656 20.9198 42.6667 23.0478 42.6667C24.057 42.6667 24.7969 42.3606 25.575 42.0387C26.4377 41.6819 27.3472 41.3056 28.7224 41.3056C30.111 41.3056 30.9412 41.6589 31.7419 41.9995C32.4878 42.3169 33.2081 42.6234 34.3305 42.6234C36.6579 42.6234 38.1875 40.5712 39.6504 38.5189C41.2908 36.1858 41.978 33.8958 42.0001 33.7879C41.867 33.7448 37.4117 31.9949 37.4117 27.0478C37.4117 23.066 40.4467 21.1247 41.0271 20.7534Z" fill="white"/>
</svg>
