<svg width="165" height="57" viewBox="0 0 165 57" fill="none" xmlns="http://www.w3.org/2000/svg">
<g clip-path="url(#clip0_601_50057)">
<path d="M35.5228 12.1797C36.0761 12.1797 36.5235 12.6223 36.5235 13.1697V43.1569C36.5235 43.7038 36.0761 44.1468 35.5228 44.1468H17.6037C17.051 44.1468 16.6035 43.7038 16.6035 43.1569V13.1697C16.6035 12.6223 17.051 12.1797 17.6037 12.1797H35.5228Z" fill="white"/>
<path d="M16.9924 16.625H36.1476V43.0969C36.1476 43.3171 36.11 43.4532 35.9615 43.6009C35.8003 43.761 35.659 43.7754 35.4038 43.7754L17.5644 43.7771C17.4238 43.7771 17.316 43.7323 17.1996 43.634C17.0555 43.5104 16.9924 43.3565 16.9924 43.1936V16.625Z" fill="#FFF200"/>
<path d="M36.1476 15.2932H16.9924V16.6532H36.1476V15.2932Z" fill="#ED1C24"/>
<path d="M36.1476 13.9305H16.9924V15.2905H36.1476V13.9305Z" fill="white"/>
<path d="M17.5339 12.5471H35.5936C35.8828 12.5471 36.1495 12.8259 36.1495 13.098V13.9662H16.9924L16.9942 13.2027V13.1392C16.9942 12.8313 17.2314 12.5775 17.5339 12.5471Z" fill="#009A4E"/>
<path d="M35.5228 12.1797C36.0761 12.1797 36.5235 12.6223 36.5235 13.1697V43.1569C36.5235 43.7038 36.0761 44.1468 35.5228 44.1468H17.6037C17.051 44.1468 16.6035 43.7038 16.6035 43.1569V13.1697C16.6035 12.6223 17.051 12.1797 17.6037 12.1797H35.5228ZM35.5228 12.5749H17.6037C17.2716 12.5749 17.0032 12.8416 17.0032 13.1697V43.1569C17.0032 43.4854 17.2717 43.7503 17.6037 43.7503H35.5228C35.855 43.7503 36.1235 43.4854 36.1235 43.1569V13.1697C36.1235 12.8416 35.855 12.5749 35.5228 12.5749Z" fill="black"/>
<path d="M26.2111 18.3051C26.2111 18.3051 26.199 18.4205 26.1727 18.4881C26.1467 18.5507 26.0791 18.5929 26.0836 18.6349C26.0881 18.6761 26.1319 18.7257 26.2 18.7601C26.2666 18.795 26.2934 18.8219 26.3619 18.8394C26.4255 18.8551 26.506 18.9016 26.5289 18.8483C26.5517 18.7942 26.5173 18.7284 26.4788 18.6653C26.4116 18.5552 26.3776 18.5283 26.2787 18.3771C26.2577 18.3445 26.2411 18.3095 26.2111 18.3051Z" fill="black"/>
<path d="M25.7095 30.1982C25.7161 30.1785 25.8746 30.2788 25.9569 30.3271C26.1301 30.4309 26.208 30.4927 26.361 30.6072C26.4823 30.6994 26.5409 30.7469 26.6627 30.8516C26.8121 30.9805 26.8927 31.0905 26.933 31.0655C26.9912 30.9957 26.8377 30.7916 26.702 30.6807C26.5701 30.5714 26.4336 30.4829 26.3284 30.4139C26.1928 30.3235 26.1807 30.3029 25.978 30.1668C25.76 30.021 25.5721 29.8375 25.5721 29.8375L25.3604 29.6711L25.0288 29.3913L24.66 29.0517L24.3817 28.7415C24.3817 28.7415 24.1651 28.4766 24.1306 28.4255C24.0957 28.375 23.9937 28.2111 23.9096 28.0725C23.8344 27.948 23.6885 27.7547 23.6751 27.7382C23.5963 27.6428 23.4164 27.6813 23.2073 27.5583C22.9536 27.4083 22.8923 27.2714 22.8923 27.2714C22.8923 27.2714 22.8829 27.2513 22.873 27.2405C22.8636 27.2293 22.8444 27.2155 22.8444 27.2155L22.7115 27.1228L22.6354 27.0727C22.6354 27.0727 22.5776 27.0248 22.5052 26.9939C22.4322 26.9617 22.2697 26.8672 22.2697 26.8672L21.9793 26.682C21.9793 26.682 21.8656 26.5907 21.828 26.5603C21.7896 26.5312 21.718 26.4896 21.718 26.4896C21.718 26.4896 21.6723 26.4667 21.6584 26.4658C21.6446 26.4649 21.5842 26.4596 21.5842 26.4596C21.5842 26.4596 21.5282 26.4448 21.4714 26.5115C21.4145 26.5787 21.4284 26.5428 21.5211 26.9205C21.5577 27.0691 21.5542 27.5932 21.5936 27.7529C21.6437 27.9579 21.7878 28.2228 21.8025 28.2541C21.8169 28.285 21.8272 28.3996 21.8272 28.3996C21.8272 28.3996 21.8209 28.4923 21.8308 28.5509C21.8746 28.8216 22.2707 28.6435 22.358 29.015C22.4439 29.3815 22.3065 29.7471 22.3065 29.7471C22.3065 29.7471 22.2215 29.9289 22.1011 29.9574C21.9812 29.9853 21.795 29.7194 21.6603 29.5042C21.5274 29.2924 21.4187 29.015 21.3838 28.9268C21.3488 28.8386 21.3305 28.8194 21.2902 28.7554C21.2307 28.66 21.1828 28.6776 21.1161 28.5272C21.049 28.3768 21.1085 28.3164 21.0785 28.1853C21.0611 28.1128 21.0454 28.1047 21.0226 28.0008C21.0007 27.8975 20.9711 27.5686 20.9711 27.5686L20.9291 27.2625C20.9291 27.2625 20.9143 27.1228 20.8951 27.0351C20.8284 26.729 20.8051 26.4327 20.8051 26.4327L20.7926 26.311L20.7881 26.1853C20.7881 26.1853 20.7841 26.1248 20.7989 26.0626C20.8137 26.0005 20.8437 25.949 20.8437 25.949C20.8437 25.949 20.9055 25.8456 20.9162 25.8197C20.9265 25.7951 21.0527 25.6483 21.0527 25.6483C21.0527 25.6483 21.1189 25.5932 21.2268 25.5274C21.3351 25.4616 21.4322 25.4661 21.4322 25.4661C21.4322 25.4661 21.4608 25.4634 21.6524 25.4872C21.844 25.5108 22.2378 25.6156 22.3372 25.6411C22.4352 25.6676 22.5525 25.7087 22.6285 25.7512C22.8473 25.8702 22.9136 25.8197 22.7395 25.6832C22.6222 25.5915 22.5892 25.5503 22.4947 25.4644C22.415 25.391 22.3524 25.3422 22.2928 25.2746C22.2333 25.2057 22.0637 24.9556 22.0637 24.9556L21.9577 24.7989C21.9577 24.7989 21.9008 24.7345 21.8914 24.73C21.8825 24.7246 21.8538 24.7027 21.8538 24.7027C21.8538 24.7027 21.7836 24.7062 21.711 24.6924C21.6377 24.6776 21.6036 24.7806 21.6036 24.7806C21.6036 24.7806 21.4461 25.0746 21.2859 25.2546C21.0263 25.5467 20.8402 25.7455 20.7449 25.9012C20.611 26.1169 20.6406 26.3533 20.5717 26.4624C20.5314 26.5264 20.5095 26.5358 20.4875 26.5917C20.4204 26.7614 20.6643 26.8544 20.6084 27.0424C20.5193 27.3405 19.8212 27.6354 19.7285 27.5861C19.6323 27.5356 19.711 27.1324 19.7433 27.0021C19.7764 26.871 19.8743 26.6777 19.8834 26.6678C19.8919 26.6584 19.9156 26.6127 19.9227 26.5743C19.9303 26.5358 19.933 26.4486 19.9375 26.4002C19.942 26.3514 19.9621 26.2745 19.9621 26.2745C19.9621 26.2745 19.9648 26.2579 20.0265 26.1241C20.0887 25.9894 20.3161 25.6761 20.479 25.3772C20.5864 25.1821 20.6311 25.0639 20.7385 24.8683C20.8374 24.6889 21.007 24.415 21.007 24.415C21.007 24.415 21.0786 24.2754 21.1122 24.2235C21.1462 24.1702 21.2178 24.0695 21.2849 23.9701C21.3525 23.8712 21.369 23.7969 21.4572 23.7155C21.5301 23.6475 21.5798 23.6112 21.6751 23.5808C21.817 23.5338 21.9141 23.5589 22.0591 23.5992C22.2095 23.6403 22.3129 23.7092 22.4114 23.7907C22.5093 23.8731 22.5823 23.9639 22.5823 23.9639L22.6302 24.0346L22.6597 24.052L22.751 24.1107L22.96 24.2489C22.96 24.2489 23.4559 24.5864 23.4837 24.6047C23.5101 24.6222 23.5991 24.6951 23.6165 24.701C23.6349 24.7063 23.7669 24.5631 24.0261 24.3846C24.3259 24.1764 24.432 24.1921 24.5314 24.138C24.6294 24.0838 24.6696 24.0391 24.7467 23.9621C24.863 23.8457 24.8639 23.7835 24.9959 23.6211C25.1289 23.4591 25.2533 23.3682 25.2533 23.3682C25.2533 23.3682 25.2716 23.3499 25.5084 23.0823C25.7447 22.8156 25.8494 22.6137 25.8494 22.6137L25.9792 22.3537C25.9792 22.3537 26.1671 21.9496 26.2276 21.7898C26.2884 21.6296 26.2884 21.5763 26.2884 21.5763C26.2884 21.5763 26.2973 21.5342 26.2517 21.4528C26.2047 21.3717 26.1564 21.4084 26.0664 21.4268C25.8941 21.4635 25.7894 21.4187 25.6153 21.3884C25.456 21.3619 25.3728 21.3141 25.213 21.2877C25.051 21.2604 24.9566 21.2335 24.7941 21.2492C24.7695 21.2519 24.7198 21.2622 24.696 21.2702C24.6043 21.3006 24.5788 21.3078 24.5108 21.3472C24.432 21.3839 24.3801 21.3955 24.2928 21.3977C24.2324 21.3995 24.1957 21.4013 24.1398 21.3794C24.1013 21.3646 24.0794 21.3535 24.0489 21.3262C24.0306 21.3096 24.0208 21.2988 24.0069 21.2774C24.0051 21.2604 23.9997 21.2612 24.0163 21.2335C24.0324 21.2053 24.0526 21.2004 24.0526 21.2004L24.1269 21.1821C24.1269 21.1821 24.2316 21.1548 24.2414 21.152C24.2508 21.1494 24.3506 21.1171 24.3944 21.1033C24.4388 21.0894 24.4871 21.0639 24.4871 21.0639C24.4871 21.0639 24.5139 21.021 24.5036 20.9963C24.4907 20.9685 24.4311 20.9659 24.4311 20.9659C24.4311 20.9659 24.3479 20.9963 24.3385 20.999C24.3296 21.0008 24.1966 21.0428 24.1966 21.0428C24.1966 21.0428 24.0924 21.0657 24.0114 21.0849C23.9299 21.1032 23.8135 21.1126 23.8135 21.1126L23.7786 21.1032C23.7786 21.1032 23.7392 21.0768 23.733 21.0491C23.7272 21.0245 23.7236 21.0061 23.7191 20.978C23.7017 20.875 23.6807 20.8128 23.7053 20.7113C23.7147 20.6687 23.7245 20.645 23.7429 20.6056C23.7585 20.573 23.7688 20.5542 23.7889 20.5233L23.853 20.4185L23.9738 20.24C24.0154 20.1979 24.0428 20.1769 24.0951 20.1474C24.1721 20.1044 24.2168 20.0923 24.313 20.0815C24.4075 20.0713 24.4204 20.0722 24.5543 20.0422C24.6889 20.0117 24.7843 19.9585 24.7843 19.9585C24.7843 19.9585 25.1061 19.8403 25.3021 19.7441C25.5075 19.6434 25.597 19.536 25.8096 19.4528C25.8995 19.4179 25.9519 19.4013 26.0445 19.3776C26.0562 19.37 26.062 19.3628 26.0656 19.3489C26.0745 19.3154 26.0227 19.2997 25.9868 19.3032C25.9546 19.3059 25.8812 19.34 25.8646 19.3032C25.8521 19.2751 25.9317 19.2585 25.9317 19.2585C25.9317 19.2585 25.9693 19.2411 25.9702 19.22C25.9712 19.1878 25.9161 19.2088 25.8915 19.2061C25.7666 19.1922 25.7568 19.1694 25.6704 19.1484C25.5688 19.1229 25.5138 19.0916 25.4081 19.0871C25.315 19.0835 25.2278 19.1032 25.1692 19.1171C25.1115 19.1318 25.1097 19.075 25.1325 19.0638C25.2958 18.9877 25.2994 18.9814 25.4149 18.9761C25.478 18.9734 25.5662 18.9869 25.576 18.9917C25.5854 18.9971 25.7116 18.9909 25.7438 18.9578C25.7769 18.9255 25.6405 18.9273 25.576 18.9018C25.5165 18.8781 25.4256 18.8714 25.4275 18.832C25.4306 18.7926 25.4745 18.8145 25.5058 18.8065C25.5451 18.7971 25.568 18.798 25.6082 18.7926C25.6808 18.7828 25.687 18.7761 25.7944 18.7672C25.9005 18.7569 26.0535 18.8021 26.0535 18.8021C26.0535 18.8021 26.2142 18.8733 26.293 18.9109C26.3717 18.9475 26.467 18.9668 26.467 18.9668C26.467 18.9668 26.5789 18.9824 26.664 18.9292C26.7503 18.8764 26.7016 18.8415 26.6716 18.7927C26.642 18.747 26.6045 18.6808 26.6595 18.5555C26.7083 18.4463 26.7337 18.3188 26.7477 18.3071C26.7652 18.2933 26.8327 18.3913 26.8765 18.4316C27.0336 18.5784 27.2413 18.6509 27.4373 18.9578C27.4526 18.9824 27.5251 18.943 27.7524 18.978C27.9797 19.0129 28.1785 19.2563 28.2286 19.3145C28.2806 19.3731 28.3477 19.37 28.3477 19.37L28.4569 19.3848L28.8533 19.3915C28.8533 19.3915 29.0333 19.3592 29.1371 19.3987C29.2096 19.426 29.4512 19.5875 29.3412 19.6488C29.2642 19.6918 29.1917 19.5974 29.1219 19.5929C29.0395 19.5875 29.0037 19.6032 28.9303 19.6215C28.7763 19.66 28.4461 19.7598 28.566 19.8001C28.5749 19.8036 28.592 19.8063 28.592 19.8063L28.651 19.8166C28.651 19.8166 28.7961 19.8497 28.8837 19.8841C29.0162 19.9365 29.0789 19.9943 29.2006 20.0658C29.2704 20.1061 29.3008 20.1464 29.3769 20.1692C29.4467 20.1894 29.4915 20.1692 29.5631 20.1813C29.657 20.1979 29.7098 20.2172 29.7958 20.2583C29.9237 20.3196 29.9703 20.3939 30.0849 20.4763C30.1422 20.5179 30.1904 20.5241 30.2334 20.5801C30.2433 20.5926 30.2514 20.5994 30.2559 20.6141C30.2711 20.6651 30.1717 20.6351 30.1189 20.6267C30.0608 20.6168 30.0366 20.5881 29.9829 20.5635C29.9033 20.5259 29.8656 20.4847 29.7788 20.4691C29.7161 20.457 29.6786 20.4664 29.6142 20.47C29.5515 20.4726 29.5184 20.4821 29.4557 20.4829C29.3492 20.4847 29.2892 20.4754 29.1845 20.4534C29.0672 20.4288 29.009 20.3832 28.8927 20.359C28.7611 20.3317 28.5284 20.2189 28.5508 20.3317C28.5624 20.3858 28.6859 20.4315 28.6859 20.4315C28.6859 20.4315 28.7709 20.4771 28.8515 20.5129C28.9321 20.5478 28.9768 20.6011 28.9768 20.6011L29.0323 20.6423C29.0323 20.6423 29.0895 20.7211 29.1648 20.8101C29.2381 20.8978 29.3688 20.8951 29.3688 20.8951C29.3688 20.8951 29.4476 20.8951 29.6176 20.93C29.7868 20.9649 29.9613 21.0696 29.9613 21.0696C29.9613 21.0696 30.0929 21.16 30.1699 21.2509C30.246 21.3418 30.2021 21.3874 30.1923 21.3967C30.1833 21.4066 30.1868 21.4021 30.1761 21.4066C30.1672 21.4111 30.0723 21.292 30.0723 21.292L30.0043 21.2343C30.0043 21.2343 29.9381 21.1878 29.8522 21.16C29.7662 21.1327 29.7376 21.151 29.7376 21.151C29.7376 21.151 29.555 21.2021 29.3957 21.1976C29.2381 21.1931 29.1558 21.13 29.1558 21.13L29.0556 21.0628C29.0556 21.0628 28.9052 20.9219 28.8997 20.9886C28.8961 21.0338 28.966 21.0839 28.966 21.0839C28.966 21.0839 29.0144 21.1327 29.0466 21.1636C29.1075 21.2235 29.1326 21.2536 29.2023 21.3157C29.2722 21.3784 29.3151 21.3784 29.3151 21.3784C29.3151 21.3784 29.3527 21.3873 29.367 21.3901C29.3814 21.3927 29.4064 21.3995 29.4064 21.3995C29.4064 21.3995 29.4297 21.4084 29.5389 21.4528C29.6471 21.4966 29.7644 21.5919 29.7644 21.5919C29.7644 21.5919 29.7752 21.6009 29.7913 21.6041C29.8074 21.6059 29.8396 21.622 29.8486 21.6246C29.8584 21.6269 29.8862 21.6269 29.9488 21.6358C30.0124 21.6452 29.9882 21.6855 29.9882 21.6855L29.9774 21.7007L29.9255 21.7356C29.9255 21.7356 29.8584 21.7549 29.8127 21.7571C29.7662 21.7597 29.7 21.7339 29.7 21.7339L29.5594 21.681C29.5594 21.681 29.4172 21.6434 29.3867 21.6385C29.3562 21.634 29.2292 21.6085 29.2077 21.6041C29.1871 21.5992 29.1236 21.5763 29.1066 21.5665C29.0895 21.5571 29.0582 21.5508 28.9813 21.5132C28.9052 21.4756 28.8747 21.4322 28.7799 21.4022C28.6841 21.3718 28.6259 21.3656 28.5543 21.4152C28.4308 21.5003 28.7404 21.5142 28.8944 21.5911C29.1218 21.703 29.2498 21.7853 29.3035 21.9062C29.358 22.0274 29.4127 22.0713 29.4127 22.0713C29.4127 22.0713 29.5729 22.1519 29.6445 22.2364C29.6839 22.282 29.6893 22.3197 29.7286 22.3653C29.8163 22.4682 29.9864 22.4624 30.0204 22.5497C30.0527 22.6311 29.8825 22.5944 29.7939 22.5863C29.6346 22.5707 29.5961 22.4248 29.4475 22.3662C29.3635 22.3326 29.3097 22.3326 29.2238 22.3031C29.0671 22.2516 28.9938 22.1841 28.8371 22.1353C28.7422 22.1062 28.5703 21.9814 28.5918 22.0775C28.5954 22.1008 28.6097 22.1187 28.6159 22.1326C28.624 22.1465 28.6634 22.1975 28.6634 22.1975C28.6634 22.1975 28.7162 22.2673 28.7403 22.2857C28.7627 22.305 28.8638 22.381 29.0088 22.4598C29.1521 22.5386 29.2773 22.6898 29.2773 22.6898C29.2773 22.6898 29.3203 22.7516 29.3409 22.7946C29.3624 22.843 29.3472 22.8577 29.3812 22.9248C29.4125 22.9915 29.4277 23.0045 29.4707 23.0457C29.5763 23.1473 29.6873 23.1271 29.8215 23.1822C29.8582 23.1978 29.8609 23.2032 29.9003 23.2452C29.9397 23.2868 29.8931 23.3047 29.8931 23.3047C29.8931 23.3047 29.7437 23.3432 29.647 23.3351C29.5217 23.3253 29.4653 23.2868 29.3436 23.2259C29.22 23.1655 29.1556 23.0568 29.1431 23.0501C29.1324 23.0429 29.1019 23.0107 29.0787 22.9941C29.0554 22.9776 28.9954 22.965 28.9417 22.9503C28.8871 22.9355 28.8566 22.9328 28.8021 22.918C28.7278 22.897 28.6508 22.8643 28.6159 22.8532C28.581 22.8411 28.5013 22.8267 28.4431 22.8612C28.3268 22.9301 28.6239 22.9766 28.7161 23.0756C28.7635 23.1253 28.7832 23.1602 28.828 23.2125C28.862 23.2528 28.8764 23.281 28.9185 23.3123C28.947 23.3333 28.9999 23.3561 28.9999 23.3561C28.9999 23.3561 29.0714 23.3893 29.1762 23.447C29.2809 23.5047 29.4035 23.668 29.4035 23.668L29.4778 23.7817L29.5216 23.8466L29.5333 23.8766L29.5493 23.9133C29.5493 23.9133 29.6031 23.9831 29.6424 24.0059C29.6819 24.0296 29.6747 24.0502 29.6747 24.0502C29.6747 24.0502 29.6702 24.0646 29.6424 24.0803C29.6156 24.0968 29.6004 24.0829 29.561 24.0713C29.5216 24.0601 29.4957 24.0226 29.4617 23.9952C29.4259 23.9666 29.3883 23.8972 29.3248 23.8578C29.2684 23.8239 29.195 23.8118 29.1663 23.8028C29.1386 23.7926 29.0688 23.7487 29.041 23.7366C29.0142 23.7258 28.9417 23.6927 28.9417 23.6927C28.9417 23.6927 28.8021 23.6149 28.725 23.5939C28.6481 23.5723 28.6973 23.6194 28.6973 23.6194C28.6973 23.6194 28.7663 23.7268 28.8324 23.7697C28.9184 23.8265 29.0392 23.8767 28.9998 23.9227C28.9729 23.9527 28.9372 23.942 28.8978 23.9375C28.8334 23.9299 28.7555 23.8529 28.7555 23.8529C28.7555 23.8529 28.7233 23.8319 28.5792 23.7862C28.4359 23.7392 28.4887 23.818 28.5219 23.8605C28.5541 23.9017 28.598 23.9254 28.598 23.9254L28.6956 23.9693L28.7403 23.9831C28.7403 23.9831 28.7798 23.9903 28.9095 24.0207C29.0393 24.0502 29.1109 24.1134 29.1109 24.1134C29.1109 24.1134 29.1807 24.1782 29.2773 24.2499C29.3758 24.3224 29.4725 24.3407 29.5262 24.3479C29.5799 24.3546 29.5781 24.3922 29.5781 24.3922C29.5781 24.3922 29.5852 24.4267 29.5817 24.4379C29.5799 24.4495 29.5683 24.4589 29.5566 24.4589C29.5459 24.4589 29.5406 24.4634 29.5262 24.471C29.5119 24.4782 29.4564 24.4871 29.4564 24.4871C29.4564 24.4871 29.3114 24.4827 29.1969 24.4544C29.0841 24.4267 28.9838 24.3479 28.9731 24.3435C28.9641 24.339 28.8585 24.2804 28.7851 24.2571C28.7144 24.2334 28.6007 24.2437 28.5882 24.2482C28.5766 24.2527 28.5372 24.2589 28.4701 24.2786C28.4021 24.2965 28.4871 24.3224 28.4871 24.3224L28.5354 24.3269L28.6508 24.3359C28.6508 24.3359 28.7708 24.3497 28.8719 24.3873C28.9731 24.424 29.0393 24.4983 29.1065 24.5663C29.1735 24.633 29.2479 24.6769 29.2479 24.6769L29.3016 24.7118L29.3294 24.7328L29.3365 24.7511C29.3365 24.7511 29.3338 24.7605 29.3294 24.7721C29.3249 24.7842 29.3079 24.7931 29.3079 24.7931C29.3079 24.7931 29.2828 24.7886 29.2721 24.7886C29.2595 24.7886 29.1835 24.7484 29.1271 24.7238C29.0689 24.6983 29.0394 24.6741 28.9767 24.6588C28.923 24.6459 28.8515 24.64 28.8353 24.645C28.8192 24.6495 28.701 24.666 28.6097 24.6723C28.5185 24.6794 28.4396 24.6808 28.3322 24.6678C28.1792 24.6495 27.976 24.5286 27.95 24.5622C27.8973 24.6329 28.0584 24.653 28.1372 24.6982C28.2446 24.7604 28.4307 24.8164 28.4307 24.8164C28.4307 24.8164 28.5668 24.8463 28.6464 24.8839C28.821 24.965 28.8738 25.0849 29.0143 25.2111C29.0913 25.2818 29.1539 25.3122 29.2577 25.3275C29.3473 25.3405 29.3455 25.3297 29.4869 25.302C29.6292 25.2738 29.7152 25.1391 29.7563 25.1883C29.7644 25.1978 29.7608 25.2067 29.759 25.2206C29.7563 25.2344 29.7447 25.26 29.7447 25.26C29.7447 25.26 29.7286 25.2828 29.7035 25.3087C29.6776 25.3342 29.58 25.3875 29.529 25.4085C29.478 25.4296 29.3527 25.4645 29.1951 25.4595C29.0376 25.455 28.8157 25.3342 28.8157 25.3342L28.6564 25.2671C28.6564 25.2671 28.5829 25.2326 28.5328 25.2138C28.4004 25.1637 28.3162 25.1682 28.1801 25.1324C28.096 25.1096 28.0406 25.0858 27.9645 25.0702C27.8875 25.0536 27.9314 25.0841 27.9385 25.0948C27.9743 25.1435 28.0226 25.1592 28.0835 25.1874C28.1641 25.2268 28.2205 25.2188 28.3028 25.2537C28.395 25.2909 28.4756 25.3432 28.5266 25.3763C28.5767 25.4086 28.6144 25.4453 28.6636 25.4963L28.8327 25.6413C28.8327 25.6413 28.8721 25.6735 28.8766 25.687C28.881 25.7009 28.8998 25.7357 28.8909 25.7917C28.881 25.8477 28.8354 25.8083 28.8354 25.8083L28.7907 25.7796L28.7459 25.7384L28.6751 25.6799C28.6751 25.6799 28.6143 25.6248 28.5095 25.5715C28.4057 25.5174 28.2804 25.5039 28.2804 25.5039C28.2804 25.5039 28.1694 25.4874 28.173 25.5223C28.1783 25.5567 28.2033 25.5599 28.291 25.5827C28.3797 25.6056 28.4378 25.6503 28.4378 25.6503C28.4378 25.6503 28.5283 25.7174 28.5936 25.7917C28.658 25.866 28.6768 25.9381 28.6768 25.9381C28.6768 25.9381 28.71 25.9989 28.7932 26.0795C28.8765 26.1609 28.9203 26.1327 28.9158 26.1721C28.9113 26.2115 28.8746 26.2187 28.8746 26.2187C28.8746 26.2187 28.8531 26.2168 28.8442 26.2168C28.8353 26.2168 28.8138 26.2048 28.7905 26.1958C28.7673 26.1869 28.6795 26.126 28.6795 26.126C28.6795 26.126 28.5417 26.0142 28.5265 26.0034C28.5095 25.9913 28.3797 25.8942 28.3797 25.8942C28.3797 25.8942 28.3027 25.845 28.2481 25.8172C28.1917 25.7899 28.1174 25.7613 28.0754 25.7474C28.0342 25.734 27.9572 25.7295 27.9572 25.7295C27.9572 25.7295 27.865 25.7156 27.8087 25.6946C27.72 25.6605 27.6171 25.5661 27.6055 25.5616C27.5929 25.5567 27.5106 25.5285 27.4945 25.5312C27.4784 25.533 27.4408 25.6888 27.4319 25.7787C27.3943 26.1556 27.4945 26.4057 27.6502 26.7512C27.8749 27.2533 28.5005 27.8776 28.5005 27.8776C28.5005 27.8776 28.6581 27.9667 28.7243 28.0199C28.9114 28.1663 29.2211 28.3735 29.4959 28.6474C29.7303 28.8823 30.0419 29.2989 30.0419 29.2989C30.0419 29.2989 30.2226 29.5505 30.3068 29.7286C30.4089 29.947 30.4912 30.28 30.4912 30.28C30.4912 30.28 30.4984 30.3373 30.5038 30.3498C30.5109 30.3614 30.527 30.3766 30.5378 30.3766L30.6469 30.3803C30.6577 30.3803 30.7821 30.3714 30.8645 30.3507C30.9459 30.3301 31.1393 30.2415 31.2681 30.1744C31.3952 30.1063 31.5483 29.9775 31.5483 29.9775C31.5483 29.9775 31.5778 29.9524 31.7264 29.7859C31.8768 29.6195 31.9735 29.3698 32.0101 29.2753C32.046 29.1818 32.0755 29.0015 32.097 28.6935C32.1202 28.3843 32.0782 28.0584 32.0782 28.0584C32.0782 28.0584 32.0218 27.6038 31.9877 27.4489C31.9538 27.295 31.8714 27.0425 31.8714 27.0425C31.8714 27.0425 31.8142 26.818 31.7963 26.6761C31.7774 26.5342 31.7748 26.3033 31.7748 26.3033C31.7748 26.3033 31.7748 26.1619 31.8204 25.9005C31.8678 25.6405 32.0272 25.3782 32.0272 25.3782C32.0272 25.3782 32.0719 25.29 32.2439 25.0842C32.4201 24.8734 32.4765 24.8403 32.6501 24.7145C32.788 24.6156 32.9661 24.4563 33.0244 24.4939C33.0888 24.5341 32.9616 24.6147 32.9187 24.6568C32.8104 24.7642 32.6081 24.9539 32.4443 25.2399C32.3011 25.4874 32.2474 25.6512 32.2117 25.8127C32.1758 25.9739 32.1911 26.1511 32.1956 26.2115C32.201 26.272 32.234 26.25 32.234 26.25C32.234 26.25 32.5822 25.9703 32.771 25.7586C32.976 25.5295 33.1586 25.1218 33.2302 25.1182C33.2785 25.1151 33.3009 25.2243 33.2893 25.2749C33.2446 25.4865 33.2294 25.5129 33.1603 25.6534C33.0816 25.8146 33.0083 25.8862 32.899 26.0348C32.7844 26.1905 32.7281 26.25 32.6359 26.4563C32.5027 26.753 32.5804 26.9822 32.5804 26.9822C32.5804 26.9822 32.5966 27.1214 32.6592 27.1196C32.764 27.116 32.9939 26.8255 33.1443 26.5878C33.2554 26.4138 33.2956 26.2124 33.3682 26.1067C33.4344 26.0132 33.4926 26.2589 33.4639 26.4039C33.4308 26.5762 33.3458 26.7311 33.1587 26.975C32.9761 27.213 32.9815 27.4395 32.9815 27.4395C32.9815 27.4395 32.9627 27.5429 32.9474 27.7685C32.9332 27.9931 32.9976 28.3342 32.9976 28.3342C32.9976 28.3342 33.0548 28.6192 33.0665 28.8354C33.0773 29.0528 33.0701 29.5465 32.8669 29.9309C32.7863 30.0849 32.6135 30.2979 32.6135 30.2979C32.6135 30.2979 32.4802 30.4349 32.371 30.5145C32.2617 30.5942 31.9995 30.7186 31.9995 30.7186C31.9995 30.7186 31.8179 30.7812 31.7928 30.7867C31.7659 30.7938 31.7498 30.8162 31.7498 30.8162C31.7498 30.8162 31.7659 30.8511 31.7731 30.8654C31.7793 30.8798 31.8303 31.005 31.8303 31.005C31.8303 31.005 31.8849 31.1822 31.9055 31.3228C31.9261 31.4633 31.9019 31.4955 31.8823 31.6029C31.8625 31.7059 31.8179 31.6584 31.8062 31.8607C31.7963 32.0398 31.8769 32.1292 31.8625 32.3298C31.8564 32.4175 31.7569 32.2188 31.7086 32.1347C31.6065 31.952 31.6307 31.671 31.6289 31.6012C31.6262 31.5314 31.6208 31.4543 31.5949 31.3667C31.5636 31.252 31.5161 31.1635 31.4633 31.0937C31.4096 31.0247 31.3532 30.9854 31.3344 30.9926C31.3156 30.9988 31.3138 31.0355 31.3138 31.0534C31.3129 31.0731 31.3505 31.1394 31.3586 31.1537C31.3684 31.1671 31.4355 31.2898 31.4355 31.2898C31.4355 31.2898 31.465 31.3846 31.4767 31.5691C31.4884 31.7517 31.4319 31.979 31.4319 31.979C31.4319 31.979 31.3585 32.2341 31.2816 32.3845C31.1955 32.55 31.005 32.7756 31.005 32.7756C31.005 32.7756 30.868 32.9009 30.7651 33.1068C30.664 33.3126 30.7508 33.4022 30.7132 33.429C30.6738 33.4549 30.5932 33.3099 30.5717 33.2124C30.5511 33.1211 30.5609 33.0781 30.5986 32.976C30.6335 32.8776 30.7159 32.7352 30.7159 32.7352L30.8385 32.5267C30.8385 32.5267 30.9871 32.2439 31.0336 32.038C31.0802 31.8339 31.0265 31.6066 31.0265 31.6066C31.0265 31.6066 31.0202 31.5314 30.9692 31.535C30.9173 31.5377 30.8815 31.5825 30.86 31.637C30.8179 31.7498 30.8779 31.7293 30.8134 31.9172C30.7634 32.0648 30.749 32.0452 30.7221 32.1329C30.6899 32.2376 30.6729 32.345 30.6748 32.4104C30.6774 32.4748 30.6416 32.448 30.6416 32.448C30.6416 32.448 30.579 32.3316 30.579 32.1866C30.579 32.1078 30.5826 32.0631 30.5916 31.9843C30.6059 31.8581 30.6578 31.6648 30.6578 31.6648C30.6578 31.6648 30.7133 31.4741 30.7016 31.3005C30.6883 31.125 30.6274 31.0929 30.6274 31.0929C30.6274 31.0929 30.6113 31.0696 30.5433 31.0731C30.4762 31.0786 30.4797 31.1993 30.4797 31.1993C30.4797 31.1993 30.4591 31.3721 30.4323 31.4795C30.358 31.7757 30.2587 31.9315 30.0832 32.1812C29.9239 32.4068 29.7082 32.6055 29.5998 32.6986C29.4924 32.7935 29.1613 33.0343 29.1613 33.0343L28.7728 33.2929C28.7728 33.2929 28.6189 33.4433 28.549 33.6223C28.4775 33.8005 28.481 33.9401 28.5221 34.1038C28.5634 34.2685 28.6224 34.3437 28.6537 34.3902C28.6842 34.4351 28.7442 34.5155 28.7639 34.6105C28.7764 34.6686 28.7675 34.7035 28.771 34.7626C28.7747 34.8145 28.7818 34.8431 28.78 34.896C28.7782 34.9783 28.7934 35.0364 28.746 35.1036C28.7119 35.1546 28.6188 35.1993 28.6188 35.1993C28.6188 35.1993 28.5133 35.2458 28.4505 35.2843C27.7899 35.6827 27.5555 35.9413 27.1831 36.3853C27.065 36.5276 27.1518 36.5187 27.0256 36.6869C26.9491 36.7872 26.7723 36.7872 26.7083 36.9071C26.6193 37.0709 26.9088 37.232 26.5745 37.3762C26.1436 37.5623 25.402 37.4289 25.3872 37.3708C25.3469 37.2114 25.5322 37.0271 25.598 36.9537C25.8996 36.6243 26.169 36.6162 26.2679 36.3433C26.2894 36.2851 26.2809 36.235 26.5212 36.0568C26.6899 35.9324 27.3639 35.4249 27.6584 35.0866C27.7596 34.9702 27.8464 34.8933 27.8902 34.7679C27.935 34.6407 27.8464 34.5611 27.8464 34.5611L27.7255 34.3642L27.4937 33.9498C27.4937 33.9498 27.3962 33.7296 27.3434 33.6025C27.2888 33.4754 27.1876 33.1334 27.1876 33.1334C27.1876 33.1334 27.1134 32.8256 27.1008 32.625C27.0784 32.2652 27.1276 32.0558 27.2226 31.7067C27.3452 31.2539 27.6235 31.0641 27.7345 30.6147C27.7668 30.4841 27.7739 30.2603 27.7077 30.271C27.645 30.2827 27.6396 30.459 27.5913 30.5772C27.4123 31.0229 27.176 31.2181 27.0462 31.6799C26.9594 31.9922 26.9237 32.1776 26.9245 32.5016C26.9255 32.6868 26.9182 32.6528 26.9657 32.9742C26.9845 33.0923 27.0131 33.1558 27.048 33.2712C27.0731 33.3536 27.1402 33.5076 27.1402 33.5076C27.1402 33.5076 27.2324 33.7108 27.2647 33.8531C27.2744 33.9023 27.2871 33.93 27.2834 33.9793C27.2772 34.0643 27.2924 34.0822 27.2512 34.1592C27.2002 34.255 27.2314 34.3114 27.0686 34.3471C26.9236 34.3775 26.6273 34.2809 26.6273 34.2809C26.6273 34.2809 25.4096 33.9121 24.6322 34.0186C24.4783 34.0392 24.3955 34.0956 24.2407 34.0929C24.0997 34.0911 24.0281 33.981 23.8871 34.0231C23.8585 34.0312 23.8495 34.0517 23.8236 34.0687C23.6177 34.2119 23.7752 34.45 23.2328 34.3265C22.8999 34.2504 22.4967 34.0464 22.5664 33.9183C22.6599 33.7483 22.7852 33.7205 23.0485 33.6122C23.3299 33.4976 23.7524 33.5299 23.8357 33.5245C23.9372 33.5164 24.0832 33.4457 24.2648 33.4413C24.579 33.4358 24.6349 33.4735 24.6349 33.4735L25.1683 33.5208L26.1892 33.5335C26.1892 33.5335 26.3717 33.52 26.4442 33.5057C26.5177 33.4913 26.5754 33.3472 26.6156 33.2783C26.655 33.2103 26.6138 33.11 26.6138 33.11L26.5835 33.0626L26.4863 32.906L26.3069 32.6034L26.1077 32.2061C26.1077 32.2061 25.9775 31.9295 25.9081 31.7478C25.8392 31.567 25.7989 31.4649 25.7533 31.2779C25.7054 31.0854 25.6758 30.9297 25.6696 30.7749C25.662 30.5526 25.6473 30.3799 25.7095 30.1982Z" fill="black"/>
<path d="M32.3364 29.8294C32.5511 29.5538 32.5719 29.2977 32.5843 28.9371C32.5941 28.6748 32.4949 28.2707 32.4949 28.2707L32.4814 28.2411C32.4814 28.2411 32.4438 28.1923 32.4206 28.2568C32.4242 28.3137 32.4314 28.3593 32.4314 28.3593L32.4439 28.8798C32.4439 28.8798 32.4277 29.142 32.3383 29.4123C32.1879 29.8688 31.7887 30.072 31.7306 30.2367C31.6311 30.5097 32.0795 30.1615 32.3364 29.8294Z" fill="white"/>
<path d="M30.0845 30.6717C30.0845 30.6717 29.9968 30.6968 29.995 30.7836C29.9932 30.8704 30.0164 30.9456 30.0138 31.0503C30.012 31.1837 29.8894 31.3376 29.9681 31.3878C30.1033 31.4737 30.2196 30.8686 30.1785 30.7791C30.1373 30.6895 30.097 30.6708 30.0845 30.6717Z" fill="white"/>
<path d="M28.5683 34.8668C28.5683 34.8668 28.5432 34.8534 28.494 34.8722C28.4457 34.891 28.4492 34.9412 28.4492 34.9412C28.4492 34.9412 28.4394 34.9949 28.4788 35.0003C28.5182 35.0075 28.5826 34.9108 28.5826 34.9C28.5826 34.8892 28.5683 34.8668 28.5683 34.8668Z" fill="white"/>
<path d="M27.1416 35.8809C27.1416 35.8809 27.1272 35.8953 27.1398 35.9051C27.1532 35.9168 27.172 35.9024 27.172 35.9024C27.172 35.9024 27.4181 35.71 27.5641 35.5748C27.718 35.4299 27.94 35.1801 27.94 35.1801C27.94 35.1801 27.9552 35.1613 27.9382 35.1452C27.9202 35.1291 27.8782 35.1541 27.8433 35.1702C27.8129 35.1864 27.795 35.2033 27.7718 35.2222C27.7503 35.2419 27.6769 35.3171 27.6769 35.3171L27.4871 35.5015L27.3671 35.6142L27.2508 35.7252L27.2025 35.7807C27.2025 35.7807 27.1899 35.8022 27.1864 35.8076C27.1827 35.8138 27.1703 35.8299 27.1703 35.8299C27.1703 35.8299 27.1523 35.847 27.1523 35.8523C27.1523 35.8568 27.147 35.8613 27.147 35.8667C27.1451 35.8738 27.1416 35.8809 27.1416 35.8809Z" fill="white"/>
<path d="M26.7159 36.1603C26.7159 36.1603 26.6895 36.1388 26.6479 36.1593C26.6059 36.1817 26.5611 36.2389 26.5575 36.2453C26.5535 36.2534 26.5306 36.2838 26.5463 36.3106C26.562 36.3375 26.6152 36.298 26.6233 36.2963C26.6309 36.2963 26.7003 36.2408 26.7003 36.2408C26.7003 36.2408 26.7406 36.2157 26.7159 36.1603Z" fill="white"/>
<path d="M25.901 36.9855C25.901 36.9855 25.8661 36.9211 25.8204 36.9479C25.7748 36.9748 25.7497 36.9837 25.7077 37.0418C25.7005 37.0517 25.6553 37.1099 25.6472 37.1251C25.6392 37.1395 25.594 37.2254 25.6857 37.2316C25.8433 37.2405 25.7399 37.1395 25.794 37.1C25.8379 37.0696 25.9202 37.0777 25.9211 37.0454C25.922 37.0133 25.901 36.9855 25.901 36.9855Z" fill="white"/>
<path d="M23.1085 33.688C23.1085 33.688 23.014 33.7113 23.0069 33.7436C22.9992 33.7775 23.0619 33.8098 23.0717 33.8115C23.0829 33.8133 23.104 33.8384 23.167 33.7954C23.2292 33.7534 23.2266 33.7176 23.2266 33.7176C23.2266 33.7176 23.2633 33.6746 23.1085 33.688Z" fill="white"/>
<path d="M24.6443 33.6379C24.6443 33.6379 24.6434 33.603 24.5767 33.6075C24.5087 33.6111 24.4944 33.6236 24.4926 33.6344C24.4904 33.6442 24.4962 33.6612 24.5566 33.6666C24.6179 33.6702 24.6425 33.6665 24.6443 33.6379Z" fill="white"/>
<path d="M26.0965 33.68C25.9744 33.679 26.0129 33.6827 25.9377 33.6863C25.8012 33.6934 25.7269 33.688 25.5922 33.679C25.4033 33.6665 25.1111 33.62 25.1111 33.62C25.1111 33.62 25.0744 33.6111 25.0596 33.6352C25.0462 33.6576 25.0954 33.7095 25.1393 33.723C25.3787 33.7973 25.3917 33.7848 25.5546 33.7874C25.6455 33.7883 25.696 33.7793 25.7864 33.7739C25.901 33.7651 25.9542 33.7829 26.0791 33.7498C26.1117 33.7417 26.1431 33.6809 26.0965 33.68Z" fill="white"/>
<path d="M26.9147 33.4374C26.9147 33.4374 26.8901 33.4088 26.8395 33.4339C26.7894 33.458 26.759 33.5126 26.759 33.5126C26.759 33.5126 26.7353 33.5502 26.7858 33.5449C26.8351 33.5377 26.8793 33.5163 26.891 33.5091C26.9039 33.5018 26.9407 33.4678 26.9147 33.4374Z" fill="white"/>
<path d="M26.2026 23.6181C26.2026 23.6181 26.5481 23.2946 26.7955 22.8668C26.9422 22.6116 27.0062 22.0178 26.8801 22.1654C26.8232 22.2331 26.7543 22.541 26.6451 22.7691C26.4894 23.094 26.1568 23.5541 26.1568 23.5541C26.1568 23.5541 26.0853 23.7072 26.2026 23.6181Z" fill="white"/>
<path d="M24.8216 24.4403C24.8216 24.4403 24.7848 24.4689 24.8014 24.5146C24.8189 24.5611 24.8892 24.5262 24.8892 24.5262C24.8892 24.5262 25.0489 24.4658 25.2163 24.4596C25.3841 24.4524 25.6168 24.5025 25.6168 24.5025C25.6168 24.5025 25.7278 24.5329 25.7462 24.5401C25.7645 24.5477 25.825 24.5768 25.8353 24.5803C25.8442 24.5844 25.9019 24.6126 25.9342 24.5835C25.9664 24.5539 25.7323 24.3414 25.4934 24.3092C25.0955 24.255 24.8342 24.4264 24.8342 24.4264L24.8216 24.4403Z" fill="white"/>
<path d="M23.1827 25.8415C23.2108 25.8657 23.3438 25.6124 23.4547 25.4521C23.5362 25.3349 23.6848 25.1389 23.6848 25.1389C23.6848 25.1389 23.7519 25.0489 23.6383 25.0991C23.5922 25.1197 23.466 25.2159 23.3769 25.3927C23.3017 25.543 23.1531 25.8178 23.1827 25.8415Z" fill="white"/>
<path d="M22.2634 24.741C22.2634 24.741 22.2348 24.839 22.3494 24.9616C22.4648 25.0847 22.4944 25.1862 22.5678 25.1129C22.5879 25.0927 22.4962 24.9272 22.4496 24.8811C22.4017 24.8354 22.3677 24.7978 22.3677 24.7978L22.3377 24.7732L22.2992 24.7517L22.2773 24.7428C22.2773 24.7428 22.2715 24.7374 22.2634 24.741Z" fill="white"/>
<path d="M21.891 23.8012C21.891 23.8012 21.7666 23.8244 21.7362 23.8848C21.7053 23.9453 21.8794 23.9086 21.8794 23.9086C21.8794 23.9086 21.9948 23.9148 21.9976 23.871C22.0002 23.8262 21.9829 23.8218 21.891 23.8012Z" fill="white"/>
<path d="M19.9143 27.0771C19.8508 27.0588 19.8401 27.1837 19.8315 27.2239C19.8243 27.2642 19.8602 27.3447 19.8749 27.3447C19.8892 27.3438 19.9398 27.2651 19.9425 27.2266C19.9452 27.1872 19.9703 27.0946 19.9143 27.0771Z" fill="white"/>
<path d="M21.9673 29.5171C21.9673 29.5171 21.8536 29.4271 21.8361 29.4629C21.8191 29.4987 21.9297 29.6566 21.9297 29.6566C21.9297 29.6566 21.9637 29.7086 22.016 29.6853C22.0675 29.6603 22.0491 29.6029 22.0491 29.6029C22.0491 29.6029 22.0142 29.5296 21.9673 29.5171Z" fill="white"/>
<path d="M21.1102 26.8784C21.1102 26.8784 21.0811 26.8708 21.0708 26.9057C21.06 26.9406 21.0609 26.9974 21.0533 27.0663C21.0471 27.1201 21.0672 27.2633 21.0672 27.2633C21.0672 27.2633 21.0784 27.377 21.1012 27.4446C21.1258 27.5188 21.1912 27.6245 21.1912 27.6245C21.1912 27.6245 21.2158 27.6786 21.2462 27.676C21.2762 27.6728 21.269 27.6374 21.269 27.6374C21.269 27.6374 21.1737 27.2598 21.171 27.2213C21.1598 27.0955 21.1598 26.9425 21.1598 26.9425L21.1589 26.9196C21.1589 26.9196 21.158 26.8793 21.1102 26.8784Z" fill="white"/>
<path d="M21.2587 25.7261C21.2587 25.7261 21.2064 25.7162 21.1581 25.8169C21.1093 25.9189 21.1196 25.9601 21.124 25.9646C21.1276 25.9691 21.1661 25.9682 21.2279 25.8738C21.2892 25.7802 21.2753 25.7444 21.2753 25.7444C21.2753 25.7444 21.2717 25.7261 21.2587 25.7261Z" fill="white"/>
<path d="M22.6989 26.7701C22.6989 26.7701 22.762 26.8645 22.6412 26.8426C22.5199 26.8207 22.2653 26.6197 22.1614 26.5656C22.0589 26.5115 21.8902 26.4944 21.9609 26.4309C21.9739 26.4202 21.9775 26.4098 21.9976 26.409C22.0186 26.4081 22.0885 26.4354 22.0929 26.4385C22.0965 26.4402 22.2759 26.5145 22.2826 26.5163C22.2889 26.519 22.3896 26.562 22.4612 26.604C22.5328 26.6465 22.6491 26.7279 22.6491 26.7279L22.6989 26.7701Z" fill="white"/>
<path d="M26.0558 29.6603C26.0889 29.7641 25.6736 29.441 25.4512 29.2696C24.8618 28.8157 24.1404 27.8854 24.2303 27.803C24.3046 27.7354 24.6004 28.1615 25.0341 28.6309C25.4977 29.1313 26.0366 29.5985 26.0558 29.6603Z" fill="white"/>
<path d="M27.7896 29.2154C27.6607 29.3528 27.6151 29.5287 27.6893 29.6603C27.7618 29.7882 27.7842 29.4731 27.8648 29.3805C27.9346 29.2995 27.9776 29.3125 28.0921 29.231C28.2873 29.0937 27.9526 29.0404 27.7896 29.2154Z" fill="white"/>
<path d="M27.052 26.2787C26.9634 26.2644 26.9661 26.3991 26.9786 26.4945C27.0377 26.9213 27.2293 27.2503 27.4852 27.56C27.641 27.7489 28.0679 28.0854 28.1171 28.0313C28.1351 28.012 27.7107 27.684 27.4404 27.2625C27.2489 26.9635 27.1468 26.7107 27.1227 26.464C27.1201 26.4327 27.1272 26.2908 27.052 26.2787Z" fill="white"/>
<path d="M25.3988 19.951C25.2063 20.0553 24.8725 20.1471 24.8725 20.1471C24.8725 20.1471 24.8573 20.1802 24.9002 20.1767C25.1863 20.1538 25.2954 20.118 25.4476 20.0509C25.5998 19.9851 25.7103 19.8025 25.7103 19.8025C25.7103 19.8025 25.7721 19.6888 25.6575 19.7824C25.6217 19.811 25.5044 19.8933 25.3988 19.951Z" fill="white"/>
<path d="M27.7207 19.2176C27.7207 19.2176 27.6554 19.2032 27.6115 19.2306C27.5676 19.2583 27.5801 19.2803 27.5801 19.2803C27.5801 19.2803 27.6482 19.3322 27.6965 19.3407C27.7449 19.3479 27.8487 19.3931 27.8452 19.3582C27.8406 19.3224 27.7825 19.2584 27.7618 19.2409C27.7431 19.2225 27.7207 19.2176 27.7207 19.2176Z" fill="white"/>
<path d="M26.6278 21.2226C26.6389 21.2454 26.834 21.1921 26.9093 21.15C26.9679 21.1169 26.9911 21.0059 26.9911 21.0059C26.9911 21.0059 27.0072 20.8985 26.9822 20.9401C26.8707 21.1223 26.617 21.1992 26.6278 21.2226Z" fill="white"/>
<path d="M26.6215 20.7217C26.7003 20.5704 26.4053 20.8788 26.255 20.9585C26.1632 21.0068 26.0138 21.0712 26.0138 21.0712C26.0138 21.0712 25.9744 21.1204 26.0294 21.116C26.0845 21.1124 26.2246 21.1598 26.3383 21.0721C26.3651 21.0506 26.4832 20.8788 26.4832 20.8788C26.4832 20.8788 26.5839 20.7933 26.6215 20.7217Z" fill="white"/>
<path d="M26.5759 21.3653C26.5821 21.3899 26.9128 21.3818 26.9957 21.3568C27.061 21.3389 27.0968 21.2234 27.0968 21.2234C27.0968 21.2234 27.1362 21.1223 27.1021 21.1563C26.9522 21.3094 26.5701 21.3407 26.5759 21.3653Z" fill="white"/>
<path d="M21.2641 24.3946C21.2641 24.3946 21.214 24.3763 21.1518 24.4698C21.09 24.5629 20.8117 24.9858 20.8609 25.048C20.9195 25.1214 21.1607 24.6703 21.2342 24.5862C21.3084 24.5007 21.278 24.4148 21.278 24.4148C21.278 24.4148 21.2771 24.3955 21.2641 24.3946Z" fill="white"/>
<path d="M27.3277 32.0197C27.2972 32.1602 27.333 32.4476 27.3814 32.5039C27.4995 32.6462 27.427 32.2811 27.444 32.153C27.4583 32.034 27.4726 31.9928 27.5318 31.8657C27.6374 31.6366 27.3895 31.7207 27.3277 32.0197Z" fill="white"/>
<path d="M26.3118 19.799C26.3118 19.799 26.2201 19.8016 26.1485 19.841C26.076 19.8804 26.0581 19.9364 26.0581 19.9364C26.0581 19.9364 26.0433 19.9766 26.0532 19.9986C26.0742 20.0465 26.1736 19.974 26.2429 19.9976C26.2989 20.0178 26.3257 20.0344 26.3687 20.0858C26.4063 20.1306 26.4721 20.195 26.5133 20.1583C26.5557 20.1225 26.5401 20.0308 26.5401 20.0308C26.5401 20.0308 26.4913 19.8813 26.4274 19.8392C26.3629 19.7963 26.3118 19.799 26.3118 19.799Z" fill="white"/>
<path d="M24.7876 20.8502C24.7876 20.8502 24.7361 20.8582 24.7482 20.9209C24.7603 20.9822 24.7939 20.9728 24.7939 20.9728C24.7939 20.9728 24.9004 20.9271 24.8941 20.8632C24.8865 20.7987 24.7876 20.8502 24.7876 20.8502Z" fill="white"/>
<path d="M24.0433 20.5163C24.0433 20.5163 23.9874 20.5186 23.948 20.5879C23.9095 20.6569 23.8867 20.7285 23.8867 20.7285C23.8867 20.7285 23.8683 20.8189 23.9005 20.8475C23.9332 20.8757 23.969 20.7889 24.0159 20.7549C24.0441 20.7348 24.0616 20.7258 24.0907 20.7052C24.1306 20.6779 24.1954 20.7128 24.191 20.6322C24.1852 20.5512 24.0993 20.5127 24.0433 20.5163Z" fill="white"/>
<path d="M26.4483 19.6504C26.4483 19.6504 26.3217 19.632 26.3266 19.6808C26.331 19.7264 26.3951 19.6991 26.4362 19.7175C26.4765 19.7358 26.5034 19.743 26.5355 19.7725C26.5593 19.7935 26.5565 19.8347 26.5857 19.8356C26.626 19.8365 26.6179 19.82 26.6179 19.82C26.6179 19.82 26.5812 19.7108 26.5334 19.6799C26.4859 19.6486 26.4483 19.6504 26.4483 19.6504Z" fill="white"/>
<path d="M27.8612 20.161C27.8433 20.2299 27.8325 20.2536 27.8325 20.2536C27.8325 20.2536 27.7968 20.3937 27.9382 20.3422C28.0796 20.2902 28.0062 20.3122 28.1082 20.2626C28.2085 20.2133 28.2067 20.2406 28.2801 20.2442C28.3051 20.2451 28.3212 20.246 28.3589 20.2389C28.3911 20.2317 28.3776 20.1941 28.3061 20.1748C28.2291 20.1547 28.1351 20.1592 28.026 20.1582C27.9615 20.1574 27.88 20.0921 27.8612 20.161Z" fill="white"/>
<path d="M27.9238 19.6432C27.9238 19.6432 27.8593 19.6284 27.8146 19.6562C27.7707 19.6835 27.7842 19.7054 27.7842 19.7054C27.7842 19.7054 27.8513 19.7587 27.9005 19.7659C27.9489 19.7743 28.0527 19.8191 28.0491 19.7833C28.0437 19.7484 27.9865 19.6835 27.9659 19.6661C27.9453 19.6486 27.9238 19.6432 27.9238 19.6432Z" fill="white"/>
<path d="M28.1727 20.6157C28.1727 20.6157 28.1037 20.6018 28.0563 20.6282C28.0098 20.6542 28.0223 20.6752 28.0223 20.6752C28.0223 20.6752 28.0957 20.7245 28.1476 20.7321C28.1996 20.7392 28.3105 20.7813 28.306 20.7477C28.3016 20.7146 28.2389 20.6533 28.2183 20.6368C28.1977 20.6201 28.1727 20.6157 28.1727 20.6157Z" fill="white"/>
<path d="M28.1941 20.9683C28.1941 20.9683 28.1207 20.9518 28.0706 20.9822C28.0205 21.0122 28.0356 21.0364 28.0356 21.0364C28.0356 21.0364 28.1118 21.0941 28.1673 21.1022C28.2218 21.1107 28.34 21.159 28.3346 21.1205C28.3302 21.082 28.2639 21.0122 28.2406 20.9934C28.2192 20.9736 28.1941 20.9683 28.1941 20.9683Z" fill="white"/>
<path d="M28.2272 21.312C28.2272 21.312 28.1476 21.2937 28.0938 21.3277C28.0392 21.3617 28.0562 21.389 28.0562 21.389C28.0562 21.389 28.1385 21.4534 28.1977 21.4633C28.2576 21.4727 28.3856 21.5277 28.3803 21.4843C28.3749 21.4414 28.3033 21.3617 28.2782 21.3407C28.255 21.3183 28.2272 21.312 28.2272 21.312Z" fill="white"/>
<path d="M28.2201 21.7372C28.2201 21.7372 28.1405 21.7202 28.0867 21.7538C28.0321 21.7869 28.0474 21.8141 28.0474 21.8141C28.0474 21.8141 28.1314 21.8786 28.1906 21.8884C28.2497 21.8979 28.3776 21.9529 28.3723 21.9099C28.366 21.8665 28.2953 21.7869 28.2711 21.7658C28.2461 21.7439 28.2201 21.7372 28.2201 21.7372Z" fill="white"/>
<path d="M28.1619 22.566C28.1619 22.566 28.0813 22.5486 28.0276 22.5826C27.9739 22.6162 27.9901 22.6431 27.9901 22.6431C27.9901 22.6431 28.0724 22.7079 28.1315 22.7174C28.1915 22.7263 28.3195 22.7822 28.3141 22.7384C28.3087 22.6954 28.2372 22.6162 28.2121 22.5942C28.1879 22.5723 28.1619 22.566 28.1619 22.566Z" fill="white"/>
<path d="M28.2156 22.1516C28.2156 22.1516 28.1243 22.1306 28.0598 22.1699C27.998 22.2084 28.0169 22.2397 28.0169 22.2397C28.0169 22.2397 28.1126 22.3149 28.1815 22.3257C28.2496 22.3368 28.3982 22.4 28.3928 22.3508C28.3856 22.3002 28.3032 22.2084 28.2747 22.1838C28.246 22.1588 28.2156 22.1516 28.2156 22.1516Z" fill="white"/>
<path d="M28.1225 22.9411C28.1225 22.9411 28.0562 22.9254 28.0115 22.9536C27.9667 22.9813 27.9811 23.0033 27.9811 23.0033C27.9811 23.0033 28.0491 23.0574 28.0974 23.0646C28.1467 23.0727 28.2514 23.1178 28.2478 23.082C28.2424 23.0462 28.1842 22.9813 28.1637 22.9639C28.144 22.9455 28.1225 22.9411 28.1225 22.9411Z" fill="white"/>
<path d="M28.0599 23.2999C28.0599 23.2999 28.0062 23.2883 27.9686 23.3112C27.9329 23.334 27.9435 23.3523 27.9435 23.3523C27.9435 23.3523 27.9999 23.3962 28.0402 23.4029C28.0804 23.4091 28.1691 23.4477 28.1655 23.4172C28.1619 23.3881 28.1118 23.334 28.0956 23.3192C28.0787 23.3044 28.0599 23.2999 28.0599 23.2999Z" fill="white"/>
<path d="M27.9829 23.6276C27.9829 23.6276 27.9346 23.6164 27.9005 23.6374C27.8683 23.6575 27.8772 23.675 27.8772 23.675C27.8772 23.675 27.9283 23.7144 27.965 23.7198C28.0017 23.7265 28.0804 23.76 28.0769 23.7336C28.0742 23.7072 28.0303 23.6575 28.0151 23.6445C27.9998 23.6312 27.9829 23.6276 27.9829 23.6276Z" fill="white"/>
<path d="M27.9059 23.8961C27.9059 23.8961 27.8558 23.8848 27.8236 23.905C27.7895 23.926 27.7994 23.9426 27.7994 23.9426C27.7994 23.9426 27.8505 23.9828 27.8872 23.9882C27.9239 23.994 28.0026 24.0285 27.9991 24.0013C27.9964 23.9748 27.9525 23.9261 27.9364 23.9131C27.922 23.8997 27.9059 23.8961 27.9059 23.8961Z" fill="white"/>
<path d="M27.812 24.2076C27.812 24.2076 27.7726 24.1981 27.7448 24.2147C27.7179 24.2322 27.7269 24.2452 27.7269 24.2452C27.7269 24.2452 27.768 24.2774 27.7976 24.2828C27.8271 24.2872 27.8916 24.315 27.8881 24.2926C27.8853 24.2716 27.8495 24.2322 27.8379 24.221C27.8253 24.2102 27.812 24.2076 27.812 24.2076Z" fill="white"/>
<path d="M27.7001 24.4989C27.7001 24.4989 27.6661 24.4908 27.6428 24.5051C27.6196 24.5199 27.6268 24.5319 27.6268 24.5319C27.6268 24.5319 27.6626 24.5592 27.6876 24.5628C27.7127 24.5678 27.7682 24.5915 27.7655 24.5723C27.7637 24.5539 27.7324 24.5199 27.7225 24.5109C27.7108 24.5016 27.7001 24.4989 27.7001 24.4989Z" fill="white"/>
<path d="M27.5846 24.7759C27.5846 24.7759 27.5496 24.7683 27.5264 24.7831C27.504 24.797 27.512 24.8086 27.512 24.8086C27.512 24.8086 27.5461 24.8363 27.572 24.8408C27.598 24.8444 27.6525 24.8681 27.6499 24.8502C27.6481 24.8305 27.6168 24.797 27.6069 24.7876C27.5962 24.7786 27.5846 24.7759 27.5846 24.7759Z" fill="white"/>
<path d="M20.092 26.1852C20.092 26.1852 20.0343 26.2971 20.0629 26.3584C20.0911 26.4202 20.169 26.2604 20.169 26.2604C20.169 26.2604 20.2495 26.101 20.2168 26.072C20.1837 26.0425 20.1645 26.1248 20.092 26.1852Z" fill="white"/>
<path d="M28.2388 40.554V40.3366C28.2388 39.8425 28.4886 39.7458 29.2181 39.7423C29.8894 39.7458 30.1265 39.83 30.1265 40.256V41.9003H30.3744V42.2708H28.7347C28.3892 42.2708 28.1637 42.0336 28.1637 41.7418V41.4088C28.1637 41.1215 28.3104 40.8709 28.8242 40.8682H29.4651V40.3678C29.4651 40.1065 29.4472 40.0751 29.185 40.0751H29.1823C28.8682 40.0751 28.8476 40.1163 28.8476 40.3678V40.554H28.2388M28.9997 41.1439C28.8708 41.1439 28.7947 41.2477 28.7947 41.3766V41.6943C28.7947 41.8224 28.8494 41.9244 28.9997 41.9262H29.2306C29.3578 41.9262 29.4616 41.8868 29.4616 41.6943L29.4634 41.1439H29.2449C29.2396 41.1439 28.9997 41.1439 28.9997 41.1439Z" fill="black"/>
<path d="M26.6793 40.3616V39.787H25.7645V40.1289H26.0084V41.8993H25.7645V42.2708H26.9102V41.8993H26.6793V40.9506C26.6793 40.8621 27.2185 40.1809 27.2185 40.2596V41.2021H27.8523V40.1415C27.8523 39.8989 27.6938 39.7423 27.4047 39.7423C27.061 39.7423 26.8287 40.1746 26.6793 40.3616Z" fill="black"/>
<path d="M33.9709 41.8976V39.787H33.0374V40.1289H33.2988V41.8976H33.0374V42.2708H34.2162V41.8976H33.9709Z" fill="black"/>
<path d="M24.3257 40.3616V39.787H23.411V40.1289H23.6549V41.8993H23.411V42.2708H24.5558V41.8993H24.3257V40.9506C24.3257 40.8621 24.8646 40.1809 24.8646 40.2596V41.2021H25.4978V40.1415C25.4978 39.8989 25.3403 39.7423 25.0507 39.7423C24.7079 39.7423 24.4752 40.1746 24.3257 40.3616Z" fill="black"/>
<path fill-rule="evenodd" clip-rule="evenodd" d="M23.0609 41.4572H22.4191V41.6434C22.4191 41.8958 22.3771 41.9065 22.0642 41.9101H22.0598C21.7012 41.9119 21.7214 41.8761 21.7254 41.6434V41.2021H23.0608V40.2435C23.0608 39.8961 22.7986 39.7503 22.1067 39.7476H22.0074C21.2605 39.7512 21.0618 39.9213 21.0618 40.3509V41.7543C21.0618 42.2269 21.341 42.3066 22.0212 42.3254H22.0955C22.838 42.3083 23.0608 42.2573 23.0608 41.8161V41.4572M21.7327 40.2793C21.7327 40.1486 21.7721 40.0841 21.9215 40.0823H22.203C22.3194 40.0823 22.3842 40.1343 22.3842 40.2273V40.9461H21.7326V40.2793H21.7327Z" fill="black"/>
<path d="M33.6326 39.2768V38.8275" stroke="black" stroke-width="0.74" stroke-miterlimit="10"/>
<path d="M31.5381 40.3616V39.787H30.6224V40.1289H30.8659V41.8993H30.6224V42.2708H31.7681V41.8993H31.5381V40.9506C31.5381 40.8621 32.0761 40.1809 32.0761 40.2596V41.2021H32.7106V40.1415C32.7106 39.8989 32.5512 39.7423 32.2612 39.7423C31.9194 39.7423 31.6866 40.1746 31.5381 40.3616Z" fill="black"/>
<path d="M20.2616 41.0634V40.7322H19.9049V41.9003H20.523V42.2708H18.7109V41.9003H19.1929V39.2768H18.8143V38.8257H32.928V39.2768H19.9049V40.3303H20.2616V40.0188H20.672V41.0634H20.2616Z" fill="black"/>
<path d="M33.9619 38.8096H33.2888V39.2536H33.9619V38.8096Z" fill="black"/>
</g>
<g clip-path="url(#clip1_601_50057)">
<path d="M75.9663 12.1775C75.9663 12.1775 75.9529 12.3655 75.8956 12.4802C75.8529 12.5802 75.7383 12.6508 75.7529 12.7228C75.7663 12.7948 75.8383 12.8815 75.9529 12.9388C76.0676 12.9962 76.1089 13.0375 76.2236 13.0668C76.3236 13.0948 76.4689 13.1682 76.4969 13.0815C76.5409 12.9962 76.4836 12.8802 76.4116 12.7802C76.2969 12.5935 76.2383 12.5508 76.0809 12.2935C76.0516 12.2362 76.0236 12.1775 75.9663 12.1775ZM76.8703 12.1775C76.8409 12.1922 76.7983 12.4095 76.7263 12.5948C76.6409 12.8095 76.6969 12.9095 76.7396 12.9948C76.7969 13.0815 76.8703 13.1388 76.7263 13.2255C76.5836 13.3108 76.3956 13.2828 76.3956 13.2828C76.3956 13.2828 76.2383 13.2522 76.1089 13.1815C75.976 13.1228 75.8426 13.065 75.7089 13.0082C75.7089 13.0082 75.4503 12.9375 75.2783 12.9522C75.1063 12.9655 75.0916 12.9815 74.9636 12.9962C74.8916 12.9962 74.8636 12.9948 74.7916 13.0095C74.7343 13.0228 74.6636 12.9828 74.6636 13.0535C74.6636 13.1242 74.8063 13.1255 74.9063 13.1682C75.0063 13.2108 75.2356 13.2095 75.1929 13.2668C75.1356 13.3242 74.9209 13.3388 74.9063 13.3242C74.8929 13.3242 74.7503 13.2962 74.6356 13.2962C74.4489 13.3095 74.4356 13.3095 74.1649 13.4388C74.1209 13.4522 74.1356 13.5535 74.2209 13.5242C74.3515 13.4869 74.4865 13.4676 74.6223 13.4668C74.7956 13.4668 74.8929 13.5255 75.0649 13.5695C75.2089 13.6122 75.2223 13.6388 75.4383 13.6682C75.4809 13.6682 75.5649 13.6388 75.5649 13.6962C75.5649 13.7255 75.5076 13.7695 75.5076 13.7695C75.5076 13.7695 75.3796 13.7962 75.3929 13.8402C75.4223 13.8975 75.5369 13.8402 75.5929 13.8402C75.6516 13.8402 75.7396 13.8562 75.7236 13.9122L75.6956 13.9548C75.5635 13.9893 75.4339 14.0325 75.3076 14.0842C74.9489 14.2282 74.8076 14.4002 74.4636 14.5722C74.1343 14.7295 73.6049 14.9282 73.6049 14.9282C73.6049 14.9282 73.4476 15.0148 73.2183 15.0708C72.9903 15.1295 72.9756 15.1162 72.8183 15.1442C72.6905 15.1515 72.5667 15.191 72.4583 15.2588C72.3826 15.2981 72.3148 15.351 72.2583 15.4148L72.0583 15.7175L71.9423 15.8868C71.9143 15.9442 71.8863 15.9722 71.8729 16.0295C71.8436 16.1015 71.8289 16.1308 71.8156 16.2028C71.7729 16.3735 71.8156 16.4748 71.8436 16.6468C71.8583 16.6895 71.8583 16.7188 71.8729 16.7615C71.8863 16.8042 71.9423 16.8482 71.9423 16.8482L71.9996 16.8615C71.9996 16.8615 72.2023 16.8482 72.3303 16.8188C72.4596 16.7908 72.6463 16.7455 72.6463 16.7455L72.8876 16.6762L73.0476 16.6188C73.0476 16.6188 73.1476 16.6188 73.1623 16.6762C73.1756 16.7188 73.1329 16.7908 73.1329 16.7908C73.1329 16.7908 73.0463 16.8308 72.9743 16.8602C72.9023 16.8895 72.7303 16.9322 72.7169 16.9468L72.5303 17.0042L72.3729 17.0188C72.3729 17.0188 72.3436 17.0335 72.3156 17.0762C72.2863 17.1202 72.2863 17.1188 72.2863 17.1468C72.3156 17.1762 72.3303 17.2042 72.3596 17.2335C72.4169 17.2762 72.4449 17.3042 72.5156 17.3188C72.6156 17.3615 72.6729 17.3482 72.7729 17.3482C72.8981 17.3485 73.0216 17.3188 73.1329 17.2615C73.2476 17.1895 73.2903 17.1908 73.4476 17.1335C73.4988 17.1184 73.5516 17.109 73.6049 17.1055C73.8769 17.0762 74.0316 17.1188 74.3049 17.1628C74.5769 17.2055 74.7076 17.2922 74.9796 17.3348C75.2663 17.3775 75.4369 17.4628 75.7369 17.3922C75.8809 17.3628 75.9676 17.2908 76.0396 17.4335C76.1103 17.5628 76.0969 17.6335 76.0969 17.6335C76.0969 17.6335 76.0956 17.7215 75.9956 17.9935C75.8943 18.2655 75.5809 18.9388 75.5809 18.9388L75.3649 19.3682C75.3649 19.3682 75.1916 19.7108 74.7916 20.1548C74.6501 20.3123 74.5078 20.4692 74.3649 20.6255C74.3649 20.6255 74.1503 20.7842 73.9356 21.0562C73.7209 21.3282 73.7183 21.4282 73.5183 21.6295C73.3889 21.7575 73.3183 21.8295 73.1609 21.9308C73.0036 22.0308 72.8169 22.0015 72.3156 22.3442C71.8863 22.6455 71.6569 22.8908 71.6276 22.8762C71.5996 22.8628 71.4556 22.7455 71.3983 22.7162C71.3556 22.6895 70.5263 22.1308 70.5263 22.1308L70.1823 21.9015L70.0236 21.8002L69.9956 21.7428L69.9116 21.6282C69.9116 21.6282 69.7823 21.4708 69.6249 21.3428C69.4619 21.1852 69.2584 21.0758 69.0369 21.0268C68.7929 20.9562 68.6369 20.9122 68.3943 20.9988C68.2569 21.0439 68.1331 21.1227 68.0343 21.2282C67.8916 21.3708 67.8623 21.4855 67.7476 21.6575C67.6329 21.8295 67.5183 21.9882 67.4609 22.0735C67.4036 22.1602 67.2889 22.3895 67.2889 22.3895C67.2889 22.3895 67.0036 22.8468 66.8463 23.1468C66.6596 23.4762 66.5889 23.6788 66.4169 23.9935C66.1449 24.4948 65.7569 25.0095 65.6569 25.2375L65.5449 25.4962C65.5449 25.4962 65.5143 25.6228 65.5009 25.7095C65.4863 25.7948 65.4863 25.9388 65.4716 25.9962C65.4595 26.0534 65.4354 26.1075 65.4009 26.1548C65.3876 26.1682 65.2289 26.4975 65.1716 26.7122C65.1143 26.9255 64.9849 27.6002 65.1436 27.6855C65.3009 27.7722 66.4596 27.2722 66.6169 26.7842C66.7183 26.4695 66.3023 26.3108 66.4169 26.0242C66.4596 25.9242 66.4889 25.9108 66.5596 25.8108C66.6743 25.6242 66.6316 25.2388 66.8463 24.8815C67.0036 24.6242 67.3183 24.2922 67.7476 23.8055C68.0196 23.5055 68.2783 23.0188 68.2783 23.0188C68.2783 23.0188 68.3356 22.8468 68.4516 22.8762C68.5796 22.9042 68.6929 22.8895 68.6929 22.8895L68.7503 22.9335L68.8649 23.0482L69.0369 23.3055C69.0369 23.3055 69.3249 23.7188 69.4236 23.8348C69.5249 23.9495 69.6249 24.0348 69.7689 24.1495C69.9263 24.2922 69.9823 24.3642 70.1823 24.5228C70.4689 24.7508 70.3676 24.8375 69.9956 24.6362C69.8408 24.5576 69.6781 24.496 69.5103 24.4522C69.3396 24.4082 68.6943 24.2362 68.3649 24.1935C68.0503 24.1508 67.9916 24.1655 67.9916 24.1655C67.9916 24.1655 67.8343 24.1495 67.6489 24.2642C67.4623 24.3788 67.3623 24.4642 67.3623 24.4642C67.3623 24.4642 67.1476 24.7082 67.1329 24.7508C67.1196 24.7935 67.0183 24.9642 67.0183 24.9642C67.0183 24.9642 66.9596 25.0522 66.9463 25.1508C66.9169 25.2522 66.9329 25.3522 66.9329 25.3522L66.9463 25.5655L66.9609 25.7655C66.9609 25.7655 67.0049 26.2682 67.1049 26.7695C67.1329 26.9122 67.1623 27.1415 67.1623 27.1415L67.2316 27.6575C67.2316 27.6575 67.2756 28.2028 67.3183 28.3882C67.3609 28.5615 67.3903 28.5748 67.4196 28.6882C67.4769 28.9028 67.3769 29.0028 67.4769 29.2615C67.5769 29.5188 67.6636 29.4882 67.7636 29.6468C67.8356 29.7615 67.8623 29.7895 67.9196 29.9335C67.9769 30.0762 68.1636 30.5508 68.3783 30.8935C68.6076 31.2522 68.9089 31.6948 69.1103 31.6522C69.3103 31.6082 69.4529 31.2948 69.4529 31.2948C69.4529 31.2948 69.6823 30.6775 69.5396 30.0762C69.3956 29.4602 68.7369 29.7495 68.6516 29.3055C68.6383 29.2055 68.6516 29.0482 68.6516 29.0482C68.6516 29.0482 68.6356 28.8602 68.6076 28.8028C68.5783 28.7455 68.3489 28.3175 68.2636 27.9588C68.1916 27.6868 68.2063 26.8122 68.1489 26.5682C67.9916 25.9388 67.9769 25.9948 68.0623 25.8815C68.1636 25.7668 68.2503 25.7948 68.2503 25.7948L68.3783 25.8108L68.4796 25.8522L68.6649 25.9668C68.7223 26.0095 68.9223 26.1668 68.9223 26.1668L69.4089 26.4828C69.4089 26.4828 69.6823 26.6415 69.7969 26.6988C69.9116 26.7562 70.0103 26.8268 70.0103 26.8268L70.1383 26.9122L70.3543 27.0722L70.3956 27.1122L70.4249 27.1695C70.4249 27.1695 70.5263 27.4002 70.9556 27.6442C71.2996 27.8442 71.6009 27.7855 71.7289 27.9442C71.7583 27.9722 71.9996 28.3042 72.1156 28.5042C72.2583 28.7322 72.4303 29.0028 72.4876 29.0895C72.5449 29.1748 72.9036 29.6175 72.9036 29.6175L73.3756 30.1335L73.9929 30.7068L74.5503 31.1802L74.9063 31.4668C74.9063 31.4668 75.2222 31.7682 75.5809 32.0108C75.9249 32.2402 75.9383 32.2682 76.1676 32.4242C76.3383 32.5402 76.5676 32.6988 76.7969 32.8708C77.0263 33.0575 77.2849 33.3988 77.1849 33.5135C77.1129 33.5562 76.9836 33.3722 76.7396 33.1575C76.5805 33.0145 76.4136 32.8805 76.2396 32.7562C75.9823 32.5562 75.8516 32.4535 75.5649 32.2815C75.4222 32.1962 75.1649 32.0402 75.1516 32.0682C75.0516 32.3695 75.0636 32.6548 75.0783 33.0268C75.0916 33.2842 75.1356 33.5415 75.2209 33.8708C75.2929 34.1855 75.3649 34.3588 75.4796 34.6588C75.5943 34.9602 75.8103 35.4322 75.8103 35.4322L76.1383 36.0922L76.4396 36.5922L76.5969 36.8495L76.6543 36.9348C76.6543 36.9348 76.7249 37.1082 76.6543 37.2215C76.5836 37.3348 76.4956 37.5802 76.3676 37.5948C76.2383 37.6228 75.9383 37.6388 75.9383 37.6388L74.2343 37.6095L73.3463 37.5375C73.3463 37.5375 73.2476 37.4802 72.7329 37.4802C72.4316 37.4802 72.1876 37.6082 72.0156 37.6228C71.8729 37.6362 71.1703 37.5802 70.6983 37.7655C70.2543 37.9522 70.0529 37.9948 69.8956 38.2815C69.7809 38.4962 70.4556 38.8415 71.0129 38.9695C71.9156 39.1695 71.6569 38.7828 71.9996 38.5402C72.0436 38.5108 72.0583 38.4842 72.1023 38.4695C72.3303 38.3975 72.4583 38.5815 72.6889 38.5815C72.9449 38.5815 73.0889 38.4962 73.3463 38.4535C74.6489 38.2815 76.6823 38.8962 76.6823 38.8962C76.6823 38.8962 77.1849 39.0535 77.4143 39.0108C77.6863 38.9535 77.6276 38.8535 77.7129 38.6962C77.7849 38.5668 77.7569 38.5402 77.7703 38.3962C77.7703 38.3108 77.7569 38.2682 77.7423 38.1828C77.6849 37.9388 77.5289 37.5948 77.5289 37.5948C77.5289 37.5948 77.4129 37.3375 77.3689 37.2082C77.3129 37.0228 77.2556 36.9068 77.2263 36.7068C77.1409 36.1762 77.1556 36.2202 77.1556 35.9202C77.1556 35.3762 77.2129 35.0748 77.3556 34.5455C77.5716 33.7722 77.9729 33.4428 78.2729 32.6988C78.3596 32.4988 78.3583 32.2122 78.4596 32.1828C78.5729 32.1695 78.5596 32.5415 78.5023 32.7562C78.3156 33.5002 77.8583 33.8148 77.6436 34.5735C77.4863 35.1602 77.3996 35.5028 77.4436 36.1042C77.4569 36.4335 77.5863 36.9508 77.5863 36.9508C77.5863 36.9508 77.7583 37.5228 77.8436 37.7375C77.9303 37.9522 78.1009 38.3108 78.1009 38.3108L78.4876 38.9975L78.6876 39.3255C78.6876 39.3255 78.8289 39.4548 78.7583 39.6695C78.6863 39.8842 78.5449 40.0162 78.3716 40.2015C77.8863 40.7748 76.7556 41.6175 76.4689 41.8175C76.0689 42.1188 76.0809 42.2055 76.0516 42.2922C75.8943 42.7508 75.4356 42.7642 74.9356 43.3082C74.8209 43.4228 74.5209 43.7362 74.5783 44.0082C74.6063 44.1082 75.8383 44.3242 76.5543 44.0242C77.1143 43.7802 76.6263 43.5068 76.7836 43.2348C76.8983 43.0348 77.1836 43.0348 77.3129 42.8615C77.5263 42.5762 77.3836 42.5908 77.5703 42.3628C78.1863 41.6175 78.5876 41.1895 79.6903 40.5162C79.7903 40.4588 79.9769 40.3735 79.9769 40.3735C79.9769 40.3735 80.1329 40.3002 80.1903 40.2135C80.2623 40.0988 80.2476 40.0002 80.2476 39.8708C80.2476 39.7842 80.2343 39.7428 80.2343 39.6575C80.2343 39.5562 80.2476 39.4988 80.2183 39.3988C80.1903 39.2415 80.0916 39.1122 80.0343 39.0255C79.9229 38.8888 79.8485 38.7258 79.8183 38.5522C79.7402 38.2884 79.7557 38.0058 79.8623 37.7522C79.9769 37.4522 80.2343 37.2095 80.2343 37.2095L80.8769 36.7788C80.8769 36.7788 81.4369 36.3775 81.6103 36.2188C81.7956 36.0615 82.1529 35.7322 82.4103 35.3602C82.7116 34.9455 82.8689 34.6868 82.9969 34.1868C83.0396 34.0002 83.0836 33.7148 83.0836 33.7148C83.0836 33.7148 83.0836 33.5148 83.1982 33.5015C83.3116 33.4868 83.3409 33.5282 83.3409 33.5282C83.3409 33.5282 83.4396 33.5842 83.4689 33.8708C83.4823 34.1575 83.3983 34.4882 83.3983 34.4882C83.3983 34.4882 83.3116 34.8162 83.2836 35.0162C83.2703 35.1455 83.2676 35.2162 83.2676 35.3602C83.2676 35.6042 83.3689 35.8055 83.3689 35.8055C83.3689 35.8055 83.4263 35.8482 83.4263 35.7482C83.4339 35.5931 83.4585 35.4393 83.4996 35.2895C83.5423 35.1468 83.5703 35.1735 83.6556 34.9295C83.7703 34.6148 83.6689 34.6455 83.7263 34.4588C83.7556 34.3735 83.8276 34.2868 83.9129 34.2868C83.9996 34.2868 84.0129 34.4015 84.0129 34.4015C84.0129 34.4015 84.0996 34.7748 84.0289 35.1175C83.9569 35.4615 83.6982 35.9335 83.6982 35.9335L83.4996 36.2762C83.4996 36.2762 83.3569 36.5202 83.2996 36.6775C83.2423 36.8495 83.2263 36.9215 83.2556 37.0775C83.2983 37.2508 83.4289 37.4815 83.4996 37.4375C83.5569 37.3948 83.4143 37.2508 83.5863 36.9068C83.7583 36.5628 83.9836 36.3495 83.9836 36.3495C83.9836 36.3495 84.2996 35.9762 84.4423 35.6908C84.5716 35.4335 84.7009 35.0162 84.7009 35.0162C84.7009 35.0162 84.8023 34.6428 84.7729 34.3282C84.7596 34.0282 84.7009 33.8708 84.7009 33.8708L84.5729 33.6415L84.4996 33.4722L84.5289 33.3708C84.5569 33.3562 84.6583 33.4282 84.7449 33.5428C84.8493 33.6774 84.9222 33.8337 84.9583 34.0002C84.9973 34.1303 85.0167 34.2656 85.0156 34.4015C85.0156 34.5162 84.9743 34.9882 85.1449 35.2895C85.2169 35.4335 85.3889 35.7615 85.4036 35.6175C85.4316 35.2882 85.2876 35.1322 85.3023 34.8308C85.3156 34.4882 85.4036 34.5735 85.4316 34.4015C85.4609 34.2148 85.5023 34.1708 85.4743 33.9282C85.4454 33.7487 85.4026 33.5717 85.3463 33.3988L85.2449 33.1695L85.2023 33.0842C85.2023 33.0842 85.2303 33.0428 85.2729 33.0428L85.6169 32.9282C85.6169 32.9282 86.0623 32.7282 86.2343 32.5842C86.4209 32.4548 86.6343 32.2242 86.6343 32.2242C86.6343 32.2242 86.9209 31.8682 87.0649 31.6108C87.4089 30.9655 87.4076 30.1495 87.3929 29.7762C87.3796 29.4188 87.2783 28.9455 87.2783 28.9455C87.2783 28.9455 87.1636 28.3722 87.1929 28.0002C87.2209 27.6282 87.2503 27.4562 87.2503 27.4562C87.2503 27.4562 87.2369 27.0842 87.5516 26.6828C87.8663 26.2828 88.0076 26.0255 88.0649 25.7242C88.1223 25.4668 88.0356 25.0522 87.9209 25.2095C87.7929 25.3815 87.7383 25.7255 87.5516 26.0108C87.2943 26.4122 86.9196 26.8988 86.7343 26.8988C86.6343 26.8988 86.6063 26.6695 86.6063 26.6695C86.6063 26.6695 86.4783 26.2828 86.6929 25.7948C86.8503 25.4508 86.9343 25.3522 87.1356 25.0948C87.3223 24.8508 87.4356 24.7215 87.5649 24.4642C87.6796 24.2348 87.7063 24.1922 87.7783 23.8348C87.7916 23.7482 87.7649 23.5628 87.6796 23.5762C87.5649 23.5762 87.2503 24.2655 86.9209 24.6522C86.6063 25.0095 86.0183 25.4668 86.0183 25.4668C86.0183 25.4668 85.9609 25.5082 85.9609 25.3935C85.9476 25.2935 85.9316 24.9935 85.9889 24.7228C86.0608 24.3825 86.1922 24.0575 86.3769 23.7628C86.6489 23.2908 86.9916 22.9628 87.1636 22.7895C87.2356 22.7188 87.4503 22.5882 87.3369 22.5162C87.2356 22.4588 86.9343 22.7162 86.7049 22.8895C86.4196 23.1028 86.3196 23.1628 86.0343 23.5068C85.7476 23.8495 85.6743 23.9935 85.6743 23.9935C85.6743 23.9935 85.4023 24.4362 85.3303 24.8655C85.2583 25.2948 85.2596 25.5375 85.2596 25.5375C85.2596 25.5375 85.2596 25.9255 85.3023 26.1548C85.3303 26.3975 85.4316 26.7682 85.4316 26.7682C85.4316 26.7682 85.5756 27.1855 85.6316 27.4442C85.6903 27.7015 85.7889 28.4588 85.7889 28.4588C85.7889 28.4588 85.8609 29.0042 85.8169 29.5188C85.7743 30.0348 85.7316 30.3348 85.6743 30.4922C85.6169 30.6508 85.4609 31.0655 85.2023 31.3522C84.9596 31.6242 84.9009 31.6668 84.9009 31.6668C84.9009 31.6668 84.6436 31.8802 84.4289 31.9948C84.2123 32.1122 83.9872 32.2134 83.7556 32.2975C83.6374 32.3185 83.5181 32.3323 83.3983 32.3388H83.2129L83.1556 32.2988L83.1249 32.1828C83.1249 32.1828 82.9836 31.6242 82.8129 31.2668C82.6689 30.9655 82.3676 30.5508 82.3676 30.5508C82.3676 30.5508 81.8516 29.8482 81.4503 29.4615C80.9916 29.0042 80.4769 28.6615 80.1609 28.4175C80.0463 28.3322 79.7889 28.1722 79.7889 28.1722C79.7889 28.1722 78.7449 27.1282 78.3729 26.2975C78.1143 25.7242 77.9436 25.3108 78.0156 24.6802C78.0289 24.5375 78.0863 24.2642 78.1143 24.2642L78.3009 24.3215C78.3169 24.3348 78.4876 24.4935 78.6463 24.5508C78.7316 24.5788 78.8876 24.6082 78.8876 24.6082C78.8876 24.6082 79.0169 24.6215 79.0876 24.6362C79.1596 24.6655 79.2889 24.7082 79.3743 24.7508C79.4609 24.7935 79.5876 24.8815 79.5876 24.8815L79.8329 25.0655L80.0916 25.2655C80.0916 25.2655 80.2329 25.3668 80.2756 25.3815C80.3183 25.3948 80.3476 25.4095 80.3623 25.4095H80.4196C80.4196 25.4095 80.4783 25.3935 80.4916 25.3362C80.5063 25.2655 80.4209 25.3228 80.2916 25.1802C80.2118 25.1116 80.1441 25.03 80.0916 24.9388C80.0916 24.9388 80.0623 24.8228 79.9476 24.6935C79.8329 24.5642 79.6903 24.4508 79.6903 24.4508C79.6903 24.4508 79.5889 24.3802 79.4449 24.3362C79.3023 24.2935 79.2583 24.2922 79.2449 24.2348C79.2316 24.1775 79.4169 24.2068 79.4169 24.2068C79.4169 24.2068 79.6329 24.2348 79.8036 24.3215C79.9769 24.4068 80.0756 24.5082 80.0756 24.5082L80.1903 24.6082L80.2636 24.6802L80.3329 24.7228C80.3329 24.7228 80.4049 24.7935 80.4196 24.6935C80.4329 24.6082 80.4049 24.5362 80.3903 24.5215L80.3196 24.4508L80.0343 24.2068C79.9651 24.1322 79.8882 24.0652 79.8049 24.0068C79.6891 23.9252 79.5637 23.858 79.4316 23.8068C79.2889 23.7482 79.2036 23.7628 79.0596 23.6908C78.9596 23.6482 78.8729 23.6202 78.8156 23.5348C78.8009 23.5215 78.7303 23.4615 78.8596 23.4908C78.9876 23.5188 79.0729 23.5628 79.2156 23.5922C79.4449 23.6495 79.5889 23.6482 79.8049 23.7202C79.8903 23.7482 80.0049 23.8055 80.0049 23.8055L80.2756 23.9202C80.2756 23.9202 80.6489 24.1215 80.9063 24.1362C81.097 24.1509 81.2886 24.1217 81.4663 24.0508C81.5702 24.0082 81.6669 23.9498 81.7529 23.8775C81.7792 23.8518 81.8025 23.8232 81.8223 23.7922L81.8516 23.7202V23.6628C81.7796 23.5762 81.6383 23.8068 81.4089 23.8495C81.1649 23.8935 81.1783 23.9202 81.0209 23.8922C80.8678 23.8761 80.7256 23.805 80.6209 23.6922C80.3903 23.4762 80.3063 23.2762 80.0049 23.1468C79.8769 23.0895 79.6449 23.0322 79.6449 23.0322C79.6449 23.0322 79.3303 22.9322 79.1583 22.8322C79.0303 22.7602 78.7609 22.7175 78.8463 22.6028C78.8889 22.5455 79.2329 22.7455 79.4889 22.7748C79.6756 22.8028 79.8049 22.7895 79.9476 22.7895C80.0903 22.7895 80.2916 22.7455 80.3209 22.7455C80.3489 22.7322 80.4623 22.7455 80.5623 22.7748C80.6623 22.8028 80.7196 22.8455 80.8196 22.8895C80.9209 22.9322 81.0369 23.0042 81.0649 23.0042L81.1223 23.0188L81.1516 22.9908L81.1649 22.9615L81.1516 22.9335L81.1063 22.9042L81.0209 22.8468C81.0209 22.8468 80.8929 22.7748 80.7783 22.6602C80.6636 22.5455 80.5623 22.4175 80.3916 22.3602C80.2183 22.3028 80.0183 22.2748 80.0183 22.2748L79.8183 22.2588L79.7316 22.2455C79.7316 22.2455 79.5889 22.2015 79.7036 22.1735C79.7689 22.1535 79.8358 22.1393 79.9036 22.1308C80.0132 22.1071 80.127 22.1117 80.2343 22.1442C80.3489 22.1868 80.5356 22.2868 80.5489 22.2868C80.5636 22.3015 80.7356 22.4322 80.9223 22.4748C81.1089 22.5175 81.3516 22.5322 81.3516 22.5322L81.4663 22.5042L81.5236 22.4882L81.5649 22.4588L81.5516 22.3895C81.5516 22.3895 81.5516 22.3308 81.4663 22.3162C81.3165 22.2988 81.1733 22.2452 81.0489 22.1602C80.8916 22.0455 80.7783 21.9308 80.7783 21.9308C80.7783 21.9308 80.6636 21.8295 80.4343 21.7708C80.2209 21.7148 80.1489 21.7148 80.1489 21.7148L80.0756 21.6855L79.9196 21.6162C79.9196 21.6162 79.8463 21.5722 79.7889 21.5015C79.7316 21.4295 79.6476 21.2988 79.8903 21.3708C80.1343 21.4428 80.1903 21.4855 80.1903 21.4855C80.1903 21.4855 80.3196 21.6148 80.4343 21.6282C80.5063 21.6428 80.5636 21.6575 80.6076 21.6002C80.6783 21.5282 80.4769 21.4428 80.3329 21.3415C80.2417 21.2701 80.164 21.183 80.1036 21.0842C80.1036 21.0842 80.0196 21.0135 80.1489 21.0428C80.2769 21.0708 80.5049 21.2148 80.5049 21.2148C80.5049 21.2148 80.6196 21.2708 80.6783 21.2855C80.7196 21.2988 80.8356 21.3708 80.8929 21.3988C80.9356 21.4135 81.0663 21.4428 81.1503 21.4855C81.2649 21.5575 81.3236 21.6722 81.3796 21.7148C81.4369 21.7575 81.4809 21.8308 81.5529 21.8442C81.6236 21.8588 81.6369 21.8868 81.6796 21.8575C81.6996 21.8449 81.7187 21.8311 81.7369 21.8162C81.7369 21.8162 81.7503 21.7855 81.6796 21.7428C81.6089 21.7002 81.5236 21.5868 81.5236 21.5868L81.4943 21.5295L81.4796 21.4722L81.4089 21.3575L81.2783 21.1708C81.2783 21.1708 81.0783 20.8988 80.8929 20.7975C80.7209 20.6975 80.5916 20.6415 80.5916 20.6415C80.5916 20.6415 80.5063 20.6002 80.4636 20.5708C80.3916 20.5135 80.3623 20.4682 80.3036 20.3975C80.2329 20.3108 80.2063 20.2562 80.1196 20.1708C79.9623 20.0135 79.4756 19.9255 79.6609 19.8108C79.7623 19.7535 79.8903 19.7842 79.9476 19.7975C80.0049 19.8122 80.1343 19.8668 80.2636 19.9095C80.3489 19.9388 80.4063 19.9415 80.4916 19.9695C80.5783 19.9988 80.6783 20.0108 80.7209 20.0402C80.7636 20.0682 80.8076 20.1268 80.8356 20.1415C80.8503 20.1548 80.9636 20.3415 81.1636 20.4415C81.3636 20.5415 81.4663 20.6122 81.6663 20.6255C81.8236 20.6402 82.0796 20.5855 82.0796 20.5855C82.0796 20.5855 82.1529 20.5548 82.0956 20.4828C82.0249 20.4108 82.0236 20.3975 81.9663 20.3842C81.7369 20.2975 81.5529 20.3268 81.3796 20.1548C81.3089 20.0828 81.2783 20.0682 81.2209 19.9548C81.1636 19.8402 81.1943 19.8122 81.1516 19.7415C81.1223 19.6695 81.0489 19.5682 81.0489 19.5682C81.0489 19.5682 80.8356 19.3095 80.6063 19.1815C80.4485 19.1013 80.2992 19.0053 80.1609 18.8948C80.1183 18.8655 80.0343 18.7508 80.0343 18.7508L79.9609 18.6362L79.9196 18.5508C79.8903 18.3935 80.1756 18.5948 80.3329 18.6522C80.5916 18.7375 80.7209 18.8522 80.9796 18.9388C81.1223 18.9815 81.2089 18.9802 81.3516 19.0375C81.5943 19.1375 81.6663 19.3815 81.9249 19.4108C82.0676 19.4242 82.3543 19.4815 82.2969 19.3522C82.2396 19.2095 81.9529 19.2095 81.8103 19.0375C81.7383 18.9655 81.7383 18.8962 81.6663 18.8242C81.5516 18.6802 81.2796 18.5508 81.2796 18.5508C81.2796 18.5508 81.1943 18.4802 81.0929 18.2802C81.0076 18.0802 80.7929 17.9335 80.4063 17.7482C80.1489 17.6202 79.6329 17.5908 79.8329 17.4615C79.9476 17.3762 80.0476 17.3908 80.2063 17.4335C80.3636 17.4908 80.4196 17.5642 80.5489 17.6202C80.6783 17.6788 80.7356 17.6922 80.7623 17.7068C80.7916 17.7202 80.8916 17.7642 80.9356 17.7642C80.9623 17.7775 81.1796 17.8068 81.2369 17.8215L81.5236 17.8922L81.7529 17.9775C81.7529 17.9775 81.8663 18.0215 81.9369 18.0215C82.0076 18.0215 82.1249 17.9935 82.1249 17.9935L82.2103 17.9362L82.2236 17.9068C82.2236 17.9068 82.2676 17.8362 82.1529 17.8215C82.0964 17.8124 82.0394 17.8071 81.9823 17.8055L81.8796 17.7775L81.8396 17.7642C81.8396 17.7642 81.6383 17.6068 81.4663 17.5348C81.3937 17.5077 81.3217 17.4792 81.2503 17.4495L81.1796 17.4335L81.0943 17.4202C81.0943 17.4202 81.0209 17.4202 80.9063 17.3188C80.7916 17.2188 80.7489 17.1615 80.6489 17.0615L80.5209 16.9335C80.5209 16.9335 80.4063 16.8455 80.4063 16.7735C80.4196 16.6602 80.6636 16.9042 80.6636 16.9042L80.8369 17.0188C80.8369 17.0188 80.9796 17.1202 81.2369 17.1335C81.4943 17.1482 81.8103 17.0615 81.8103 17.0615C81.8103 17.0615 81.8516 17.0348 81.9943 17.0762C82.1369 17.1175 82.2529 17.2042 82.2529 17.2042L82.3676 17.3055L82.5396 17.4908L82.5676 17.4775C82.5809 17.4642 82.6543 17.3908 82.5263 17.2335C82.3969 17.0748 82.1823 16.9335 82.1823 16.9335C82.1823 16.9335 81.8956 16.7615 81.6089 16.7042C81.3236 16.6468 81.1929 16.6468 81.1929 16.6468C81.1929 16.6468 80.9783 16.6468 80.8489 16.5042C80.7196 16.3602 80.6356 16.2175 80.6356 16.2175L80.5916 16.0175C80.5916 16.0175 80.5209 15.9308 80.3783 15.8735C80.2489 15.8162 80.1036 15.7308 80.1036 15.7308C80.1036 15.7308 79.8903 15.6588 79.8743 15.5575C79.8316 15.3722 80.2343 15.5575 80.4476 15.6002C80.6476 15.6428 80.7343 15.7162 80.9343 15.7602C81.0832 15.8025 81.2389 15.8161 81.3929 15.8002C81.4929 15.8002 81.5503 15.7895 81.6503 15.7735C81.7516 15.7735 81.8236 15.7602 81.9249 15.7735C82.0676 15.8028 82.1249 15.8735 82.2676 15.9308C82.3542 15.9735 82.3969 16.0148 82.4969 16.0295C82.5836 16.0442 82.7556 16.1028 82.7263 16.0162L82.6823 15.9588C82.6103 15.8588 82.5263 15.8588 82.4396 15.7882C82.2529 15.6442 82.1676 15.5308 81.9529 15.4308C81.8321 15.3663 81.7015 15.3221 81.5663 15.3002C81.4503 15.2868 81.3649 15.3162 81.2503 15.2868C81.1209 15.2442 81.0796 15.1868 80.9503 15.1162C80.7503 15.0015 80.6343 14.9002 80.4196 14.8135C80.293 14.768 80.1639 14.7297 80.0329 14.6988L79.9316 14.6855L79.8916 14.6708C79.6903 14.5988 80.2476 14.4428 80.5049 14.3708C80.6343 14.3428 80.6916 14.3122 80.8196 14.3268C80.9343 14.3402 81.0636 14.5002 81.1929 14.4282C81.3796 14.3282 80.9783 14.0548 80.8489 14.0122C80.6769 13.9402 80.3769 13.9988 80.3769 13.9988L79.7183 13.9828L79.5316 13.9548C79.5316 13.9548 79.4169 13.9548 79.3316 13.8548C79.2449 13.7548 78.9169 13.3522 78.5449 13.2948C78.1583 13.2375 78.0436 13.2948 78.0156 13.2682C77.6863 12.7508 77.3409 12.6375 77.0823 12.3948C77.0116 12.3228 76.8983 12.1642 76.8689 12.1788L76.8703 12.1775ZM78.4343 13.6975C78.4569 13.6964 78.4796 13.6964 78.5023 13.6975L78.5729 13.7415C78.6316 13.7995 78.6798 13.8671 78.7156 13.9415C78.7303 13.9988 78.5449 13.9282 78.4743 13.9122C78.4016 13.8919 78.3336 13.8574 78.2743 13.8108C78.2743 13.8108 78.2436 13.7682 78.3143 13.7255C78.3514 13.7063 78.3925 13.6976 78.4343 13.6975ZM78.7703 14.4042C78.8049 14.4042 78.8303 14.4122 78.8303 14.4122L78.9009 14.4575C78.9596 14.5155 79.0079 14.5831 79.0436 14.6575C79.0583 14.7148 78.8729 14.6442 78.8023 14.6282C78.7296 14.6079 78.6616 14.5734 78.6023 14.5268C78.6023 14.5268 78.5729 14.4842 78.6596 14.4415C78.6914 14.4174 78.7304 14.4047 78.7703 14.4055V14.4042ZM76.2609 14.4228C76.2966 14.421 76.3323 14.4228 76.3676 14.4282C76.3676 14.4282 76.4249 14.4282 76.5103 14.4695C76.5969 14.5268 76.6543 14.6988 76.6543 14.6988C76.6543 14.6988 76.6676 14.7282 76.5969 14.7282C76.5529 14.7282 76.5529 14.6575 76.5103 14.6282C76.4529 14.5855 76.4103 14.5708 76.3383 14.5428C76.2676 14.5148 76.1676 14.5562 76.1543 14.4855C76.1543 14.4428 76.2076 14.4268 76.2609 14.4228ZM75.1356 14.5895C75.1916 14.5735 75.1356 14.6855 75.1356 14.6855C75.1356 14.6855 74.9503 14.9855 74.6929 15.1002C74.4356 15.2148 74.2636 15.2735 73.7756 15.3162C73.7049 15.3162 73.7356 15.2722 73.7356 15.2722C73.7356 15.2722 74.2916 15.1162 74.6076 14.9442C74.7583 14.8605 74.9019 14.7646 75.0369 14.6575C75.0655 14.6295 75.099 14.6056 75.1356 14.5895ZM76.1383 14.6695C76.1383 14.6695 76.2249 14.6722 76.3249 14.7428C76.4263 14.8148 76.5116 15.0588 76.5116 15.0588C76.5116 15.0588 76.5409 15.2148 76.4689 15.2722C76.3969 15.3295 76.2823 15.2308 76.2236 15.1442C76.1725 15.0719 76.0965 15.0211 76.0103 15.0015C75.8956 14.9588 75.7236 15.0868 75.6956 15.0015C75.6956 14.9722 75.7089 14.9002 75.7089 14.9002C75.7089 14.9002 75.7383 14.8148 75.8676 14.7442C75.9823 14.6722 76.1383 14.6708 76.1383 14.6708V14.6695ZM78.8023 15.2228C78.8596 15.2282 78.9396 15.2722 79.0023 15.2722C79.1889 15.2722 79.3449 15.2722 79.4743 15.3002C79.5889 15.3295 79.6169 15.4002 79.5596 15.4002C79.5179 15.4113 79.4747 15.4162 79.4316 15.4148C79.3036 15.4148 79.3169 15.3575 79.1463 15.4442C78.9729 15.5295 79.1023 15.4882 78.8596 15.5735C78.6303 15.6602 78.6863 15.4308 78.6863 15.4308C78.6863 15.4308 78.7036 15.3868 78.7316 15.2708C78.7423 15.2295 78.7676 15.2188 78.8023 15.2228ZM72.3436 15.8868C72.4303 15.8868 72.5889 15.9455 72.5889 16.0735C72.6023 16.2028 72.5009 16.1455 72.4289 16.1882C72.3876 16.2175 72.3596 16.2322 72.3023 16.2748C72.2303 16.3322 72.1583 16.4748 72.1156 16.4308C72.0569 16.3882 72.0863 16.2308 72.0863 16.2308C72.0863 16.2308 72.1302 16.1162 72.1876 16.0015C72.2596 15.8868 72.3436 15.8868 72.3436 15.8868ZM79.1929 16.0348C79.2155 16.0359 79.2378 16.0395 79.2596 16.0455C79.2596 16.0455 79.3023 16.0588 79.3303 16.0868C79.3596 16.1162 79.4743 16.2175 79.4743 16.2735C79.4743 16.3175 79.2889 16.2442 79.2036 16.2308C79.1169 16.2162 79.0036 16.1308 79.0036 16.1308C79.0036 16.1308 78.9743 16.1042 79.0596 16.0615C79.1012 16.0418 79.147 16.0326 79.1929 16.0348ZM76.6663 16.1522C76.6796 16.1522 76.6783 16.1722 76.6529 16.2175C76.5969 16.3322 76.4249 16.4748 76.4249 16.4748C76.4249 16.4748 76.2249 16.7602 76.1823 16.8028C75.9956 16.9468 75.7663 16.8615 75.6663 16.8762C75.5809 16.8895 75.6383 16.8028 75.6383 16.8028C75.6383 16.8028 75.8823 16.7042 76.0383 16.6188C76.2489 16.5135 76.6076 16.1522 76.6663 16.1522ZM73.7222 16.4042C73.7529 16.4042 73.7769 16.4175 73.7769 16.4615C73.7916 16.5615 73.6063 16.6322 73.6063 16.6322C73.6063 16.6322 73.5503 16.6468 73.5356 16.5468C73.5223 16.4468 73.6063 16.4322 73.6063 16.4322C73.6063 16.4322 73.6729 16.4002 73.7222 16.4042ZM77.2689 16.5602C77.2929 16.5468 77.2729 16.6895 77.2729 16.6895C77.2729 16.6895 77.2289 16.8775 77.1289 16.9348C77.0009 17.0068 76.6836 17.0922 76.6556 17.0495C76.6556 17.0202 77.0703 16.8895 77.2556 16.5762C77.2587 16.5699 77.2633 16.5644 77.2689 16.5602ZM79.2076 16.6122C79.2309 16.6123 79.2542 16.615 79.2769 16.6202C79.2769 16.6202 79.3169 16.6335 79.3609 16.6602C79.4036 16.7042 79.5049 16.8202 79.5196 16.8775C79.5329 16.9348 79.3329 16.8642 79.2329 16.8495C79.1476 16.8348 79.0169 16.7348 79.0169 16.7348C79.0169 16.7348 78.9903 16.6908 79.0769 16.6482C79.116 16.6235 79.1614 16.611 79.2076 16.6122ZM77.4729 16.9375C77.4996 16.9295 77.4569 17.0495 77.4569 17.0495C77.4569 17.0495 77.3996 17.2362 77.2849 17.2788C77.1423 17.3215 76.5996 17.3348 76.5849 17.2922C76.5716 17.2482 77.2143 17.1908 77.4569 16.9482C77.4611 16.9432 77.4667 16.9395 77.4729 16.9375ZM79.2516 17.1842C79.2785 17.1841 79.3053 17.1868 79.3316 17.1922C79.3316 17.1922 79.3756 17.2055 79.4183 17.2348C79.4609 17.2775 79.5756 17.4082 79.5903 17.4788C79.6036 17.5655 79.3903 17.4788 79.2903 17.4508C79.2007 17.4238 79.1173 17.3794 79.0449 17.3202C79.0449 17.3202 79.0169 17.2788 79.1023 17.2215C79.1475 17.1951 79.1993 17.1822 79.2516 17.1842ZM79.2516 17.9002C79.2785 17.9001 79.3053 17.9028 79.3316 17.9082C79.3316 17.9082 79.3756 17.9215 79.4183 17.9508C79.4609 17.9935 79.5756 18.1242 79.5903 18.1948C79.6036 18.2668 79.3903 18.1802 79.2903 18.1508C79.2008 18.1249 79.1174 18.0814 79.0449 18.0228C79.0449 18.0228 79.0169 17.9948 79.1023 17.9375C79.1476 17.9116 79.1994 17.8991 79.2516 17.9015V17.9002ZM77.1609 18.5855C77.2716 18.6175 77.1703 19.4242 76.9569 19.7988C76.6821 20.2588 76.3496 20.6818 75.9676 21.0575C75.7676 21.2002 75.8969 20.9428 75.8969 20.9428C75.8969 20.9428 76.4543 20.1708 76.7129 19.6268C76.8996 19.2402 77.0143 18.7255 77.0996 18.6242C77.1263 18.5948 77.1449 18.5815 77.1609 18.5855ZM79.2276 18.5962C79.2587 18.5972 79.2895 18.6016 79.3196 18.6095C79.3196 18.6095 79.3756 18.6228 79.4183 18.6668C79.4609 18.7095 79.6049 18.8682 79.6183 18.9402C79.6183 19.0255 79.3756 18.9095 79.2623 18.8962C79.1627 18.8681 79.0704 18.819 78.9916 18.7522C78.9916 18.7522 78.9609 18.6948 79.0609 18.6375C79.1106 18.6063 79.169 18.5918 79.2276 18.5962ZM79.1369 19.2895C79.1637 19.289 79.1905 19.2913 79.2169 19.2962C79.2169 19.2962 79.2609 19.3122 79.3036 19.3415C79.3463 19.3842 79.4609 19.5122 79.4756 19.5828C79.4889 19.6548 79.2756 19.5695 79.1756 19.5548C79.0871 19.5285 79.0046 19.485 78.9329 19.4268C78.9329 19.4268 78.9063 19.3828 78.9903 19.3255C79.0347 19.2997 79.0856 19.2872 79.1369 19.2895ZM79.0956 19.9108C79.1169 19.9098 79.1383 19.9098 79.1596 19.9108L79.2329 19.9548C79.292 20.0128 79.3407 20.0804 79.3769 20.1548C79.3769 20.2135 79.2036 20.1415 79.1183 20.1282C79.0329 20.1135 78.9183 20.0282 78.9183 20.0282C78.9183 20.0282 78.8889 19.9855 78.9756 19.9428C79.0125 19.9229 79.0536 19.9119 79.0956 19.9108ZM79.0169 20.5202C79.0371 20.5214 79.0571 20.5241 79.0769 20.5282L79.1343 20.5575C79.1623 20.5855 79.2463 20.6708 79.2463 20.7135C79.2463 20.7708 79.0903 20.7002 79.0329 20.7002C78.9755 20.683 78.9223 20.6539 78.8769 20.6148C78.8769 20.6148 78.8609 20.5842 78.9169 20.5415C78.9463 20.5202 78.9836 20.5188 79.0169 20.5202ZM78.8969 21.0828C78.9134 21.0827 78.9299 21.0836 78.9463 21.0855L79.0036 21.1148C79.0329 21.1428 79.1023 21.2148 79.1023 21.2575C79.0889 21.2868 78.9596 21.2295 78.9023 21.2295C78.8519 21.212 78.804 21.1883 78.7596 21.1588C78.7596 21.1588 78.7463 21.1295 78.8036 21.1015C78.833 21.0885 78.8648 21.0822 78.8969 21.0828ZM68.7516 21.3588C68.9089 21.3882 68.9383 21.4015 68.9236 21.4735C68.9369 21.5455 68.7383 21.5442 68.7383 21.5442C68.7383 21.5442 68.4503 21.6028 68.4943 21.5028C68.5516 21.4015 68.7516 21.3588 68.7516 21.3588ZM78.7663 21.5255C78.7956 21.5255 78.8196 21.5308 78.8196 21.5308L78.8769 21.5602C78.9049 21.5882 78.9756 21.6602 78.9756 21.7028C78.9609 21.7455 78.8316 21.6895 78.7756 21.6748C78.7169 21.6602 78.6316 21.6015 78.6316 21.6015C78.6316 21.6015 78.6183 21.5722 78.6756 21.5442C78.704 21.5312 78.735 21.5248 78.7663 21.5255ZM78.6063 22.0282C78.6196 22.0281 78.633 22.029 78.6463 22.0308L78.6889 22.0602C78.7023 22.0735 78.7743 22.1455 78.7743 22.1748C78.7743 22.2175 78.6729 22.1748 78.6156 22.1615C78.5729 22.1482 78.5036 22.1042 78.5036 22.1042C78.5036 22.1042 78.4903 22.0748 78.5329 22.0468C78.5547 22.0339 78.581 22.0274 78.6063 22.0282ZM74.5249 22.1882C74.606 22.1881 74.6871 22.193 74.7676 22.2028C75.1676 22.2602 75.5542 22.6188 75.4956 22.6615C75.4383 22.7042 75.3529 22.6615 75.3236 22.6615L75.1809 22.5908L74.9649 22.5335C74.9649 22.5335 74.5783 22.4468 74.2929 22.4602C74.0063 22.4748 73.7489 22.5748 73.7489 22.5748C73.7489 22.5748 73.6343 22.6335 73.6063 22.5615C73.5916 22.4762 73.6503 22.4322 73.6503 22.4322L73.6636 22.4028C73.6636 22.4028 73.9916 22.1855 74.5249 22.1882ZM67.7076 22.3588C67.7169 22.3588 67.7209 22.3615 67.7209 22.3615L67.7489 22.3908C67.7356 22.3908 67.7916 22.5335 67.6636 22.6762C67.5343 22.8202 67.1343 23.5788 67.0489 23.4495C66.9623 23.3495 67.4356 22.6322 67.5356 22.4895C67.6103 22.3708 67.6783 22.3588 67.7076 22.3588ZM78.4409 22.5148C78.4609 22.5148 78.4756 22.5175 78.4756 22.5175L78.5169 22.5335L78.5903 22.6322C78.5756 22.6748 78.4889 22.6468 78.4463 22.6322C78.4036 22.6322 78.3449 22.5748 78.3449 22.5748C78.3449 22.5748 78.3316 22.5615 78.3743 22.5348C78.3941 22.522 78.4173 22.5151 78.4409 22.5148ZM69.3969 22.9188C69.4196 22.9108 69.4356 22.9295 69.4543 22.9348L69.5249 22.9628L69.5689 23.0055L69.7129 23.1482C69.7703 23.2335 69.9263 23.5215 69.8969 23.5482C69.7689 23.6775 69.7263 23.5055 69.5409 23.2908C69.3543 23.0908 69.3969 22.9188 69.3969 22.9188ZM78.2409 22.9855C78.2523 22.9859 78.2636 22.9881 78.2743 22.9922L78.3169 23.0055L78.3889 23.1068C78.3889 23.1348 78.3023 23.0908 78.2596 23.0908C78.2156 23.0908 78.1596 23.0335 78.1596 23.0335C78.1596 23.0335 78.1303 23.0202 78.1729 23.0055C78.1933 22.9929 78.2169 22.9864 78.2409 22.9868V22.9855ZM71.7756 23.5068C71.8223 23.5108 71.7583 23.5935 71.7583 23.5935C71.7583 23.5935 71.5129 23.9215 71.3703 24.1228C71.1836 24.3935 70.9543 24.8082 70.9116 24.7655C70.8689 24.7228 71.1129 24.2668 71.2423 24.0228C71.3849 23.7228 71.5996 23.5655 71.6849 23.5362C71.7129 23.5206 71.7437 23.5111 71.7756 23.5082V23.5068ZM67.7063 24.5802L67.7343 24.6095C67.7343 24.6095 67.7489 24.6655 67.6489 24.8228C67.5489 24.9802 67.4756 24.9815 67.4756 24.9815C67.4756 24.9682 67.4489 24.9108 67.5343 24.7388C67.6196 24.5668 67.7063 24.5802 67.7063 24.5802ZM65.9503 25.1402C65.9585 25.1424 65.966 25.147 65.9716 25.1535C66.0143 25.2108 65.8863 25.4682 65.8863 25.4682C65.8863 25.4682 65.7569 25.7388 65.7129 25.6242C65.6703 25.5242 65.7583 25.3388 65.7583 25.3388C65.8583 25.2508 65.9023 25.1308 65.9503 25.1402ZM77.3703 25.5095C77.4983 25.5242 77.4849 25.7682 77.4849 25.8255C77.5276 26.2402 77.7009 26.6575 78.0156 27.1588C78.4596 27.8602 79.1756 28.4042 79.1463 28.4482C79.0743 28.5188 78.3596 27.9602 78.1009 27.6455C77.6716 27.1295 77.3543 26.5708 77.2556 25.8695C77.2263 25.7122 77.2263 25.4815 77.3703 25.5095ZM68.9383 25.7095C68.9663 25.7095 69.0943 25.7548 69.0943 25.7548L69.4089 25.8828C69.4223 25.8828 69.5823 25.9548 69.7116 26.0255L70.0236 26.2255L70.1116 26.2988C70.1116 26.3282 70.2116 26.4855 70.0103 26.4428C69.8103 26.3988 69.3809 26.0695 69.2089 25.9842C69.0356 25.8988 68.7516 25.8695 68.8809 25.7548C68.8943 25.7415 68.9089 25.7095 68.9383 25.7095ZM67.4183 26.5002C67.4279 26.4983 67.4379 26.4983 67.4476 26.5002C67.5343 26.5002 67.5343 26.5695 67.5343 26.5695V26.6135C67.5343 26.6135 67.5329 26.8722 67.5476 27.0722C67.5476 27.1295 67.7063 27.7735 67.7063 27.7735C67.7063 27.7735 67.7343 27.8308 67.6769 27.8308C67.6343 27.8308 67.5916 27.7442 67.5916 27.7442C67.5916 27.7442 67.4756 27.5735 67.4316 27.4455C67.3903 27.3308 67.3756 27.1428 67.3756 27.1428C67.3756 27.1428 67.3463 26.9002 67.3463 26.8148C67.3609 26.7002 67.3609 26.5988 67.3756 26.5415C67.3775 26.5313 67.3825 26.5218 67.3899 26.5145C67.3973 26.5071 67.408 26.5021 67.4183 26.5002ZM65.4316 26.8428C65.4447 26.8394 65.4585 26.8394 65.4716 26.8428C65.5569 26.8575 65.5129 27.0135 65.5129 27.0855C65.5129 27.1575 65.4303 27.2855 65.4009 27.2855C65.3729 27.2855 65.3143 27.1575 65.3289 27.0855C65.3423 27.0228 65.3516 26.8628 65.4316 26.8428ZM72.6876 28.0335C72.8503 28.0202 73.3209 28.6962 74.0049 29.4335C74.7782 30.2655 75.6796 31.0535 75.7089 31.1535C75.7663 31.3255 75.0782 30.7802 74.7063 30.4948C73.7183 29.7348 72.5156 28.1895 72.6596 28.0468C72.6672 28.0394 72.677 28.0347 72.6876 28.0335ZM86.3849 28.7308C86.4116 28.7282 86.4342 28.7628 86.4342 28.7628L86.4636 28.8042C86.4636 28.8335 86.6343 29.5055 86.6196 29.9348C86.5903 30.5348 86.5636 30.9655 86.2063 31.4242C85.7756 31.9828 85.0303 32.5575 85.1876 32.0988C85.2876 31.8268 85.9476 31.4828 86.2049 30.7242C86.3489 30.2655 86.3783 29.8348 86.3783 29.8348L86.3489 28.9628C86.3489 28.9628 86.3329 28.8922 86.3329 28.7908C86.3489 28.7482 86.3676 28.7335 86.3849 28.7308ZM79.0809 30.2242C79.2143 30.2388 79.2743 30.3228 79.1169 30.4375C78.9303 30.5655 78.8596 30.5508 78.7436 30.6788C78.6156 30.8362 78.5743 31.3682 78.4449 31.1535C78.3169 30.9388 78.4023 30.6375 78.6183 30.4082C78.6757 30.3435 78.7474 30.2931 78.8277 30.2609C78.908 30.2287 78.9947 30.217 79.0809 30.2242ZM68.6823 30.8095C68.7369 30.7988 68.8809 30.9082 68.8809 30.9082C68.9516 30.9215 69.0236 31.0522 69.0236 31.0522C69.0236 31.0522 69.0529 31.1535 68.9663 31.1815C68.8809 31.2242 68.8236 31.1375 68.8236 31.1375C68.8236 31.1375 68.6369 30.8802 68.6636 30.8228C68.6654 30.8193 68.6681 30.8162 68.6713 30.8139C68.6746 30.8116 68.6783 30.8101 68.6823 30.8095ZM82.4249 32.8428C82.4529 32.8428 82.5116 32.8722 82.5836 33.0162C82.6556 33.1602 82.4689 34.1735 82.2396 34.0295C82.1103 33.9442 82.3103 33.6882 82.3103 33.4735C82.3103 33.3015 82.2809 33.1708 82.2809 33.0282C82.2809 32.8855 82.4249 32.8428 82.4249 32.8428ZM78.1756 34.6095C78.2263 34.6148 78.2396 34.6868 78.1703 34.8308C78.0703 35.0455 78.0423 35.1175 78.0276 35.3188C77.9983 35.5322 78.1289 36.1322 77.9289 35.9055C77.8569 35.8042 77.7849 35.3322 77.8423 35.1028C77.9049 34.7802 78.0903 34.6028 78.1756 34.6095ZM77.0823 37.4335C77.1303 37.4268 77.1543 37.4508 77.1543 37.4508C77.1836 37.5082 77.1249 37.5668 77.1103 37.5815C77.0563 37.6095 76.9982 37.6288 76.9383 37.6388C76.8529 37.6522 76.8983 37.5815 76.8983 37.5815C76.8983 37.5815 76.9529 37.4935 77.0249 37.4508C77.0429 37.4419 77.0623 37.436 77.0823 37.4335ZM73.2463 37.7375C73.3609 37.7375 73.3609 37.7948 73.3609 37.7948C73.3609 37.8375 73.3169 37.8535 73.2009 37.8388C73.1023 37.8255 73.0889 37.7962 73.1036 37.7815C73.1036 37.7682 73.1316 37.7375 73.2463 37.7375ZM74.1156 37.7788C74.1263 37.7776 74.1372 37.7786 74.1476 37.7815C74.1476 37.7815 74.6343 37.8668 74.9489 37.8802C75.1783 37.8948 75.2929 37.9108 75.5223 37.8962C75.6516 37.8962 75.5796 37.8802 75.7796 37.8802C75.8516 37.8668 75.8089 37.9682 75.7516 37.9828C75.5369 38.0402 75.4503 38.0095 75.2649 38.0242C75.1063 38.0375 75.0343 38.0522 74.8769 38.0522C74.6049 38.0522 74.5783 38.0682 74.1916 37.9535C74.1196 37.9255 74.0316 37.8388 74.0609 37.8108C74.0671 37.8017 74.0752 37.7942 74.0846 37.7886C74.0941 37.7831 74.1047 37.7797 74.1156 37.7788ZM70.8689 37.8655C71.0369 37.8695 70.9836 37.9255 70.9836 37.9255C70.9836 37.9255 70.9823 37.9815 70.8823 38.0522C70.7809 38.1242 70.7396 38.0815 70.7249 38.0815C70.7116 38.0815 70.6103 38.0242 70.6103 37.9668C70.6249 37.9095 70.7836 37.8682 70.7836 37.8682C70.8119 37.8654 70.8404 37.8645 70.8689 37.8655ZM79.8836 39.8388C79.8952 39.8386 79.9068 39.8395 79.9183 39.8415L79.9463 39.8988C79.9463 39.9122 79.8316 40.0722 79.7743 40.0722C79.7036 40.0562 79.7303 39.9722 79.7303 39.9722C79.7303 39.9722 79.7023 39.8855 79.7876 39.8575C79.8184 39.8462 79.8508 39.8399 79.8836 39.8388ZM78.8143 40.2628C78.8249 40.2628 78.8383 40.2642 78.8449 40.2708V40.3282C78.8583 40.3722 78.4849 40.7882 78.2276 41.0322C77.9849 41.2615 77.5689 41.5762 77.5689 41.5762H77.5116V41.5028L77.5276 41.4748L77.5556 41.4322L77.5849 41.3882L77.6129 41.3482L77.6996 41.2455L77.8996 41.0602L78.0996 40.8735L78.4156 40.5575C78.4156 40.5575 78.5289 40.4308 78.5716 40.4015C78.6143 40.3735 78.6436 40.3442 78.6863 40.3162C78.7289 40.2948 78.7796 40.2655 78.8143 40.2628ZM76.7436 41.9868C76.7554 41.9851 76.7674 41.9859 76.7789 41.9891C76.7904 41.9923 76.8011 41.9979 76.8103 42.0055C76.8543 42.1055 76.7836 42.1335 76.7836 42.1335L76.6529 42.2348C76.6383 42.2348 76.5529 42.3068 76.5249 42.2628C76.4956 42.2202 76.5383 42.1628 76.5383 42.1482C76.5383 42.1348 76.6249 42.0348 76.6969 42.0055C76.711 41.9961 76.7269 41.9898 76.7436 41.9868ZM75.3476 43.3122C75.4063 43.3055 75.4489 43.3935 75.4489 43.3935C75.4489 43.3935 75.4783 43.4348 75.4783 43.4922C75.4783 43.5362 75.3489 43.5215 75.2783 43.5788C75.1916 43.6362 75.3649 43.8095 75.0916 43.7948C74.9356 43.7815 75.0209 43.6375 75.0356 43.6228L75.1343 43.4802C75.2063 43.3788 75.2503 43.3642 75.3209 43.3202C75.3291 43.3155 75.3382 43.3127 75.3476 43.3122Z" fill="black"/>
</g>
<g clip-path="url(#clip2_601_50057)">
<path d="M139.638 29.8882V27.5615C139.638 26.8402 139.242 26.7002 138.125 26.7002C136.914 26.7002 136.496 26.8628 136.496 27.7015V28.0735H137.52V27.7708C137.52 27.3522 137.542 27.2815 138.078 27.2815C138.521 27.2815 138.544 27.3282 138.544 27.7708V28.6082H137.473C136.636 28.6082 136.38 29.0042 136.38 29.4695H137.426V29.4468C137.426 29.2375 137.566 29.0508 137.776 29.0508H138.566V29.9815C138.566 30.3068 138.404 30.3775 138.17 30.3775H137.752C137.496 30.3775 137.402 30.2148 137.402 29.9815V29.4695H136.356V30.0508C136.356 30.5402 136.728 30.9348 137.31 30.9348H140.057V30.3068H139.638V29.8882ZM148.157 30.3308V26.7935H146.598V27.3748H147.041V30.3308H146.598V30.9362H148.576V30.3308H148.157ZM144.224 26.7002C143.642 26.7002 143.269 27.4215 143.013 27.7242V26.7695H141.477V27.3508H141.896V30.3068H141.477V30.9348H143.385V30.3068H142.989V28.7242C142.989 28.5842 143.897 27.4442 143.897 27.5602V29.1428H144.968V27.3735C144.969 26.9562 144.713 26.7002 144.224 26.7002ZM123.674 28.7015H122.581V27.5842C122.581 27.3748 122.65 27.2588 122.906 27.2588H123.372C123.558 27.2588 123.674 27.3522 123.674 27.4922V28.7015ZM123.209 26.7002H123.045C121.788 26.7002 121.462 26.9788 121.462 27.7015V30.0282C121.462 30.8188 121.928 30.9588 123.068 30.9828H123.184C124.417 30.9602 124.789 30.8668 124.789 30.1215V29.5162H123.721V29.8188C123.721 30.2375 123.652 30.2615 123.14 30.2615C122.534 30.2615 122.558 30.2148 122.581 29.8188V29.0975H124.816V27.5375C124.814 26.9562 124.372 26.7002 123.209 26.7002ZM147.062 26.0482H148.202V25.3028H147.062V26.0482ZM116.738 26.0482H117.39V30.4468H116.576V31.0522H119.601V30.4468H118.577V28.4922H119.158V29.0508H119.857V27.3055H119.158V27.8175H118.577V26.0482H146.178V25.3028H116.738V26.0482ZM129.097 26.7002C128.516 26.7002 128.142 27.4215 127.886 27.7242V26.7695H126.35V27.3508H126.769V30.3068H126.35V30.9348H128.258V30.3068H127.862V28.7242C127.862 28.5842 128.77 27.4442 128.77 27.5602V29.1428H129.841V27.3735C129.841 26.9562 129.585 26.7002 129.097 26.7002ZM133.984 26.7002C133.402 26.7002 133.029 27.4215 132.773 27.7242V26.7695H131.237V27.3508H131.656V30.3068H131.237V30.9348H133.145V30.3068H132.749V28.7242C132.749 28.5842 133.657 27.4442 133.657 27.5602V29.1428H134.728V27.3735C134.729 26.9562 134.473 26.7002 133.984 26.7002Z" fill="black"/>
</g>
<defs>
<clipPath id="clip0_601_50057">
<rect width="20.0145" height="32" fill="white" transform="translate(16.561 12.1775)"/>
</clipPath>
<clipPath id="clip1_601_50057">
<rect width="32" height="32" fill="white" transform="translate(60.5756 12.1775)"/>
</clipPath>
<clipPath id="clip2_601_50057">
<rect width="32" height="32" fill="white" transform="translate(116.576 12.1775)"/>
</clipPath>
</defs>
</svg>
