<svg width="56" height="56" viewBox="0 0 56 56" fill="none" xmlns="http://www.w3.org/2000/svg">
<circle cx="28" cy="28" r="28" fill="#F7F7F7"/>
<path d="M45.4998 28.42C45.4998 27.1911 45.392 26.0245 45.2073 24.8889H27.8091V31.9045H37.7707C37.3242 34.2067 36.0155 36.1511 34.0755 37.4734V42.14H40.0186C43.4982 38.8889 45.4998 34.0978 45.4998 28.42Z" fill="#4285F4"/>
<path d="M27.8091 46.6667C32.7976 46.6667 36.9701 44.9867 40.0186 42.14L34.0755 37.4734C32.4127 38.5934 30.3034 39.2778 27.8091 39.2778C22.99 39.2778 18.9099 35.9956 17.4472 31.5623H11.3193V36.3689C14.3525 42.4667 20.5881 46.6667 27.8091 46.6667Z" fill="#34A853"/>
<path d="M17.4473 31.5622C17.0624 30.4422 16.8622 29.2444 16.8622 28C16.8622 26.7555 17.0778 25.5578 17.4473 24.4378V19.6311H11.3194C10.0569 22.1511 9.33325 24.9822 9.33325 28C9.33325 31.0178 10.0569 33.8489 11.3194 36.3689L17.4473 31.5622Z" fill="#FBBC05"/>
<path d="M27.8091 16.7223C30.5343 16.7223 32.967 17.6712 34.8916 19.5223L40.1572 14.2023C36.9701 11.1845 32.7976 9.33337 27.8091 9.33337C20.5881 9.33337 14.3525 13.5334 11.3193 19.6312L17.4472 24.4378C18.9099 20.0045 22.99 16.7223 27.8091 16.7223Z" fill="#EA4335"/>
</svg>
