<svg width="65" height="41" viewBox="0 0 65 41" fill="none" xmlns="http://www.w3.org/2000/svg">
<path fill-rule="evenodd" clip-rule="evenodd" d="M35.9109 22.4551C36.1546 23.7142 35.4947 24.7601 34.9463 25.7752C34.3372 26.7197 33.332 27.5315 32.1237 27.41C29.4123 27.3694 26.7624 26.9531 24.3049 26.2116C24.1933 26.1813 24.0817 26.11 24.0206 26.0086C23.9698 25.8663 24.0411 25.7343 24.1424 25.6432C26.3867 23.8254 29.0571 22.983 31.6972 22.0992C32.6819 21.815 33.7281 21.5102 34.8347 21.6525C35.2913 21.7136 35.7482 22.0286 35.9109 22.4551ZM45.1612 17.0736C46.4203 18.1093 47.5576 19.5209 47.1717 21.2267C46.5421 23.7449 43.8007 25.0853 41.6176 25.938C40.4294 26.3341 39.2314 26.7405 37.9317 26.8624C37.8505 26.8521 37.7184 26.8722 37.6979 26.7504L37.7283 26.6085C39.5764 24.5267 40.9774 22.1917 42.2065 19.8256C42.775 18.7593 43.3032 17.6629 43.7905 16.5864C43.8615 16.5052 43.9328 16.4646 44.014 16.4342C44.4706 16.4744 44.7958 16.83 45.1612 17.0736ZM27.4421 14.393L27.4015 14.5452C24.7311 17.581 22.9744 21.1045 21.3093 24.6075C20.9844 24.9123 20.6695 24.5059 20.375 24.3738C18.8924 23.3993 17.552 21.8252 17.938 19.957C18.5573 17.5203 21.0653 16.2206 23.1573 15.3375C24.396 14.8703 25.6858 14.4947 27.0463 14.2814C27.1886 14.2811 27.3711 14.2609 27.4421 14.393ZM40.6936 14.8802C40.8457 14.9615 41.0286 14.9918 41.1201 15.144C41.2013 15.3167 41.0389 15.4283 40.9474 15.5402C38.8455 17.1849 36.4392 18.099 33.9817 18.9012C32.7324 19.2059 31.4733 19.7543 30.0825 19.4496C29.7573 19.3684 29.4632 19.1551 29.2803 18.8402C28.9349 17.8858 29.4021 16.8907 29.8081 16.0582C30.3463 15.0123 31.301 13.7835 32.6209 13.7634C35.4639 13.7429 38.1446 14.1695 40.6936 14.8802ZM44.2068 14.9615C46.3596 16.1394 48.7966 18.2106 48.5427 20.9725C48.2483 23.5313 45.8621 25.3183 43.7298 26.3949C37.5051 29.37 28.7626 29.4611 22.335 26.862C20.1617 25.9584 17.7247 24.4049 16.8105 22.0692C16.11 20.1501 16.9627 18.1499 18.3949 16.8198C21.3901 14.0985 25.2081 13.1646 29.138 12.6261C33.4029 12.1081 37.8907 12.565 41.7087 13.875C42.5618 14.1899 43.4046 14.5353 44.2068 14.9615Z" fill="#003984"/>
</svg>
