<svg width="127" height="45" viewBox="0 0 127 45" fill="none" xmlns="http://www.w3.org/2000/svg">
<path d="M43.9337 26.9331L35.7567 15.9412L27.5798 26.9331C24.8184 26.665 20.0731 24.8688 20.0731 21.6784C20.0731 17.657 27.0436 13.9036 35.7836 13.9036C44.9793 13.9036 51.494 17.657 51.494 21.6784C51.494 24.8956 46.7219 26.6918 43.9873 26.9063M35.7567 12.724C24.4431 12.724 16.561 17.1476 16.561 22.858C16.561 25.539 18.2769 28.5417 21.923 30.3647C25.3278 32.0538 30.0999 32.6436 30.7702 32.724L35.7567 18.1664L40.7433 32.724C43.7934 32.3823 46.7753 31.5871 49.5905 30.3647C53.2366 28.5417 54.9525 25.539 54.9525 22.858C54.9256 17.1208 47.0704 12.724 35.7567 12.724Z" fill="#231F20"/>
<g clip-path="url(#clip0_601_50084)">
<path d="M84.7124 26.6973V29.652L83.7097 26.804C83.6884 26.7293 83.6351 26.6973 83.5284 26.6973H82.6004V30.292H83.2404V27.3693L84.2324 30.1747C84.2537 30.2493 84.3177 30.2813 84.3924 30.2813H85.3524V26.6867H84.7124V26.6973ZM88.0191 26.6973V30.292H88.7657V28.756H90.0991V28.0947H88.7657V27.348H90.1204V26.6867H88.0191V26.6973ZM105.118 26.6973V27.3907H105.939V30.292H106.686V27.38H107.507V26.6867H105.107L105.118 26.6973ZM92.7124 30.292H93.5124V26.6973H92.7124V30.292ZM101.779 30.292H102.579V26.6973H101.779V30.292ZM110.046 30.292H110.835V26.6973H110.046V30.292ZM79.0591 30.292H79.8591V26.6973H79.0591V30.292ZM99.0377 26.6973H98.3977V29.652L97.3951 26.804C97.3737 26.7293 97.3204 26.6973 97.2244 26.6973H96.2857V30.292H96.9257V27.3693L97.9177 30.1747C97.9391 30.2493 98.0031 30.2813 98.0777 30.2813H99.0377V26.6867V26.6973ZM98.2057 20.7987L94.9524 16.4253L91.6991 20.7987C90.6004 20.692 88.7124 19.9773 88.7124 18.708C88.7124 17.108 91.4857 15.6147 94.9631 15.6147C98.6217 15.6147 101.214 17.108 101.214 18.708C101.214 19.988 99.3151 20.7027 98.2271 20.788M94.9524 15.1453C90.4511 15.1453 87.3151 16.9053 87.3151 19.1773C87.3151 20.244 87.9977 21.4387 89.4484 22.164C90.8031 22.836 92.7017 23.0707 92.9684 23.1027L94.9524 17.3107L96.9364 23.1027C98.1499 22.9667 99.3363 22.6504 100.456 22.164C101.907 21.4387 102.59 20.244 102.59 19.1773C102.579 16.8947 99.4537 15.1453 94.9524 15.1453Z" fill="#231F20"/>
</g>
<defs>
<clipPath id="clip0_601_50084">
<rect width="32" height="15.3707" fill="white" transform="translate(78.9524 15.0387)"/>
</clipPath>
</defs>
</svg>
