<svg width="240" height="48" viewBox="0 0 240 48" fill="none" xmlns="http://www.w3.org/2000/svg">
<path d="M18.2053 33.6675C17.4651 33.5532 17.0161 33.2807 16.8347 32.7759L16.7382 32.5073L16.5918 31.1496V29.7519L17.2485 29.7417C17.833 29.7326 17.9104 29.7385 17.9524 29.7954C17.9878 29.8436 17.9995 30.158 17.9995 31.0704C17.9995 32.2152 18.0037 32.2901 18.0764 32.4393C18.1188 32.5262 18.2117 32.6413 18.2829 32.6953C18.5583 32.9038 18.5331 32.9014 20.3913 32.9012H22.1098L22.2536 32.6231C22.3346 32.4665 22.5026 32.2322 22.6384 32.0866C22.7709 31.9445 22.8794 31.8187 22.8794 31.807C22.8794 31.7953 22.6893 31.7811 22.4571 31.7753L22.0348 31.7647L22.0434 31.6217C22.0635 31.289 22.5044 30.655 22.9552 30.3106C23.0795 30.2156 23.3034 30.0818 23.4526 30.0134C23.9753 29.7736 24.0234 29.7706 27.3036 29.7717L30.2555 29.7728L31.1478 30.424C31.6385 30.7822 32.0581 31.0752 32.0802 31.0752C32.1302 31.0752 33.4908 30.239 33.8961 29.9591L34.1959 29.7521L35.3409 29.7553C36.5106 29.7587 36.4828 29.7577 36.5333 29.7846C36.6068 29.8236 36.5806 29.8461 36.5806 31.0964C36.5806 32.1691 36.5902 32.4049 36.6383 32.5193C36.7132 32.6972 36.7905 32.7795 36.9747 32.8775C37.1192 32.9544 37.1776 32.9579 38.5106 32.9693C39.2727 32.9758 39.9355 32.9713 39.9835 32.9593L40.0708 32.9376L40.0806 31.3821L40.0904 29.8266H40.7848H41.4793L41.498 31.3734L41.5168 32.9202L44.0358 32.9297L46.5548 32.9393L46.6586 32.8583C46.7157 32.8137 46.7859 32.7213 46.8147 32.653C46.8593 32.5469 46.8593 32.5107 46.8147 32.4046C46.7859 32.3363 46.7159 32.2441 46.659 32.1996L46.5555 32.1188H44.2566C42.2595 32.1188 41.9516 32.1115 41.911 32.063C41.8509 31.9911 41.913 31.5449 42.0241 31.2502C42.1099 31.0223 42.3226 30.6796 42.5089 30.469C42.6917 30.2622 43.1378 29.9821 43.4331 29.8887C43.6917 29.8068 43.7134 29.8062 45.8524 29.8164L48.0108 29.8266L48.0218 30.1589C48.0297 30.3996 48.0194 30.4996 47.9842 30.5218C47.9576 30.5386 47.0947 30.5525 46.0668 30.5529C44.2914 30.5535 44.1906 30.557 44.0549 30.6258C43.8114 30.7491 43.5249 31.1475 43.579 31.2876C43.5941 31.3266 43.957 31.3361 45.4177 31.3361C46.6222 31.3361 47.3049 31.3503 47.4365 31.378C47.7307 31.44 47.9602 31.5695 48.153 31.7824C48.3755 32.0282 48.4551 32.2622 48.436 32.6155C48.4052 33.1878 48.0285 33.585 47.4241 33.6824C47.0823 33.7375 36.7444 33.7358 36.3861 33.6807C35.7636 33.5847 35.4463 33.3996 35.2596 33.0233L35.1354 32.7729L35.1166 31.4892C35.1044 30.6526 35.0843 30.201 35.059 30.1926C34.9691 30.163 32.8268 31.5273 32.8268 31.6142L35.4968 33.7683C35.4968 33.7902 35.0289 33.6842 34.4162 33.6842H33.4155L32.5244 33.0506C32.0342 32.7021 31.6096 32.417 31.5808 32.417C31.5294 32.417 30.0348 33.317 29.6418 33.5847L29.4409 33.7215L23.9736 33.7178C19.81 33.715 18.4345 33.703 18.2053 33.6676V33.6675ZM28.8932 33.0853C29.0231 33.0019 29.501 32.7034 29.9552 32.4218C30.4094 32.1403 30.781 31.8906 30.781 31.8671C30.781 31.828 28.8773 30.3561 28.5616 30.0774C28.4473 29.9765 28.3076 30.2608 28.3738 30.3709L28.2165 30.5479L26.483 30.5533C24.592 30.5591 24.5465 30.5737 24.3996 30.6524C24.1784 30.7709 23.6775 31.2175 23.6775 31.3549C23.6775 31.4176 24.0806 31.3946 26.0068 31.3951C27.1268 31.3958 28.0782 31.3929 28.0782 31.3929C28.0716 31.4262 28.0758 31.7997 28.0758 31.7997L28.0783 32.0628L26.3516 32.0814C24.4897 32.1015 24.5822 32.0911 24.2984 32.312C24.1441 32.432 23.8157 32.8761 23.8724 32.9325L28.5287 32.92L28.5403 33.2914C28.5487 33.5625 28.5915 33.2789 28.8932 33.0853L28.8932 33.0853Z" fill="url(#paint0_linear_601_50147)"/>
<path d="M16.6051 29.726V30.079H18.0785V29.726H16.6051ZM39.8799 29.747V30.1011H41.4942V29.747H39.8799ZM34.203 29.7482L34.0714 29.8402H34.5979C34.7716 29.836 34.8908 29.8455 34.9787 29.8612L34.9776 30.1069H36.5255V29.7493L35.8453 29.7587C35.215 29.7541 34.769 29.751 34.203 29.7482H34.203ZM27.9391 29.7691C27.6257 29.7698 27.2627 29.7712 26.8443 29.7727C24.254 29.782 24.0447 29.7867 23.9592 29.8472C23.9592 29.8737 23.8406 29.9227 24.1363 29.902C24.1801 29.8989 24.1998 29.9067 24.2632 29.8996C24.6745 29.9062 25.3343 29.8926 26.7627 29.8926C28.3662 29.8926 29.6981 29.8998 29.6979 29.8845C29.6969 29.8349 29.7849 29.8059 29.5884 29.789C29.374 29.7705 28.8793 29.7672 27.9391 29.7692V29.7691ZM46.6272 29.7994C46.3825 29.8001 46.0991 29.8015 45.7723 29.803C43.7495 29.8122 43.5853 29.8182 43.5185 29.8787C43.5185 29.9051 43.4263 29.953 43.6572 29.9322C43.6914 29.9292 43.7066 29.9382 43.7562 29.9311C44.0773 29.9376 44.5928 29.9241 45.7082 29.9241C46.9605 29.9241 48.0007 29.9313 48.0004 29.9159C47.9997 29.8664 48.0677 29.8373 47.9142 29.8204C47.7468 29.802 47.3614 29.7975 46.6272 29.7995V29.7994Z" fill="url(#paint1_linear_601_50147)"/>
<path d="M43.1646 31.3647C43.0705 31.2122 43.3906 30.7832 43.7468 30.5854C44.15 30.3615 44.3084 30.3462 46.2323 30.3457L48.0301 30.367L48.0579 30.6592C47.9642 30.6638 47.6081 30.665 46.1958 30.6665C44.1212 30.6686 44.0981 30.6709 43.8126 30.9059C43.7209 30.9813 43.6267 31.0978 43.5986 31.1702C43.5794 31.22 43.5802 31.262 43.5477 31.2928C43.4647 31.3353 43.3673 31.3745 43.2906 31.3947C43.2561 31.4037 43.2208 31.428 43.1998 31.4172C43.1852 31.4098 43.194 31.4097 43.1809 31.3919L43.1646 31.3647Z" fill="url(#paint2_linear_601_50147)"/>
<path d="M23.1564 31.6344C23.1558 31.5946 23.1838 31.4804 23.2217 31.3672C23.3195 31.0757 23.5649 30.7954 23.8876 30.6068C24.2755 30.38 24.3814 30.3704 26.5053 30.3683C27.682 30.3671 28.3689 30.3683 28.3689 30.3683C28.3689 30.3683 28.3689 30.4637 28.3689 30.5365C28.3689 30.6022 28.3689 30.7133 28.3689 30.7133C28.2775 30.7022 27.6353 30.7157 26.5213 30.7157C24.5756 30.7157 24.4829 30.7097 24.2064 30.8794C24.1382 30.9212 24.0147 31.0289 23.9391 31.1151C23.8386 31.23 23.7394 31.333 23.6896 31.4488C23.5996 31.5287 23.4843 31.5309 23.3985 31.5704C23.2243 31.6507 23.1509 31.6663 23.1509 31.6663L23.1564 31.6344Z" fill="url(#paint3_linear_601_50147)"/>
<path d="M46.7622 32.6962C46.8148 32.4866 46.5506 32.2088 46.2537 32.1418C46.1805 32.1253 45.2163 32.1206 44.111 32.1313C43.0058 32.142 42.0419 32.1264 41.9663 32.1254C41.8869 32.1243 41.8557 32.1311 41.8407 32.1135C41.8112 32.0791 41.8809 31.9954 42.0188 31.89L42.1771 31.7689L44.1217 31.7709C46.27 31.7731 46.5759 31.7899 46.7519 31.9152C47.0517 32.1287 47.1732 32.4755 47.0174 32.6729C46.9151 32.8025 46.6297 32.9813 46.566 32.9419C46.7245 32.8122 46.7153 32.8179 46.7622 32.6962Z" fill="url(#paint4_linear_601_50147)"/>
<path d="M40.0433 33.0201C39.9821 32.9854 39.8914 32.988 39.878 32.9533C39.8647 32.9186 39.8605 32.1568 39.8605 31.3174C39.8605 30.2455 39.8579 29.9102 39.8484 29.7371C39.901 29.7344 40.0253 29.7916 40.131 29.8973L40.3016 30.1056L40.2903 32.9495C40.29 33.0082 40.2966 33.0681 40.2889 33.1269C40.1818 33.0805 40.1169 33.0522 40.0433 33.0201H40.0433Z" fill="url(#paint5_linear_601_50147)"/>
<path d="M23.321 33.099C23.321 33.099 23.3009 32.8921 23.3773 32.6882C23.4589 32.4705 23.763 32.159 24.0009 32.0494C24.3675 31.8806 24.4472 31.8745 26.2632 31.874C27.5227 31.8734 28.0719 31.8835 28.0719 31.8835L28.0843 32.2161C28.0843 32.2161 27.409 32.2173 26.3515 32.2174C25.3355 32.2174 24.6568 32.2312 24.5709 32.2532C24.3 32.3225 24.0112 32.603 23.9033 32.9015C23.8855 32.9506 23.3855 33.0941 23.3445 33.112L23.321 33.099Z" fill="url(#paint6_linear_601_50147)"/>
<path d="M36.562 33.7387C36.2519 33.699 35.7215 33.5178 35.5326 33.387C35.3936 33.2908 35.2122 33.0847 35.1291 32.9286C35.0236 32.7304 34.9805 32.2722 34.9792 31.3331C34.9785 30.8167 34.9824 30.3759 34.9649 30.3651C34.9474 30.3543 34.5283 30.5956 34.0565 30.8897C33.1736 31.4402 32.9203 31.6098 32.7488 31.6887L32.0588 31.6921C32.1481 31.6087 34.7616 29.9469 34.8993 29.8894C34.994 29.8498 34.9322 29.8396 34.9774 29.8655C35.0441 29.9037 35.2642 29.9858 35.2909 30.0479C35.338 30.1581 35.3014 30.3844 35.3153 31.1618C35.3397 32.5273 35.3548 32.6019 35.6668 32.9066C35.7978 33.0344 35.9505 33.1359 36.12 33.2075C36.12 33.2075 36.3018 33.2622 36.3944 33.2827C36.4597 33.2971 36.5923 33.316 36.5923 33.316L41.7396 33.3255L47.017 33.3288C47.017 33.3288 47.1414 33.3091 47.2007 33.2887C47.246 33.2731 47.2871 33.2471 47.3303 33.2264C48.0105 32.8991 48.2467 32.4557 48.0022 31.9649C47.9497 31.8597 47.8396 31.7129 47.7575 31.6387C47.6753 31.5645 47.5535 31.4483 47.5599 31.4293C47.5777 31.3773 47.9893 31.5941 48.1123 31.7169C48.4198 32.0238 48.5499 32.6405 48.3487 33.0517C48.142 33.4742 47.7234 33.694 47.1358 33.7465C46.6596 33.7891 36.8991 33.7818 36.562 33.7386V33.7387Z" fill="url(#paint7_linear_601_50147)"/>
<path d="M18.1872 33.7258C17.7897 33.6692 17.6079 33.6068 17.339 33.4348C17.0792 33.2687 16.8824 33.0384 16.7433 32.7379C16.7186 32.6847 16.6901 32.6329 16.6706 32.5776C16.654 32.5304 16.6419 32.4816 16.6332 32.4323C16.616 32.3347 16.6099 32.2352 16.6045 32.1362C16.5875 31.8277 16.5922 31.2093 16.5922 31.2093L16.579 29.8209C16.5786 29.7795 16.5756 29.7212 16.5756 29.7212C16.5756 29.7212 16.7269 29.7983 16.8354 29.8917L17.0359 30.0646L17.0372 31.0294C17.0386 32.103 17.0585 32.2274 17.2251 32.5808C17.3253 32.7933 17.5441 32.9823 17.8974 33.1613C18.3129 33.3719 18.3034 33.3715 23.5354 33.3715H28.3335L28.5743 33.1945C28.7068 33.0971 29.2206 32.7659 29.716 32.4584C30.2114 32.1509 30.6168 31.8815 30.617 31.8597C30.6174 31.7804 30.391 31.6087 28.7068 30.411C28.3823 30.1802 28.1325 30.0136 28.0063 29.8984C28.1269 29.9014 28.4027 29.9053 28.5754 29.9055L28.8468 29.9056L29.6668 30.4896C30.1178 30.8107 30.6545 31.1933 30.8594 31.3397C31.0644 31.4862 31.3452 31.7022 31.3184 31.7195L30.2818 32.3847C29.9663 32.5871 29.6202 32.8002 29.5177 32.8664C29.4152 32.9326 29.2097 33.0651 29.0611 33.1608C28.9125 33.2565 28.7809 33.3748 28.7809 33.3951C28.8109 33.4133 28.9197 33.4086 29.0984 33.4085L29.4059 33.4078L30.4583 32.7213C31.0371 32.3437 31.5439 32.0243 31.5844 32.0114C31.6868 31.9789 31.7201 31.9994 32.7044 32.7C33.1861 33.0429 33.6326 33.3828 33.6736 33.4036C33.7146 33.4244 33.9306 33.4086 34.1766 33.4202C34.355 33.4286 34.4514 33.4175 34.5712 33.4377C35.2089 33.6705 34.647 33.4676 35.4824 33.774L33.3176 33.7762C33.2028 33.7161 32.141 32.9508 31.8486 32.7134C31.7146 32.6045 31.5813 32.5152 31.5524 32.5147C31.5235 32.5141 31.3474 32.6185 31.161 32.7462C30.9747 32.8739 30.555 33.159 30.2283 33.3798L29.6345 33.7812L24.0785 33.7772C19.777 33.7742 18.4469 33.7625 18.1872 33.7255V33.7258Z" fill="url(#paint8_linear_601_50147)"/>
<path d="M36.6899 32.8856C36.4498 32.8209 36.2834 32.6987 36.2153 32.6062C36.1712 32.5463 36.1689 32.5584 36.1578 32.5248C36.1474 32.4933 36.1226 32.439 36.1177 32.4063C36.0676 32.0733 36.0715 31.2842 36.0715 31.2842V30.1363L36.2795 29.951C36.394 29.8491 36.4942 29.7591 36.5023 29.7511C36.5103 29.743 36.5237 29.7483 36.5549 29.7742C36.6038 29.8148 36.5835 30.0333 36.5836 31.1774C36.5836 32.6887 36.704 32.7277 37.0249 32.9157C37.164 32.9524 36.8836 32.9413 36.6899 32.8856ZM18.061 32.8075C17.8558 32.7578 17.6794 32.5818 17.643 32.4803L17.5959 32.3489C17.565 31.5909 17.5436 30.8452 17.5436 30.065L17.6912 29.9176C17.8565 29.7525 18.0649 29.7219 18.0649 29.7219C18.0787 29.7505 18.0745 30.3705 18.08 31.0966C18.0918 32.6774 18.0687 32.5612 18.4078 32.749C18.504 32.8023 18.6917 32.8536 18.6811 32.8712C18.6583 32.9087 18.2243 32.8471 18.061 32.8075ZM40.9913 31.5958V30.0902L41.1222 29.9752C41.2651 29.8498 41.4724 29.7312 41.5002 29.759C41.5235 29.7823 41.5294 32.8639 41.5059 32.9251C41.4959 32.9513 41.3927 33.0017 41.293 33.0371C41.1602 33.0842 41.0066 33.1263 41.0094 33.1113C40.9893 33.1273 40.9913 32.6098 40.9913 31.5958H40.9913Z" fill="url(#paint9_linear_601_50147)"/>
<path d="M41.8283 32.117C41.8295 31.9259 41.9455 31.3473 42.1055 31.0198C42.3079 30.6056 42.6687 30.2077 42.9996 30.0339C43.1265 29.9673 43.2501 29.9127 43.2743 29.9125C43.4089 29.8722 43.6164 29.8352 43.794 29.8205C43.6624 29.8794 43.5522 29.9136 43.4008 30.0021C43.195 30.1146 43.0118 30.2136 42.7278 30.5609C42.6264 30.6848 42.5504 30.7911 42.4745 31.0042C42.373 31.2889 42.3452 31.5806 42.3167 31.7642C42.218 31.8179 42.225 31.8429 41.8283 32.117ZM21.9232 31.7498C21.9232 31.616 22.1014 31.2029 22.3124 30.8479C22.556 30.438 22.7792 30.2399 23.1923 30.0665C23.4969 29.9386 24.0495 29.8091 24.1917 29.813C24.2774 29.8154 23.9553 29.924 23.7745 29.9911C23.4568 30.1092 23.2682 30.251 22.9918 30.5293C22.8207 30.7016 22.6495 30.9231 22.4045 31.5353L22.3279 31.7764L22.1089 31.773C21.9526 31.7707 21.9498 31.7659 21.9232 31.7498V31.7498ZM29.4678 29.7721L30.2532 29.7711C31.2999 30.5438 31.8904 30.9442 32.0776 31.0789L31.6293 31.3562C30.6265 30.6363 30.3391 30.3989 29.4678 29.772V29.7721Z" fill="url(#paint10_linear_601_50147)"/>
<path d="M32.782 32.2124L32.0748 31.6872H32.4373C32.6366 31.6872 32.8193 31.6073 32.8487 31.633C32.8487 31.633 33.4342 32.1091 35.4936 33.7582C34.1656 33.4175 33.7833 32.9561 32.782 32.2124Z" fill="url(#paint11_linear_601_50147)"/>
<path d="M22.1661 32.9372C22.104 32.8936 22.1067 32.876 22.213 32.639C22.3414 32.353 22.8021 31.841 22.9888 31.7158C23.0609 31.6674 23.1732 31.5944 23.2757 31.5565C23.3782 31.5187 23.4752 31.4723 23.5622 31.4386C23.6145 31.4184 23.7185 31.3905 23.9083 31.3922L24.2075 31.395L24.0211 31.4614C23.6684 31.5871 23.4248 31.7359 23.1693 31.9817C22.8768 32.2631 22.7003 32.5199 22.5623 32.8647C22.5094 32.9967 22.4648 33.1019 22.4515 33.1101C22.3423 33.1076 22.2593 33.0014 22.1661 32.9372V32.9372Z" fill="url(#paint12_linear_601_50147)"/>
<path d="M31.0918 27.7321C29.7433 27.5906 28.4814 27.2301 27.2416 26.6321C26.2083 26.1337 25.5517 25.6739 24.8511 24.9579C24.0654 24.155 23.6822 23.5678 23.323 22.6164C22.8937 21.4792 23.0428 19.958 23.7136 18.6326C24.2785 17.5165 24.9872 16.7344 26.0992 15.9998C26.5128 15.7267 27.5381 15.2008 27.8075 15.1236C27.9976 15.0691 27.7133 15.1757 27.3885 15.3636C27.1881 15.4747 27.0643 15.5432 26.8794 15.6529C26.4498 15.9147 26.3385 16.0074 25.8929 16.3666C24.6756 17.348 23.9196 18.5122 23.6483 19.8231C23.5597 20.2515 23.5597 21.2116 23.6483 21.64C23.9699 23.1943 24.9044 24.4678 26.4983 25.5237C27.4151 26.1311 28.4778 26.5784 29.7167 26.8782C30.7638 27.1316 31.1588 27.1723 32.5726 27.1723C33.603 27.1723 33.9374 27.1576 34.3496 27.0944C35.6661 26.8923 37.0693 26.4369 38.0093 25.9067C38.7784 25.4729 39.0341 25.3218 39.1035 25.2599C39.1431 25.2246 39.3206 25.1306 39.4979 25.0509C39.7104 24.9555 39.8614 24.8554 39.9408 24.7573C40.0591 24.6113 40.0671 24.6085 40.3681 24.6085C40.5484 24.6085 40.8247 24.3477 40.8247 24.3727C40.4731 24.8744 39.8917 25.4324 39.5616 25.6863C39.0714 26.0645 38.6864 26.323 37.9882 26.6552C36.8137 27.2139 35.852 27.5402 34.3707 27.7182C33.285 27.8488 32.1297 27.8412 31.0918 27.7321Z" fill="url(#paint13_linear_601_50147)"/>
<path d="M30.9978 27.066C30.2189 26.9831 29.0763 26.7351 28.473 26.5179C28.0459 26.3643 27.1417 25.9691 26.9074 25.8337C26.6475 25.6835 26.0148 25.2129 25.646 24.8955C25.1678 24.4839 24.4011 23.5176 24.4675 23.4102C24.4865 23.3794 24.8298 23.2516 24.8928 23.2516C24.9042 23.2516 24.9676 23.3462 25.0429 23.4802C25.3852 24.0895 25.8949 24.6364 26.4623 25.0991C27.2217 25.7182 27.7692 25.9919 28.8784 26.307C31.1662 26.9568 33.8281 26.9266 35.9572 26.2268C36.7886 25.9535 37.63 25.4969 37.9464 25.1472C38.0322 25.0524 38.7129 24.8124 38.7606 24.8602C38.8208 24.9203 38.6608 25.124 38.3309 25.4075C37.7429 25.9126 36.2805 26.5426 35.1094 26.7954C34.0558 27.0227 33.6844 27.0607 32.3966 27.0726C31.7205 27.0789 31.0911 27.0759 30.9978 27.066Z" fill="url(#paint14_linear_601_50147)"/>
<path d="M26.8556 25.6237C26.5127 25.5147 26.3237 25.4068 25.9019 25.0794C24.9747 24.3596 24.3045 23.4483 24.0087 22.5052C23.8339 21.948 23.7942 21.5831 23.8203 20.7761C23.8404 20.1569 23.8608 19.9894 23.9555 19.6676C24.1916 18.8656 24.519 18.2557 25.0662 17.5985C26.3065 16.109 28.6232 14.9853 30.9814 14.7294C31.6344 14.6585 32.8545 14.6524 33.0422 14.719C33.2352 14.7875 33.437 15.0109 33.5019 15.2277C33.5447 15.3711 33.5391 15.4133 33.4556 15.5774C33.4033 15.6801 33.3061 15.8312 33.2395 15.9132C33.173 15.9951 32.9995 16.2196 32.854 16.4119C32.7085 16.6043 32.3687 17.0334 32.099 17.3656C31.8292 17.6979 31.3899 18.2749 31.1228 18.6479C30.6283 19.3383 29.5456 20.9763 29.3296 21.3607C29.2641 21.4773 29.1475 21.6606 29.0705 21.7681C28.9935 21.8756 28.8614 22.1092 28.7771 22.2872C28.6358 22.5852 28.6249 22.6355 28.6393 22.9221C28.659 23.3121 28.7806 23.5149 29.1296 23.7401C29.6551 24.079 29.1775 24.0523 34.7222 24.0523H39.668L40.0967 23.5903C40.4278 23.2333 40.5585 23.0564 40.671 22.8125C40.8354 22.4559 41.0054 21.8993 41.0789 21.4767C41.1412 21.1182 41.1024 20.1577 41.0156 19.9124C40.8523 19.2485 40.5635 18.5996 40.2071 18.0333C39.5281 16.9727 38.5606 16.1305 37.1622 15.3825C36.914 15.2497 36.28 14.9438 36.2899 14.9339C36.3203 14.9034 37.2644 15.2978 37.73 15.5298C38.88 16.1027 39.8689 16.9229 40.5256 17.8486C41.0124 18.5347 41.4162 19.3155 41.6154 20.1024C41.7262 20.5402 41.7398 20.9213 41.7385 21.3982C41.7358 22.3501 41.5372 22.9752 41.0716 23.8832C40.7449 24.5201 40.6703 24.6017 40.1755 24.8621L39.6274 25.0605L34.7476 25.0908C29.767 25.1217 29.753 25.0905 29.2676 24.9969C28.2289 24.7964 27.8034 24.549 27.5321 23.9875C27.3974 23.7089 27.3674 23.1681 27.4649 22.7791C27.688 21.8889 29.2187 19.5173 31.36 16.744C31.7678 16.2158 32.1208 15.7475 32.1444 15.7032C32.2573 15.4921 32.1444 15.3523 31.8226 15.3046C31.5981 15.2714 30.4538 15.4495 29.9586 15.5948C28.7479 15.9499 28.2807 16.1307 27.6763 16.4784C26.7665 17.0016 26.0205 17.6441 25.5026 18.3505C24.9503 19.1039 24.7307 19.5778 24.5219 20.4671C24.3985 20.9929 24.4271 21.8139 24.5893 22.3977C24.9273 23.6145 25.6448 24.5603 26.8873 25.4267C27.0793 25.5606 27.2364 25.6781 27.2364 25.6878C27.2364 25.7222 27.0854 25.6968 26.8556 25.6237Z" fill="url(#paint15_linear_601_50147)"/>
<path d="M26.8799 25.6323C26.537 25.5233 26.348 25.4154 25.9261 25.0879C24.999 24.3682 24.3288 23.4569 24.033 22.5137C23.8582 21.9566 23.8184 21.5917 23.8446 20.7847C23.8647 20.1655 23.8851 19.998 23.9798 19.6761C24.2159 18.8742 24.5433 18.2643 25.0905 17.607C26.3308 16.1176 28.6474 14.9939 31.0057 14.738C31.6587 14.6671 32.8788 14.661 33.0665 14.7276C33.2595 14.7961 33.4613 15.0195 33.5262 15.2363C33.569 15.3797 33.5634 15.4219 33.4799 15.586C33.4276 15.6887 33.3304 15.8398 33.2638 15.9217C33.1973 16.0037 33.0238 16.2282 32.8783 16.4205C32.7328 16.6128 32.393 17.042 32.1233 17.3742C31.8535 17.7065 31.4142 18.2835 31.1471 18.6565C30.6526 19.3469 29.5699 20.9849 29.3539 21.3693C29.2884 21.4858 29.1718 21.6692 29.0948 21.7767C29.0178 21.8842 28.8857 22.1178 28.8013 22.2958C28.6601 22.5938 28.6492 22.6441 28.6636 22.9307C28.6833 23.3207 28.8048 23.5235 29.1539 23.7487C29.6794 24.0876 29.2018 24.0609 34.7465 24.0609H39.6923L40.121 23.5988C40.4521 23.2419 40.5828 23.065 40.6953 22.821C40.8597 22.4645 41.0297 21.9079 41.1032 21.4853C41.1655 21.1268 41.1267 20.1663 41.0399 19.921C40.8766 19.2571 40.5224 18.6663 40.166 18.1C39.487 17.0395 38.5849 16.3479 37.1865 15.5999C36.9383 15.4671 35.7101 14.8078 36.3142 14.9425C36.3446 14.912 37.2887 15.3064 37.7543 15.5384C38.9043 16.1113 39.8932 16.9315 40.5499 17.8572C41.0367 18.5433 41.4405 19.324 41.6397 20.1109C41.7505 20.5488 41.7641 20.9299 41.7628 21.4068C41.7601 22.3587 41.5615 22.9838 41.0959 23.8918C40.7692 24.5287 40.6946 24.6103 40.1998 24.8707L39.6516 25.0691L34.7719 25.0994C29.7913 25.1303 29.7773 25.0991 29.2919 25.0055C28.2532 24.805 27.8277 24.5575 27.5564 23.9961C27.4217 23.7175 27.3917 23.1766 27.4892 22.7877C27.7123 21.8975 29.243 19.5259 31.3843 16.7525C31.7921 16.2244 32.1451 15.7561 32.1687 15.7118C32.2815 15.5007 32.1687 15.3609 31.8469 15.3132C31.6224 15.28 30.4781 15.4581 29.9828 15.6034C28.7722 15.9585 28.305 16.1393 27.7006 16.4869C26.7908 17.0101 26.0448 17.6527 25.5269 18.3591C24.9746 19.1125 24.755 19.5864 24.5462 20.4757C24.4228 21.0015 24.4514 21.8225 24.6136 22.4063C24.9515 23.6231 25.6691 24.5689 26.9116 25.4353C27.1036 25.5691 27.2607 25.6866 27.2607 25.6964C27.2607 25.7308 27.1097 25.7053 26.8799 25.6323Z" fill="url(#paint16_linear_601_50147)"/>
<path d="M26.8799 25.6323C26.537 25.5233 26.348 25.4154 25.9261 25.0879C24.999 24.3682 24.3288 23.4569 24.033 22.5137C23.8582 21.9566 23.8184 21.5917 23.8446 20.7847C23.8647 20.1655 23.8851 19.998 23.9798 19.6761C24.2159 18.8742 24.5433 18.2643 25.0905 17.607C26.3308 16.1176 28.6474 14.9939 31.0057 14.738C31.6587 14.6671 32.8788 14.661 33.0665 14.7276C33.2595 14.7961 33.4613 15.0195 33.5262 15.2363C33.569 15.3797 33.5634 15.4219 33.4799 15.586C33.4276 15.6887 33.3304 15.8398 33.2638 15.9217C33.1973 16.0037 33.0238 16.2282 32.8783 16.4205C32.7328 16.6128 32.393 17.042 32.1233 17.3742C31.8535 17.7065 31.4142 18.2835 31.1471 18.6565C30.6526 19.3469 29.5699 20.9849 29.3539 21.3693C29.2884 21.4858 29.1718 21.6692 29.0948 21.7767C29.0178 21.8842 28.8857 22.1178 28.8013 22.2958C28.6601 22.5938 28.6492 22.6441 28.6636 22.9307C28.6833 23.3207 28.8048 23.5235 29.1539 23.7487C29.6794 24.0876 29.2018 24.0609 34.7465 24.0609H39.6923L40.121 23.5988C40.4521 23.2419 40.5828 23.065 40.6953 22.821C40.8597 22.4645 41.0297 21.9079 41.1032 21.4853C41.1655 21.1268 41.1267 20.1663 41.0399 19.921C40.8766 19.2571 40.5878 18.6082 40.2314 18.0418C39.5524 16.9813 38.5849 16.1391 37.1865 15.3911C36.9383 15.2583 36.3043 14.9524 36.3142 14.9425C36.3446 14.912 37.2887 15.3064 37.7543 15.5384C38.9043 16.1113 39.8932 16.9315 40.5499 17.8572C41.0367 18.5433 41.4405 19.324 41.6397 20.1109C41.7505 20.5488 41.7641 20.9299 41.7628 21.4068C41.7601 22.3587 41.5615 22.9838 41.0959 23.8918C40.7692 24.5287 40.6946 24.6103 40.1998 24.8707L39.6516 25.0691L34.7719 25.0994C29.7913 25.1303 29.7773 25.0991 29.2919 25.0055C28.2532 24.805 27.8277 24.5575 27.5564 23.9961C27.4217 23.7175 27.3917 23.1766 27.4892 22.7877C27.7123 21.8975 29.243 19.5259 31.3843 16.7525C31.7921 16.2244 32.1451 15.7561 32.1687 15.7118C32.2815 15.5007 32.1687 15.3609 31.8469 15.3132C31.6224 15.28 30.4781 15.4581 29.9828 15.6034C28.7722 15.9585 28.305 16.1393 27.7006 16.4869C26.7908 17.0101 26.0448 17.6527 25.5269 18.3591C24.9746 19.1125 24.755 19.5864 24.5462 20.4757C24.4228 21.0015 24.4514 21.8225 24.6136 22.4063C24.9515 23.6231 25.6691 24.5689 26.9116 25.4353C27.1036 25.5691 27.2607 25.6866 27.2607 25.6964C27.2607 25.7308 27.1097 25.7053 26.8799 25.6323Z" fill="url(#paint17_linear_601_50147)"/>
<path d="M23.8203 20.7761C23.8404 20.1569 23.8608 19.9894 23.9556 19.6676C24.1916 18.8656 24.519 18.2557 25.0663 17.5985C26.3065 16.109 28.6232 14.9853 30.9815 14.7294C31.6344 14.6585 32.8545 14.6524 33.0423 14.719C33.2352 14.7875 33.4371 15.0109 33.5019 15.2277C33.5448 15.3711 33.5392 15.4133 33.4556 15.5774C33.4033 15.6801 33.3061 15.8312 33.2396 15.9132C33.173 15.9951 32.9995 16.2196 32.854 16.4119C32.7085 16.6043 32.3688 17.0334 32.099 17.3656C31.8293 17.6979 31.39 18.2749 31.1228 18.6479C30.6284 19.3383 29.5457 20.9763 29.3297 21.3607C29.2642 21.4773 29.1476 21.6606 29.0705 21.7681C28.9935 21.8756 28.8615 22.1092 28.7771 22.2872C28.6358 22.5852 28.6249 22.6355 28.6394 22.9221C28.659 23.3121 28.7806 23.5149 29.1297 23.7401C29.6551 24.079 29.1776 24.0523 34.7222 24.0523H39.668L40.0967 23.5903C40.4279 23.2333 40.5586 23.0564 40.6711 22.8125C40.8355 22.4559 41.0055 21.8993 41.0789 21.4767C41.1413 21.1182 41.1024 20.1577 41.0157 19.9124C40.8524 19.2485 40.4832 18.6799 40.1268 18.1136C39.4478 17.053 38.4804 16.2108 37.082 15.4628C36.8338 15.33 36.2801 14.9438 36.2899 14.9339C36.3203 14.9034 37.2644 15.2978 37.73 15.5298C38.8801 16.1027 39.8689 16.9229 40.5257 17.8486C41.0125 18.5347 41.4163 19.3155 41.6154 20.1024C41.7262 20.5402 41.7398 20.9213 41.7385 21.3982C41.7358 22.3501 41.5372 22.9752 41.0716 23.8832C40.745 24.5201 40.6703 24.6017 40.1756 24.8621L39.6274 25.0605L34.7476 25.0908C29.767 25.1217 29.7531 25.0905 29.2677 24.9969C28.229 24.7964 27.8034 24.549 27.5321 23.9875C27.3975 23.7089 27.3674 23.1681 27.4649 22.7791C27.688 21.8889 29.2187 19.5173 31.3601 16.744C31.7678 16.2158 32.1208 15.7475 32.1445 15.7032C32.2573 15.4921 32.1444 15.3523 31.8226 15.3046C31.5982 15.2714 30.4539 15.4495 29.9586 15.5948C28.7479 15.9499 28.2808 16.1307 27.6763 16.4784C26.7666 17.0016 26.0205 17.6441 25.5027 18.3505C24.9504 19.1039 24.7308 19.5778 24.522 20.4671C24.3985 20.9929 24.4272 21.8139 24.5893 22.3977C23.8853 21.8096 23.8051 21.2882 23.8203 20.7761Z" fill="url(#paint18_linear_601_50147)"/>
<path d="M24.0087 22.5052C23.8339 21.948 23.7942 21.5831 23.8203 20.7761C23.8404 20.1569 23.8608 19.9894 23.9555 19.6676C24.1916 18.8656 24.519 18.2557 25.0662 17.5985C26.3065 16.109 28.6232 14.9853 30.9814 14.7294C31.6344 14.6585 32.8545 14.6524 33.0422 14.719C33.2352 14.7875 33.437 15.0109 33.5019 15.2277C33.5447 15.3711 33.5391 15.4133 33.4556 15.5774C33.4033 15.6801 33.3061 15.8312 33.2395 15.9132C33.173 15.9951 32.9995 16.2196 32.854 16.4119C32.7085 16.6043 32.3687 17.0334 32.099 17.3656C31.8292 17.6979 31.3899 18.2749 31.1228 18.6479C30.6283 19.3383 29.5456 20.9763 29.3296 21.3607C29.2641 21.4773 29.1475 21.6606 29.0705 21.7681C28.9935 21.8756 28.8614 22.1092 28.777 22.2872C28.6358 22.5852 28.6249 22.6355 28.6393 22.9221C28.659 23.3121 28.7806 23.5149 29.1296 23.7401C29.6551 24.079 29.1775 24.0523 34.7222 24.0523H39.668L40.0967 23.5903C40.4278 23.2333 40.5585 23.0564 40.671 22.8125C40.8354 22.4559 41.0054 21.8993 41.0789 21.4767C41.1412 21.1182 41.1024 20.1577 41.0156 19.9124C40.8523 19.2485 40.5635 18.5996 40.2071 18.0333C39.5281 16.9727 38.5606 16.1305 37.1622 15.3825C36.914 15.2497 36.28 14.9438 36.2899 14.9339C36.3203 14.9034 37.2644 15.2978 37.73 15.5298C38.88 16.1027 39.8689 16.9229 40.5256 17.8486C41.0124 18.5347 41.4162 19.3155 41.6154 20.1024C41.7262 20.5402 41.7398 20.9213 41.7385 21.3982C41.7358 22.3501 41.5372 22.9752 41.0716 23.8832C40.7449 24.5201 40.6703 24.6017 40.1755 24.8621L39.6274 25.0605L34.7476 25.0908C29.767 25.1217 29.753 25.0905 29.2676 24.9969C28.2289 24.7964 27.8034 24.549 27.5321 23.9875C27.3974 23.7089 27.3674 23.1681 27.4649 22.7791C27.688 21.8889 29.2187 19.5173 31.36 16.744C31.7678 16.2158 32.1208 15.7475 32.1444 15.7032C32.2572 15.4921 32.1444 15.3523 31.8226 15.3046C31.5981 15.2714 30.4538 15.4495 29.9586 15.5948C28.7479 15.9499 28.2807 16.1307 27.6763 16.4784C26.7665 17.0016 26.0205 17.6441 25.5026 18.3505C24.9503 19.1039 24.7307 19.5778 24.5219 20.4671C24.3985 20.9929 24.4271 21.8139 24.5893 22.3977C24.3918 22.5134 24.9193 23.3179 24.0087 22.5052Z" fill="url(#paint19_linear_601_50147)"/>
<path d="M24.0552 22.4586C23.8804 21.9015 23.8407 21.5366 23.8668 20.7296C23.8869 20.1104 23.9073 19.9428 24.002 19.621C24.2381 18.819 24.5655 18.2092 25.1128 17.5519C26.353 16.0625 28.6697 14.9388 31.0279 14.6828C31.6809 14.612 32.901 14.6058 33.0887 14.6725C33.2817 14.7409 33.4835 14.9643 33.5484 15.1812C33.5913 15.3245 33.5857 15.3668 33.5021 15.5309C33.4498 15.6335 33.3526 15.7846 33.286 15.8666C33.2195 15.9486 33.046 16.173 32.9005 16.3654C32.755 16.5577 32.4152 16.9869 32.1455 17.3191C31.8757 17.6513 31.4364 18.2283 31.1693 18.6013C30.6748 19.2918 29.5921 20.9297 29.3761 21.3141C29.3106 21.4307 29.194 21.614 29.117 21.7215C29.04 21.8291 28.9079 22.0627 28.8236 22.2407C28.6823 22.5386 28.6714 22.589 28.6858 22.8756C28.7055 23.2656 28.8271 23.4684 29.1762 23.6935C29.7016 24.0324 29.224 24.0058 34.7687 24.0058H39.7145L40.1432 23.5437C40.4743 23.1868 40.605 23.0098 40.7175 22.7659C40.882 22.4094 41.0519 21.8527 41.1254 21.4302C41.1877 21.0717 41.1489 20.1112 41.0621 19.8659C40.8988 19.202 40.5297 18.6333 40.1733 18.067C39.4943 17.0065 38.5268 16.1642 37.1285 15.4162C36.8802 15.2835 36.3265 14.8972 36.3364 14.8873C36.3668 14.8569 37.3109 15.2513 37.7765 15.4832C38.9265 16.0562 39.9154 16.8764 40.5722 17.802C41.0589 18.4881 41.4627 19.2689 41.6619 20.0558C41.7727 20.4936 41.7863 20.8747 41.785 21.3517C41.7823 22.3036 41.5837 22.9287 41.1181 23.8366C40.7914 24.4736 40.7168 24.5551 40.222 24.8155L39.6739 25.014L34.7941 25.0443C29.8135 25.0752 29.7995 25.044 29.3141 24.9503C28.2754 24.7499 27.8499 24.5024 27.5786 23.9409C27.444 23.6624 27.4139 23.1215 27.5114 22.7325C27.7345 21.8424 29.2652 19.4708 31.4065 16.6974C31.8143 16.1693 32.1673 15.701 32.1909 15.6567C32.3038 15.4455 32.1909 15.3057 31.8691 15.2581C31.6446 15.2248 30.5003 15.4029 30.0051 15.5482C28.7944 15.9033 28.3272 16.0842 27.7228 16.4318C26.813 16.955 26.067 17.5976 25.5491 18.304C24.9968 19.0574 24.7773 19.5313 24.5684 20.4205C24.445 20.9463 24.4736 21.7674 24.6358 22.3512C24.4383 22.4668 24.4812 22.4202 24.0552 22.4586Z" fill="url(#paint20_linear_601_50147)"/>
<g opacity="0.8">
<path d="M31.0646 14.7675C31.6789 14.6996 32.8268 14.6937 33.0034 14.7576C33.1849 14.8232 33.3748 15.0373 33.4358 15.2452C33.4762 15.3826 33.4709 15.4231 33.3923 15.5803C33.3431 15.6787 33.2516 15.8235 33.189 15.9021C33.1264 15.9807 32.9632 16.1958 32.8263 16.3801C31.8364 17.3762 32.0226 16.8101 32.1587 15.7009C32.2649 15.4985 32.1587 15.3645 31.856 15.3189C31.4699 15.0134 31.8383 15.0644 31.0646 14.7675Z" fill="url(#paint21_linear_601_50147)"/>
</g>
<path d="M31.8356 17.6246C31.5818 17.943 31.1686 18.496 30.9172 18.8535C30.452 19.5153 29.4334 21.0851 29.2302 21.4535C29.1686 21.5652 29.0589 21.741 28.9864 21.844C28.914 21.947 28.7897 22.1709 28.7104 22.3415C28.5775 22.6271 28.5672 22.6754 28.5808 22.95C28.5993 23.3238 28.7136 23.5182 29.0421 23.734C29.5364 24.0588 29.0871 24.0332 34.3035 24.0332C34.9821 24.3351 40.2748 24.8375 34.3274 25.0286C29.6417 25.0582 29.6286 25.0283 29.1719 24.9385C28.1947 24.7464 27.7943 24.5092 27.5391 23.9711C27.4124 23.7041 27.3841 23.1857 27.4759 22.8129C28.6324 18.7937 32.3869 16.7672 31.8356 17.6246Z" fill="url(#paint22_linear_601_50147)"/>
<path d="M30.7251 23.2448C30.514 22.949 30.5082 22.602 30.7066 22.1506C31.0556 21.3569 33.0311 18.5939 34.5224 16.8138C35.383 15.7866 35.7303 15.2977 35.7303 15.1137C35.7303 15.0327 35.6785 14.9341 35.577 14.8217L35.306 14.5771L35.5482 14.652C35.6986 14.6986 36.1281 14.8418 36.2564 14.9259C36.4668 15.0637 36.4305 15.4477 36.2155 15.8221C36.113 16.0005 35.7059 16.5269 35.3502 16.941C34.3783 18.0723 33.2295 19.6218 32.1602 21.2433C31.5922 22.1047 31.4106 22.471 31.472 22.6311C31.5038 22.714 30.9647 23.3421 30.8634 23.3402C30.8242 23.3395 30.762 23.2965 30.7251 23.2448Z" fill="#505050"/>
<path d="M39.788 23.5331C39.6967 23.432 39.4705 22.9586 39.4705 22.8809C39.4705 22.8472 39.5626 22.8471 39.601 22.816C39.7172 22.722 39.7978 22.5317 39.9124 22.0806C40.1802 21.026 40.0685 19.9811 39.5792 18.9638C38.9766 17.711 37.7292 16.6418 36.3374 16.185C36.1408 16.1205 36.0785 16.0973 36.0371 16.0501C35.9657 15.969 35.975 15.9388 36.092 15.6829C36.1789 15.4929 36.1987 15.3929 36.2636 15.3836C36.3144 15.3762 36.5614 15.475 36.928 15.6539C38.7247 16.5305 39.9036 17.6377 40.4968 19.0055C40.8076 19.722 40.875 20.0052 40.9023 20.7078C40.936 21.5779 40.7979 22.2181 40.4141 22.9707C40.1044 23.5781 39.9391 23.7002 39.788 23.5331Z" fill="url(#paint23_linear_601_50147)"/>
<path d="M31.2568 23.5817C31.0375 23.5543 30.835 23.4126 30.835 23.3282C30.835 23.2442 31.3982 22.5948 31.4687 22.5948C31.4925 22.5948 31.5048 22.687 31.5806 22.7257C31.7054 22.7893 32.0945 22.7976 35.6615 22.8132L39.6044 22.8304L39.7745 23.1386C39.8773 23.3251 39.9644 23.5049 39.9477 23.5476C39.9223 23.6128 37.5219 23.6516 33.6067 23.6458C31.2767 23.6423 31.3279 23.5906 31.2568 23.5817V23.5817Z" fill="url(#paint24_linear_601_50147)"/>
<path opacity="0.5" d="M31.2568 23.5817C31.0375 23.5543 30.835 23.4126 30.835 23.3282C30.835 23.2442 31.3982 22.5948 31.4687 22.5948C31.4925 22.5948 31.5048 22.687 31.5806 22.7257C31.7054 22.7893 32.0945 22.7976 35.6615 22.8132L39.6044 22.8304L39.7745 23.1386C39.8773 23.3251 39.9644 23.5049 39.9477 23.5476C39.9223 23.6128 37.5219 23.6516 33.6067 23.6458C31.2767 23.6423 31.3279 23.5906 31.2568 23.5817V23.5817Z" fill="url(#paint25_linear_601_50147)"/>
<path d="M31.2617 27.3182C27.1641 26.9607 23.8875 24.5593 23.4006 21.5567C23.0963 19.6805 23.9014 17.8494 25.6766 16.3801C26.2876 15.8744 26.4484 15.7704 27.2348 15.3722C28.7051 14.6277 30.1327 14.2882 32.0034 14.238C33.0101 14.211 33.7406 14.2566 34.5664 14.3977C35.2855 14.5207 35.3715 14.551 35.5739 14.7534C35.7187 14.8983 35.7547 14.9642 35.7547 15.0845C35.7547 15.2683 35.5535 15.5488 34.4848 16.8546C33.2157 18.4052 32.4357 19.4548 31.4235 20.9743C30.5843 22.2342 30.4682 22.5149 30.5996 22.967C30.6967 23.3008 31.0006 23.4557 31.2992 23.5125C31.686 23.5861 32.1214 23.5688 35.0509 23.5642C36.5898 23.5617 39.8539 23.5687 39.9551 23.5613C40.0868 23.5517 40.1636 23.5135 40.2517 23.4291C40.5542 23.0375 40.6729 22.8739 40.2728 23.585C40.1016 23.8894 39.8405 24.1253 39.553 24.185C39.22 24.2541 30.4572 24.22 29.9755 24.1477C29.5546 24.0845 29.3108 23.9916 28.9846 23.7701C28.7801 23.6313 28.7011 23.5443 28.61 23.3582C28.5076 23.149 28.4975 23.0909 28.5205 22.8446C28.5494 22.5356 28.6781 22.22 28.9227 21.8591C29.0112 21.7284 29.148 21.507 29.2266 21.3672C29.3051 21.2273 29.6387 20.7027 29.9679 20.2015C30.8414 18.8714 31.7306 17.6599 32.3636 16.9376C32.7619 16.4832 33.3365 15.6967 33.3779 15.5494C33.4581 15.2637 33.2337 14.8779 32.9232 14.7679C32.7117 14.6929 31.587 14.709 30.9096 14.7967C27.1894 15.2783 24.382 17.4232 23.907 20.1468C23.8263 20.6097 23.8258 21.5287 23.906 21.9868C24.1275 23.2516 24.9374 24.4253 26.22 25.3403C26.6873 25.6737 27.71 26.1981 28.3157 26.4149C31.063 27.3985 34.5443 27.2419 37.1608 26.0171C37.79 25.7225 38.0597 25.5397 38.4517 25.1422L38.7961 24.7929L39.3903 24.7646C39.9577 24.7375 40.2715 24.7667 40.2299 24.834C40.192 24.8953 39.3919 25.2083 39.0718 25.3219C38.891 25.3861 38.7229 25.5021 38.467 25.663C36.505 26.8963 33.7804 27.538 31.2616 27.3182L31.2617 27.3182Z" fill="url(#paint26_linear_601_50147)"/>
<path opacity="0.3" d="M31.3083 27.3107C27.2107 26.9532 23.9342 24.5518 23.4472 21.5492C23.143 19.6729 23.948 17.8418 25.7232 16.3726C26.3342 15.8669 26.495 15.7629 27.2814 15.3646C28.7517 14.6202 30.1793 14.2806 32.0501 14.2305C31.4375 14.53 31.7708 14.7547 30.9562 14.7892C27.236 15.2708 24.4286 17.4157 23.9536 20.1393C23.8729 20.6022 23.8724 21.5212 23.9526 21.9793C24.1741 23.244 24.984 24.4177 26.2667 25.3328C26.7339 25.6661 27.7567 26.1906 28.3623 26.4074C31.1097 27.391 34.591 27.2344 37.2074 26.0095C37.8366 25.715 38.1064 25.5322 38.4983 25.1347L38.8428 24.7854L39.4369 24.757C40.0043 24.7299 40.3181 24.7592 40.2765 24.8264C40.2386 24.8878 39.4385 25.2008 39.1184 25.3144C38.9376 25.3785 38.7695 25.4945 38.5136 25.6554C36.5516 26.8888 33.827 27.5304 31.3082 27.3107L31.3083 27.3107Z" fill="url(#paint27_linear_601_50147)"/>
<path d="M31.2804 27.3157C27.1828 26.9582 24.0027 24.7174 23.5157 21.7148C23.2114 19.8385 24.0165 18.0395 25.7917 16.5703C26.4027 16.0646 26.5834 15.959 27.3217 15.5286C28.7455 14.6987 30.1515 14.2856 32.0222 14.2355C33.0288 14.2085 33.7593 14.254 34.5851 14.3952C35.3043 14.5181 35.3903 14.5485 35.5926 14.7508C35.7375 14.8957 35.7735 14.9616 35.7735 15.082C35.7735 15.2658 35.5723 15.5462 34.5035 16.852C33.2344 18.4026 32.4544 19.4523 31.4423 20.9718C30.6031 22.2316 30.487 22.5124 30.6184 22.9644C30.7155 23.2983 31.0194 23.4531 31.318 23.51C31.7047 23.5836 32.1401 23.5663 35.0697 23.5616C36.6085 23.5592 39.8727 23.5662 39.9739 23.5587C40.1055 23.5491 40.1823 23.511 40.2705 23.4265C40.573 23.0349 40.6917 22.8713 40.2916 23.5825C40.1203 23.8868 39.8592 24.1227 39.5717 24.1824C39.2387 24.2516 30.476 24.2174 29.9942 24.1451C29.5733 24.082 29.3295 23.9891 29.0033 23.7675C28.7989 23.6287 28.7198 23.5418 28.6287 23.3556C28.5264 23.1464 28.5162 23.0883 28.5392 22.842C28.5681 22.533 28.6969 22.2174 28.9414 21.8565C29.03 21.7258 29.1667 21.5045 29.2453 21.3646C29.3239 21.2247 29.6575 20.7002 29.9867 20.1989C30.8601 18.8688 31.7494 17.6574 32.3824 16.9351C32.7806 16.4806 33.3553 15.6941 33.3966 15.5469C33.4769 15.2612 33.2524 14.8753 32.942 14.7653C32.7305 14.6903 31.6057 14.7065 30.9284 14.7941C27.2081 15.2757 24.4007 17.4207 23.9258 20.1443C23.845 20.6072 23.8445 21.5262 23.9247 21.9843C24.1462 23.249 24.9561 24.4227 26.2388 25.3378C26.706 25.6711 27.7288 26.1956 28.3344 26.4124C31.0818 27.396 34.5631 27.2393 37.1795 26.0145C37.8088 25.7199 38.0785 25.5371 38.4704 25.1397L38.8149 24.7904L39.4091 24.762C39.9764 24.7349 40.2902 24.7642 40.2487 24.8314C40.2108 24.8928 39.4106 25.2058 39.0905 25.3194C38.9097 25.3835 38.7416 25.4995 38.4857 25.6604C36.5237 26.8938 33.7992 27.5354 31.2804 27.3157L31.2804 27.3157Z" fill="url(#paint28_linear_601_50147)"/>
<path opacity="0.5" d="M31.2617 27.3182C27.1641 26.9607 23.8875 24.5593 23.4006 21.5567C23.0963 19.6805 23.9014 17.8494 25.6766 16.3801C26.2876 15.8744 26.4484 15.7704 27.2348 15.3722C28.7051 14.6277 30.1327 14.2882 32.0034 14.238C31.964 14.6455 31.319 14.7984 30.9096 14.7967C27.1894 15.2783 24.382 17.4232 23.907 20.1468C23.8263 20.6097 23.8258 21.5287 23.906 21.9868C24.1275 23.2516 24.9374 24.4253 26.22 25.3403C26.6873 25.6737 27.71 26.1981 28.3157 26.4149C31.063 27.3985 34.5443 27.2419 37.1608 26.0171C37.79 25.7225 38.0597 25.5397 38.4517 25.1422L38.7961 24.7929L39.3903 24.7646C39.9577 24.7375 40.2715 24.7667 40.2299 24.834C40.192 24.8953 39.3919 25.2083 39.0718 25.3219C38.891 25.3861 38.7229 25.5021 38.467 25.6629C36.505 26.8963 33.7804 27.538 31.2616 27.3182H31.2617Z" fill="url(#paint29_linear_601_50147)"/>
<path opacity="0.3" d="M31.3083 27.3107C27.2107 26.9532 23.9342 24.5518 23.4472 21.5492C23.143 19.6729 23.948 17.8418 25.7232 16.3726C26.3342 15.8669 26.495 15.7629 27.2814 15.3646C28.7517 14.6202 30.1793 14.2806 32.0501 14.2305C31.4375 14.53 31.7708 14.7547 30.9562 14.7892C27.236 15.2708 24.4286 17.4157 23.9536 20.1393C23.8729 20.6022 23.8724 21.5212 23.9526 21.9793C24.1741 23.244 24.984 24.4177 26.2667 25.3328C26.7339 25.6661 27.7567 26.1906 28.3623 26.4074C31.1097 27.391 34.591 27.2344 37.2074 26.0095C37.8366 25.715 38.1064 25.5322 38.4983 25.1347L38.8428 24.7854L39.4369 24.757C40.0043 24.7299 40.3181 24.7592 40.2765 24.8264C40.2386 24.8878 39.4385 25.2008 39.1184 25.3144C38.9376 25.3785 38.7695 25.4945 38.5136 25.6554C36.5516 26.8888 33.827 27.5304 31.3082 27.3107L31.3083 27.3107Z" fill="url(#paint30_linear_601_50147)"/>
<path opacity="0.3" d="M31.7328 23.7639C31.3961 23.7558 30.7705 23.2653 30.8168 23.3046C31.1699 23.6043 32.6526 23.577 35.5538 23.5699L39.9565 23.5591L40.0687 23.4517C40.1304 23.3926 40.2689 23.159 40.3766 22.9326C41.0153 21.59 41.0176 20.2287 40.3835 18.9041C40.1257 18.3655 39.8243 17.9404 39.3461 17.4408C38.6526 16.7164 37.9986 16.2241 36.9512 15.7619C36.2084 15.4341 36.1869 15.5066 36.2174 15.3005C36.2174 15.2494 36.1896 15.184 36.167 15.1032C36.0693 14.7542 36.1143 14.831 36.996 15.2917C38.1807 15.9106 38.82 16.3321 39.5658 17.1091C41.213 18.8252 41.6226 21.0397 40.6609 23.0297C40.477 23.4103 40.2132 23.6702 39.9196 23.7602C39.7887 23.8003 39.0208 23.8034 35.9519 23.7999C33.7488 23.7973 33.4586 23.8055 31.7328 23.7639Z" fill="url(#paint31_linear_601_50147)"/>
<path d="M31.7328 23.6508C31.1462 23.6428 30.6173 23.1635 30.6636 23.2023C31.0167 23.498 32.6526 23.4664 35.5538 23.4594L39.9565 23.4487L40.0686 23.3427C40.1303 23.2843 40.2689 23.0538 40.3766 22.8304C41.0153 21.5053 41.0176 20.1618 40.3835 18.8544C40.1257 18.3229 39.8243 17.9034 39.3461 17.4103C38.6525 16.6953 37.9985 16.2095 36.9512 15.7533C36.2084 15.4297 36.1869 15.5014 36.2174 15.2979C36.2174 15.2475 36.1896 15.1829 36.167 15.1032C36.0692 14.7588 36.1597 15.0139 37.0414 15.4685C38.2261 16.0794 38.7292 16.4057 39.4749 17.1725C41.1221 18.8663 41.6226 20.9622 40.6609 22.9262C40.477 23.3018 40.2132 23.5584 39.9195 23.6472C39.7887 23.6868 39.0208 23.6899 35.9519 23.6863C33.7488 23.6838 33.4589 23.6744 31.7328 23.6508Z" fill="url(#paint32_linear_601_50147)"/>
<path opacity="0.5" d="M40.3836 18.9041C40.1258 18.3655 39.8244 17.9404 39.3461 17.4408C38.6526 16.7164 37.9986 16.2241 36.9512 15.7619C36.2084 15.434 36.1869 15.5066 36.2175 15.3005C36.2175 15.2494 36.1897 15.1839 36.1671 15.1032C36.0693 14.7542 36.0576 14.9446 36.9392 15.4052C38.1239 16.0242 38.8201 16.3321 39.5658 17.109C40.2023 17.9757 39.7806 17.5128 40.3836 18.9041Z" fill="url(#paint33_linear_601_50147)"/>
<path opacity="0.3" d="M38.4984 25.1347L38.8428 24.7854L39.437 24.757C40.0044 24.7299 40.3182 24.7592 40.2766 24.8264C39.8783 25.2772 38.114 25.5974 38.4984 25.1347Z" fill="url(#paint34_linear_601_50147)"/>
<path opacity="0.6" d="M31.2804 27.3064C27.1828 26.9489 24.0027 24.708 23.5157 21.7055C23.2114 19.8292 24.0165 18.0302 25.7917 16.561C26.4027 16.0553 26.5834 15.9497 27.3217 15.5193C28.7455 14.6894 30.1515 14.2763 32.0222 14.2262C33.0288 14.1992 33.7593 14.2447 34.5851 14.3859C35.3043 14.5088 35.3903 14.5392 35.5926 14.7415C35.7375 14.8864 35.7735 14.9523 35.7735 15.0727C35.7735 15.2565 35.5723 15.5369 34.5035 16.8427C33.2344 18.3933 32.4545 19.4429 31.4423 20.9625C30.6031 22.2223 30.487 22.5031 30.6184 22.9551C30.7155 23.289 31.0194 23.4438 31.318 23.5007C31.7047 23.5743 32.1401 23.5569 35.0697 23.5523C36.6085 23.5499 39.8727 23.5569 39.9739 23.5494C40.1055 23.5398 40.1823 23.5017 40.2705 23.4172C40.573 23.0256 40.6917 22.862 40.2916 23.5731C40.1203 23.8775 39.8592 24.1134 39.5717 24.1731C39.2387 24.2423 30.476 24.2081 29.9942 24.1358C29.5733 24.0727 29.3295 23.9798 29.0033 23.7582C28.7989 23.6194 28.7198 23.5325 28.6287 23.3463C28.5264 23.1371 28.5162 23.079 28.5392 22.8327C28.5681 22.5237 28.6969 22.2081 28.9414 21.8472C29.03 21.7165 29.1667 21.4952 29.2453 21.3553C29.3239 21.2154 29.6575 20.6909 29.9867 20.1896C30.8601 18.8595 31.7494 17.6481 32.3824 16.9258C32.7806 16.4713 33.3553 15.6848 33.3966 15.5376C33.4769 15.2519 33.2524 14.866 32.942 14.756C32.7305 14.681 31.6057 14.6971 30.9284 14.7848C27.2081 15.2664 24.4007 17.4114 23.9258 20.1349C23.845 20.5979 23.8445 21.5168 23.9247 21.9749C24.1462 23.2397 24.9561 24.4134 26.2388 25.3285C26.706 25.6618 27.7288 26.1863 28.3344 26.4031C31.0818 27.3866 34.5631 27.23 37.1795 26.0052C37.8088 25.7106 38.0785 25.5278 38.4704 25.1304L38.8149 24.7811L39.4091 24.7527C39.9764 24.7256 40.2902 24.7549 40.2487 24.8221C40.2108 24.8835 39.4106 25.1965 39.0905 25.31C38.9097 25.3742 38.7416 25.4902 38.4857 25.6511C36.5237 26.8845 33.7992 27.5261 31.2804 27.3064H31.2804Z" fill="url(#paint35_radial_601_50147)"/>
<path fill-rule="evenodd" clip-rule="evenodd" d="M83.5792 16.8726C83.9217 16.882 83.8853 17.1227 83.8287 17.2057C82.8178 18.7782 80.4293 21.5471 78.6902 24.585C78.4023 25.0772 78.1879 25.4394 78.1879 25.9795C78.1879 26.7119 78.6451 27.5777 79.5635 27.9493C80.1677 28.1913 80.548 28.1987 81.2001 28.2082C86.0412 28.3579 87.9819 28.2271 92.3139 28.0801C92.5641 28.0794 92.7967 27.9108 92.8803 27.809C93.7178 26.9357 94.2006 25.3659 94.2006 23.9807C94.2006 20.8957 91.9787 18.1167 88.5126 16.7802L87.9563 17.4937C90.9942 18.7493 92.5641 21.2571 92.5641 23.943C92.5641 24.5472 92.4615 25.1325 92.2761 25.6915C92.1386 26.0813 91.9693 26.3052 91.477 26.3126C87.9468 26.3881 85.9481 26.4434 82.4085 26.3504C81.952 26.3409 81.8043 26.1744 81.7301 25.8129C81.6735 25.5985 81.7207 25.4204 81.8684 25.1514C83.7457 21.8256 87.0163 18.0243 87.6583 17.1227C87.7803 16.9562 87.723 16.6204 87.3042 16.5091C86.0789 16.147 84.704 16 83.3101 16C76.999 16.0256 72.5477 19.5753 72.4452 23.9807C72.6981 29.2689 77.2963 32 83.3101 32C86.99 32 90.361 30.6992 92.3334 28.6364L90.5113 28.7099C88.8289 30.2062 86.1336 31.006 83.3459 31.006C78.2647 31.006 74.1277 28.4792 74.1277 23.943C74.1277 20.0413 78.264 16.8631 83.3459 16.8631L83.5792 16.8726ZM125.322 26.4239L128.759 24.1669L123.557 20.2915V21.2403H115.861C114.857 21.2403 114.031 21.9544 113.881 22.8843L122.803 22.8748V24.5661L115.982 24.5755C114.904 24.5755 114.021 25.3942 113.974 26.4239H125.322ZM158.003 21.2119H165.892V19.549H157.959C154.991 19.549 152.567 21.8161 152.446 24.6591L162.009 24.6491C162.63 24.6491 163.132 25.0584 163.132 25.5513C163.132 26.053 162.63 26.4529 162.009 26.4529L151.48 26.4522V19.549H148.357V26.407H142.086C141.166 26.2573 140.877 25.5891 140.877 24.2876L140.878 19.549H135.842L131.314 22.4844L127.375 19.549H115.257C112.571 19.549 110.332 21.3974 109.839 23.8594H112.274C111.355 24.4825 110.648 25.3659 110.258 26.4077L102.553 26.407C101.645 26.2573 101.347 25.5891 101.347 24.2876L101.347 19.549H98.2332V23.9713C98.1024 26.9 99.6911 27.9493 101.504 28.1158L125.712 28.1151L130.173 25.2343L134.067 28.1536H138.832L132.765 23.591L137.754 20.3576L137.764 23.9713C137.635 26.9 139.381 27.9493 141.194 28.1158L163.848 28.1151C165.409 28.1151 166.674 26.9735 166.674 25.5513C166.674 24.1379 165.409 22.9962 163.848 22.9962H156.024C156.097 22.0016 156.954 21.2119 158.003 21.2119Z" fill="black"/>
<path fill-rule="evenodd" clip-rule="evenodd" d="M207.375 13.3088C207.889 13.3231 207.835 13.6841 207.75 13.8086C206.233 16.1673 202.651 20.3206 200.042 24.8775C199.61 25.6158 199.288 26.159 199.288 26.9693C199.288 28.0678 199.974 29.3666 201.352 29.9239C202.258 30.287 202.829 30.2981 203.807 30.3122C211.068 30.5368 213.98 30.3406 220.477 30.1201C220.853 30.119 221.202 29.8662 221.327 29.7135C222.583 28.4036 223.308 26.0488 223.308 23.9711C223.308 19.3435 219.975 15.1751 214.776 13.1703L213.941 14.2405C218.498 16.1239 220.853 19.8857 220.853 23.9145C220.853 24.8209 220.699 25.6988 220.421 26.5373C220.214 27.122 219.961 27.4578 219.222 27.4689C213.927 27.5822 210.929 27.6651 205.619 27.5256C204.935 27.5114 204.713 27.2616 204.602 26.7194C204.517 26.3977 204.588 26.1307 204.809 25.7271C207.625 20.7384 212.531 15.0365 213.494 13.6841C213.677 13.4343 213.591 12.9306 212.963 12.7637C211.125 12.2205 209.063 12 206.972 12C197.505 12.0384 190.828 17.3629 190.674 23.9711C191.054 31.9034 197.951 36 206.972 36C212.492 36 217.548 34.0488 220.507 30.9546L217.774 31.0648C215.25 33.3093 211.207 34.509 207.025 34.509C199.404 34.509 193.198 30.7189 193.198 23.9145C193.198 18.062 199.403 13.2947 207.025 13.2947L207.375 13.3088Z" fill="black"/>
<defs>
<linearGradient id="paint0_linear_601_50147" x1="31.5004" y1="35.0027" x2="31.3471" y2="28.6666" gradientUnits="userSpaceOnUse">
<stop stop-color="#505050"/>
<stop offset="0.0584744" stop-color="#525252"/>
<stop offset="0.56152" stop-color="#555555"/>
<stop offset="0.786532" stop-color="#5A5A5A"/>
<stop offset="1" stop-color="#C8C8C8"/>
</linearGradient>
<linearGradient id="paint1_linear_601_50147" x1="38.55" y1="29.5817" x2="38.55" y2="30.1841" gradientUnits="userSpaceOnUse">
<stop stop-color="#B8B8B8"/>
<stop offset="1" stop-color="#828282"/>
</linearGradient>
<linearGradient id="paint2_linear_601_50147" x1="33.4413" y1="28.981" x2="33.3361" y2="33.5479" gradientUnits="userSpaceOnUse">
<stop stop-color="#464646"/>
<stop offset="1"/>
</linearGradient>
<linearGradient id="paint3_linear_601_50147" x1="33.441" y1="28.9476" x2="33.3272" y2="33.6975" gradientUnits="userSpaceOnUse">
<stop stop-color="#464646"/>
<stop offset="1"/>
</linearGradient>
<linearGradient id="paint4_linear_601_50147" x1="33.4411" y1="28.5947" x2="33.3015" y2="33.8548" gradientUnits="userSpaceOnUse">
<stop stop-color="#464646"/>
<stop offset="1"/>
</linearGradient>
<linearGradient id="paint5_linear_601_50147" x1="33.4411" y1="28.5947" x2="33.3014" y2="33.8548" gradientUnits="userSpaceOnUse">
<stop stop-color="#464646"/>
<stop offset="1"/>
</linearGradient>
<linearGradient id="paint6_linear_601_50147" x1="33.4412" y1="28.947" x2="33.3224" y2="33.7974" gradientUnits="userSpaceOnUse">
<stop stop-color="#464646"/>
<stop offset="1"/>
</linearGradient>
<linearGradient id="paint7_linear_601_50147" x1="33.4411" y1="28.5947" x2="33.3014" y2="33.8548" gradientUnits="userSpaceOnUse">
<stop stop-color="#464646"/>
<stop offset="1"/>
</linearGradient>
<linearGradient id="paint8_linear_601_50147" x1="33.4411" y1="28.5947" x2="33.3015" y2="33.8548" gradientUnits="userSpaceOnUse">
<stop stop-color="#464646"/>
<stop offset="1"/>
</linearGradient>
<linearGradient id="paint9_linear_601_50147" x1="30.0789" y1="28.8287" x2="29.9659" y2="34.288" gradientUnits="userSpaceOnUse">
<stop stop-color="#787878"/>
<stop offset="1" stop-color="#1E1E1E"/>
</linearGradient>
<linearGradient id="paint10_linear_601_50147" x1="31.472" y1="28.904" x2="31.6602" y2="33.3467" gradientUnits="userSpaceOnUse">
<stop stop-color="#B4B4B4"/>
<stop offset="0.322353" stop-color="#828282"/>
<stop offset="1" stop-color="#3C3C3C"/>
</linearGradient>
<linearGradient id="paint11_linear_601_50147" x1="32.1515" y1="34.5582" x2="32.3378" y2="31.4642" gradientUnits="userSpaceOnUse">
<stop stop-color="#828282"/>
<stop offset="0.5" stop-color="#828282"/>
<stop offset="1" stop-color="#3C3C3C"/>
</linearGradient>
<linearGradient id="paint12_linear_601_50147" x1="31.7355" y1="31.0877" x2="31.8108" y2="33.422" gradientUnits="userSpaceOnUse">
<stop stop-color="#828282"/>
<stop offset="0.5" stop-color="#828282"/>
<stop offset="1" stop-color="#3C3C3C"/>
</linearGradient>
<linearGradient id="paint13_linear_601_50147" x1="22.9975" y1="18.2395" x2="39.73" y2="29.1409" gradientUnits="userSpaceOnUse">
<stop stop-color="#000032"/>
<stop offset="0.25" stop-color="#646464"/>
<stop offset="0.423823"/>
<stop offset="1" stop-color="#787878"/>
</linearGradient>
<linearGradient id="paint14_linear_601_50147" x1="23.7691" y1="26.2099" x2="40.9213" y2="26.0814" gradientUnits="userSpaceOnUse">
<stop stop-color="#999999"/>
<stop offset="0.220528" stop-color="#3C3C3C" stop-opacity="0.87451"/>
<stop offset="0.515847" stop-color="#969696"/>
<stop offset="0.752781" stop-color="#828282"/>
<stop offset="1" stop-color="#5A5A5A"/>
</linearGradient>
<linearGradient id="paint15_linear_601_50147" x1="35.0433" y1="27.7196" x2="35.0111" y2="23.5118" gradientUnits="userSpaceOnUse">
<stop/>
<stop offset="1" stop-opacity="0"/>
</linearGradient>
<linearGradient id="paint16_linear_601_50147" x1="29.1974" y1="14.8394" x2="41.4907" y2="28.8232" gradientUnits="userSpaceOnUse">
<stop stop-color="#5A5A5A"/>
<stop offset="0.268765" stop-color="#505050"/>
<stop offset="0.632019" stop-color="#666666"/>
<stop offset="0.667453" stop-color="#666666"/>
<stop offset="1" stop-color="#666666"/>
</linearGradient>
<linearGradient id="paint17_linear_601_50147" x1="29.1974" y1="14.8394" x2="41.4907" y2="28.8232" gradientUnits="userSpaceOnUse">
<stop stop-color="#5A5A5A"/>
<stop offset="0.268765" stop-color="#505050"/>
<stop offset="0.632019" stop-color="#666666"/>
<stop offset="0.667453" stop-color="#666666"/>
<stop offset="1" stop-color="#666666"/>
</linearGradient>
<linearGradient id="paint18_linear_601_50147" x1="24.4568" y1="16.2214" x2="37.0337" y2="21.6464" gradientUnits="userSpaceOnUse">
<stop stop-color="#323232" stop-opacity="0"/>
<stop offset="0.39399" stop-color="#323232" stop-opacity="0.94902"/>
<stop offset="0.466851" stop-color="#323232" stop-opacity="0.901961"/>
<stop offset="0.704071" stop-color="#E1E1E1" stop-opacity="0.498039"/>
<stop offset="1" stop-color="#C8C8C8" stop-opacity="0"/>
</linearGradient>
<linearGradient id="paint19_linear_601_50147" x1="34.9469" y1="25.5675" x2="35.0114" y2="23.5118" gradientUnits="userSpaceOnUse">
<stop/>
<stop offset="1" stop-opacity="0"/>
</linearGradient>
<linearGradient id="paint20_linear_601_50147" x1="23.9237" y1="17.3997" x2="25.6447" y2="19.2145" gradientUnits="userSpaceOnUse">
<stop stop-color="#28170B"/>
<stop offset="1" stop-color="#28170B" stop-opacity="0"/>
</linearGradient>
<linearGradient id="paint21_linear_601_50147" x1="32.1981" y1="16.246" x2="31.5566" y2="14.7947" gradientUnits="userSpaceOnUse">
<stop stop-color="#B3B3B3" stop-opacity="0"/>
<stop offset="0.160949" stop-color="#B3B3B3" stop-opacity="0.300885"/>
<stop offset="0.341789" stop-color="#B3B3B3" stop-opacity="0.87451"/>
<stop offset="0.405936" stop-color="#B3B3B3" stop-opacity="0.74902"/>
<stop offset="0.658295" stop-color="#B3B3B3" stop-opacity="0"/>
<stop offset="1" stop-color="#B3B3B3" stop-opacity="0"/>
</linearGradient>
<linearGradient id="paint22_linear_601_50147" x1="28.2163" y1="24.2241" x2="27.3907" y2="21.702" gradientUnits="userSpaceOnUse">
<stop stop-color="#B3B3B3" stop-opacity="0"/>
<stop offset="0.12143" stop-color="#B3B3B3" stop-opacity="0.368627"/>
<stop offset="0.285824" stop-color="#B3B3B3" stop-opacity="0.87451"/>
<stop offset="0.383948" stop-color="#B3B3B3" stop-opacity="0.74902"/>
<stop offset="0.516942" stop-color="#B3B3B3" stop-opacity="0.498039"/>
<stop offset="1" stop-color="#B3B3B3" stop-opacity="0"/>
</linearGradient>
<linearGradient id="paint23_linear_601_50147" x1="37.3063" y1="14.9689" x2="39.8358" y2="22.5227" gradientUnits="userSpaceOnUse">
<stop/>
<stop offset="0.552013" stop-color="#7D7D7D"/>
<stop offset="0.693304" stop-color="#969696"/>
<stop offset="0.857541" stop-color="#8A8A8A"/>
<stop offset="1" stop-color="#505050"/>
</linearGradient>
<linearGradient id="paint24_linear_601_50147" x1="30.6839" y1="22.8075" x2="39.0018" y2="24.775" gradientUnits="userSpaceOnUse">
<stop stop-color="#323232"/>
<stop offset="0.105545" stop-color="#B4B4B6"/>
<stop offset="0.253205" stop-color="#B4B4B4"/>
<stop offset="1" stop-color="#AAAAAA"/>
</linearGradient>
<linearGradient id="paint25_linear_601_50147" x1="35.8981" y1="22.464" x2="35.8981" y2="23.8495" gradientUnits="userSpaceOnUse">
<stop stop-color="#505050"/>
<stop offset="1" stop-color="#FAFAFA" stop-opacity="0"/>
</linearGradient>
<linearGradient id="paint26_linear_601_50147" x1="25.0673" y1="13.4929" x2="28.729" y2="19.3388" gradientUnits="userSpaceOnUse">
<stop stop-color="#8282A9"/>
<stop offset="1" stop-color="#A9A9A9" stop-opacity="0"/>
</linearGradient>
<linearGradient id="paint27_linear_601_50147" x1="39.6095" y1="24.7547" x2="35.1197" y2="26.2946" gradientUnits="userSpaceOnUse">
<stop stop-color="#FAFAFA"/>
<stop offset="0.25" stop-color="#FAFAFA" stop-opacity="0.901961"/>
<stop offset="0.5" stop-color="#E1E1E1" stop-opacity="0.498039"/>
<stop offset="1" stop-color="#C8C8C8" stop-opacity="0"/>
</linearGradient>
<linearGradient id="paint28_linear_601_50147" x1="32.9555" y1="13.5546" x2="32.8567" y2="29.4398" gradientUnits="userSpaceOnUse">
<stop stop-color="#AAAAAA"/>
<stop offset="0.101807" stop-color="#BEBEBE"/>
<stop offset="0.211525" stop-color="#BEBEBE"/>
<stop offset="0.549206" stop-color="#B4B4B4"/>
<stop offset="0.673505" stop-color="#878787"/>
<stop offset="0.778718" stop-color="#969696"/>
<stop offset="1" stop-color="#AAAAAA"/>
</linearGradient>
<linearGradient id="paint29_linear_601_50147" x1="22.9339" y1="24.5718" x2="26.6278" y2="21.3598" gradientUnits="userSpaceOnUse">
<stop stop-color="#E6E6E6"/>
<stop offset="1" stop-color="#FAFAFA" stop-opacity="0"/>
</linearGradient>
<linearGradient id="paint30_linear_601_50147" x1="39.6095" y1="24.7547" x2="35.1197" y2="26.2946" gradientUnits="userSpaceOnUse">
<stop stop-color="#FAFAFA"/>
<stop offset="0.25" stop-color="#FAFAFA" stop-opacity="0.901961"/>
<stop offset="0.5" stop-color="#E1E1E1" stop-opacity="0.498039"/>
<stop offset="1" stop-color="#C8C8C8" stop-opacity="0"/>
</linearGradient>
<linearGradient id="paint31_linear_601_50147" x1="35.8893" y1="14.8786" x2="36.8043" y2="15.521" gradientUnits="userSpaceOnUse">
<stop stop-color="#FAFAFA"/>
<stop offset="0.25" stop-color="#EDEDED" stop-opacity="0.74902"/>
<stop offset="0.5" stop-color="#E1E1E1" stop-opacity="0.498039"/>
<stop offset="1" stop-color="#C8C8C8" stop-opacity="0"/>
</linearGradient>
<linearGradient id="paint32_linear_601_50147" x1="31.3173" y1="24.1542" x2="39.8292" y2="15.3533" gradientUnits="userSpaceOnUse">
<stop stop-color="#969696"/>
<stop offset="0.132623" stop-color="#C0BEBE"/>
<stop offset="0.5" stop-color="#B4B4B4"/>
<stop offset="1" stop-color="#BEBEBE"/>
</linearGradient>
<linearGradient id="paint33_linear_601_50147" x1="35.75" y1="15.3533" x2="37.5808" y2="15.7066" gradientUnits="userSpaceOnUse">
<stop stop-opacity="0"/>
<stop offset="0.109171" stop-color="#323232" stop-opacity="0.94902"/>
<stop offset="0.218341" stop-color="#323232" stop-opacity="0.901961"/>
<stop offset="0.506057" stop-color="#E1E1E1" stop-opacity="0.498039"/>
<stop offset="1" stop-color="#C8C8C8" stop-opacity="0"/>
</linearGradient>
<linearGradient id="paint34_linear_601_50147" x1="39.3687" y1="24.7547" x2="39.3596" y2="25.3149" gradientUnits="userSpaceOnUse">
<stop stop-color="#FAFAFA"/>
<stop offset="0.5" stop-color="#FAFAFA" stop-opacity="0.901961"/>
<stop offset="0.697845" stop-color="#E1E1E1" stop-opacity="0.498039"/>
<stop offset="1" stop-color="#C8C8C8" stop-opacity="0"/>
</linearGradient>
<radialGradient id="paint35_radial_601_50147" cx="0" cy="0" r="1" gradientUnits="userSpaceOnUse" gradientTransform="translate(32.3239 18.2048) rotate(76.732) scale(4.40043 5.59461)">
<stop stop-color="#DCDCDC" stop-opacity="0.901961"/>
<stop offset="0.752174" stop-color="#E1E1E1" stop-opacity="0.45098"/>
<stop offset="1" stop-color="#C8C8C8" stop-opacity="0"/>
</radialGradient>
</defs>
</svg>
