<svg width="56" height="56" viewBox="0 0 56 56" fill="none" xmlns="http://www.w3.org/2000/svg">
<circle cx="28" cy="28" r="28" fill="#1D9BF0"/>
<path d="M42.8447 20.3848C42.8674 20.7139 42.8674 21.043 42.8674 21.3751C42.8674 31.4952 35.1626 43.1667 21.0741 43.1667V43.1606C16.9123 43.1667 12.8369 41.9747 9.33337 39.7271C9.93853 39.7999 10.5467 39.8363 11.1564 39.8378C14.6054 39.8409 17.9558 38.6837 20.6691 36.5529C17.3916 36.4908 14.5174 34.3539 13.5134 31.2343C14.6615 31.4557 15.8445 31.4103 16.9714 31.1024C13.3981 30.3805 10.8273 27.2412 10.8273 23.5954C10.8273 23.562 10.8273 23.5301 10.8273 23.4983C11.892 24.0913 13.0841 24.4204 14.3036 24.4568C10.938 22.2077 9.90062 17.7308 11.933 14.2305C15.8218 19.0153 21.5594 21.9241 27.7187 22.232C27.1014 19.5719 27.9447 16.7844 29.9346 14.9145C33.0195 12.0148 37.8714 12.1634 40.7713 15.2466C42.4867 14.9084 44.1308 14.2791 45.6354 13.3873C45.0636 15.1602 43.8669 16.6661 42.2683 17.6231C43.7865 17.4441 45.2698 17.0377 46.6667 16.4174C45.6384 17.9583 44.3431 19.3004 42.8447 20.3848Z" fill="white"/>
</svg>
