<svg width="341" height="57" viewBox="0 0 341 57" fill="none" xmlns="http://www.w3.org/2000/svg">
<g clip-path="url(#clip0_605_60)">
<path d="M49.2732 12.0324L16.5757 28.0462L49.2915 44.0324L33.259 28.037L49.2732 12.0324Z" fill="#00C1E6"/>
<path d="M49.2734 12.0324L81.9893 28.0186L49.2918 44.0324L65.3059 28.0279L49.2734 12.0324Z" fill="#00C1E6"/>
<path d="M129.252 27.4693C129.28 28.4649 129.009 29.4459 128.475 30.2872C127.941 31.1285 127.169 31.7917 126.256 32.1922C125.343 32.5927 124.331 32.7122 123.35 32.5355C122.369 32.3587 121.463 31.8939 120.747 31.2001C120.032 30.5064 119.54 29.6154 119.333 28.6409C119.128 27.6665 119.217 26.6528 119.591 25.7295C119.965 24.8062 120.605 24.0151 121.432 23.4574C122.258 22.8996 123.232 22.6006 124.229 22.5983C125.539 22.5884 126.8 23.0938 127.74 24.0053C128.68 24.9167 129.223 26.1611 129.252 27.4693ZM129.197 20.9137V22.6624C127.868 21.3403 126.068 20.5994 124.192 20.6023C123.297 20.6023 122.412 20.7783 121.585 21.1202C120.759 21.4621 120.009 21.9631 119.376 22.5949C118.744 23.2266 118.242 23.9765 117.9 24.8019C117.557 25.6272 117.381 26.5119 117.381 27.4052C117.381 28.2986 117.557 29.1832 117.9 30.0086C118.242 30.8339 118.744 31.5839 119.376 32.2156C120.009 32.8473 120.759 33.3484 121.585 33.6903C122.412 34.0321 123.297 34.2081 124.192 34.2081C125.12 34.2188 126.04 34.0463 126.901 33.7007C127.761 33.355 128.545 32.8429 129.206 32.1938C129.206 33.3383 129.206 37.3577 124.284 37.3577C122.574 37.3664 120.907 36.8273 119.526 35.8195L119.417 38.1177C120.909 38.9306 122.583 39.3556 124.284 39.3537C125.213 39.3998 126.141 39.2616 127.016 38.9473C127.89 38.633 128.694 38.1487 129.381 37.5226C130.002 36.8539 130.485 36.0683 130.799 35.2116C131.114 34.3549 131.255 33.4442 131.213 32.5326V20.9137H129.197Z" fill="black"/>
<path d="M146.623 27.4602C146.652 28.456 146.383 29.438 145.851 30.2804C145.318 31.1229 144.546 31.7875 143.633 32.1894C142.721 32.5913 141.709 32.7122 140.727 32.5365C139.745 32.3609 138.838 31.8967 138.121 31.2034C137.405 30.5101 136.913 29.6191 136.705 28.6444C136.499 27.6698 136.588 26.6557 136.961 25.7318C137.335 24.8079 137.976 24.0163 138.802 23.4581C139.628 22.8999 140.602 22.6006 141.6 22.5983C142.909 22.586 144.17 23.0894 145.11 23.9994C146.051 24.9094 146.594 26.1527 146.623 27.4602ZM146.568 20.9045V22.6533C145.909 21.9999 145.129 21.4825 144.269 21.1306C143.411 20.7786 142.491 20.5992 141.563 20.6023C140.648 20.5688 139.736 20.7198 138.881 21.0464C138.026 21.3729 137.245 21.8682 136.586 22.5029C135.927 23.1374 135.403 23.8982 135.045 24.7398C134.687 25.5813 134.502 26.4862 134.502 27.4006C134.502 28.315 134.687 29.22 135.045 30.0615C135.403 30.903 135.927 31.6638 136.586 32.2984C137.245 32.933 138.026 33.4283 138.881 33.7549C139.736 34.0814 140.648 34.2325 141.563 34.199C142.49 34.2012 143.409 34.0204 144.267 33.6668C145.124 33.3133 145.903 32.794 146.559 32.1388C146.559 33.2834 146.559 37.3028 141.637 37.3028C139.925 37.3206 138.255 36.7806 136.879 35.7646L136.769 38.0718C138.265 38.8765 139.937 39.2981 141.637 39.2988C142.565 39.3448 143.493 39.2066 144.368 38.8923C145.243 38.5781 146.047 38.0938 146.733 37.4676C147.355 36.7993 147.838 36.0138 148.153 35.157C148.468 34.3002 148.608 33.3893 148.566 32.4776V20.9045H146.568Z" fill="black"/>
<path d="M85.6194 16.1434V18.112H92.1735V35.0963H94.1994L94.1902 18.112L100.735 18.1028V16.1434H85.6194Z" fill="black"/>
<path d="M107.408 33.4665C106.332 33.4863 105.274 33.1865 104.368 32.6049C103.463 32.0234 102.751 31.1863 102.322 30.1999C101.893 29.2135 101.768 28.1222 101.96 27.0643C102.153 26.0063 102.656 25.0295 103.406 24.2576C104.156 23.4857 105.118 22.9535 106.171 22.7286C107.224 22.5036 108.32 22.5959 109.32 22.9939C110.32 23.3919 111.18 24.0775 111.789 24.964C112.398 25.8504 112.731 26.8976 112.744 27.9729C112.772 28.688 112.655 29.4015 112.399 30.0701C112.144 30.7387 111.754 31.3483 111.255 31.862C110.756 32.3758 110.158 32.7829 109.496 33.0587C108.836 33.3345 108.125 33.4732 107.408 33.4665ZM107.408 20.6482C105.934 20.6391 104.49 21.0683 103.26 21.8811C102.031 22.6939 101.071 23.8538 100.503 25.213C99.9348 26.5722 99.7836 28.0695 100.07 29.5143C100.356 30.9592 101.066 32.2865 102.109 33.3273C103.152 34.3682 104.483 35.0756 105.929 35.3596C107.376 35.6436 108.875 35.4914 110.236 34.9223C111.596 34.3532 112.756 33.393 113.568 32.1636C114.38 30.9343 114.808 29.4915 114.797 28.0187C114.818 27.0442 114.641 26.0755 114.278 25.171C113.914 24.2665 113.37 23.4451 112.68 22.7563C111.989 22.0675 111.166 21.5255 110.26 21.1631C109.354 20.8008 108.384 20.6256 107.408 20.6482Z" fill="black"/>
</g>
<path d="M216.208 27.7488C216.236 28.7444 215.966 29.7254 215.431 30.5667C214.898 31.408 214.125 32.0712 213.212 32.4717C212.299 32.8722 211.287 32.9917 210.306 32.815C209.325 32.6382 208.419 32.1734 207.703 31.4796C206.988 30.7859 206.496 29.8949 206.29 28.9204C206.084 27.946 206.174 26.9323 206.547 26.009C206.921 25.0857 207.562 24.2946 208.388 23.7369C209.214 23.1791 210.188 22.8801 211.185 22.8778C212.495 22.8679 213.756 23.3733 214.696 24.2848C215.636 25.1962 216.179 26.4406 216.208 27.7488ZM216.154 21.1932V22.9419C214.824 21.6198 213.024 20.8789 211.148 20.8818C210.254 20.8818 209.368 21.0578 208.542 21.3997C207.715 21.7416 206.965 22.2426 206.332 22.8744C205.7 23.5061 205.198 24.256 204.856 25.0814C204.514 25.9067 204.338 26.7914 204.338 27.6847C204.338 28.5781 204.514 29.4627 204.856 30.2881C205.198 31.1134 205.7 31.8634 206.332 32.4951C206.965 33.1268 207.715 33.6279 208.542 33.9698C209.368 34.3116 210.254 34.4876 211.148 34.4876C212.076 34.4983 212.996 34.3258 213.857 33.9802C214.717 33.6345 215.501 33.1224 216.162 32.4733C216.162 33.6178 216.162 37.6372 211.24 37.6372C209.53 37.6459 207.863 37.1068 206.482 36.099L206.373 38.3972C207.866 39.2101 209.539 39.6351 211.24 39.6332C212.169 39.6793 213.097 39.5411 213.972 39.2268C214.846 38.9125 215.65 38.4282 216.337 37.8021C216.958 37.1334 217.441 36.3478 217.755 35.4911C218.07 34.6344 218.211 33.7237 218.17 32.8121V21.1932H216.154Z" fill="black"/>
<path d="M233.579 27.7397C233.608 28.7355 233.339 29.7175 232.807 30.5599C232.274 31.4024 231.502 32.067 230.59 32.4689C229.677 32.8708 228.665 32.9917 227.683 32.816C226.702 32.6404 225.794 32.1762 225.078 31.4829C224.362 30.7896 223.869 29.8986 223.662 28.9239C223.455 27.9493 223.544 26.9352 223.918 26.0113C224.291 25.0874 224.932 24.2958 225.758 23.7376C226.584 23.1794 227.558 22.8801 228.556 22.8778C229.865 22.8655 231.126 23.3689 232.066 24.2789C233.007 25.1889 233.55 26.4322 233.579 27.7397ZM233.524 21.184V22.9328C232.866 22.2794 232.085 21.762 231.226 21.4101C230.367 21.0582 229.447 20.8787 228.519 20.8818C227.604 20.8483 226.692 20.9994 225.837 21.3259C224.982 21.6524 224.202 22.1478 223.542 22.7824C222.883 23.417 222.359 24.1778 222.001 25.0193C221.643 25.8608 221.458 26.7658 221.458 27.6802C221.458 28.5946 221.643 29.4995 222.001 30.341C222.359 31.1826 222.883 31.9434 223.542 32.5779C224.202 33.2125 224.982 33.7078 225.837 34.0344C226.692 34.361 227.604 34.512 228.519 34.4785C229.446 34.4807 230.366 34.2999 231.223 33.9463C232.08 33.5928 232.859 33.0735 233.515 32.4183C233.515 33.5629 233.515 37.5823 228.593 37.5823C226.882 37.6002 225.211 37.0602 223.835 36.0441L223.725 38.3514C225.221 39.156 226.894 39.5776 228.593 39.5783C229.521 39.6243 230.45 39.4862 231.324 39.1718C232.199 38.8576 233.003 38.3734 233.69 37.7471C234.311 37.0788 234.794 36.2933 235.109 35.4365C235.424 34.5797 235.564 33.6688 235.522 32.7571V21.184H233.524Z" fill="black"/>
<path d="M172.576 16.4229V18.3915H179.13V35.3758H181.156L181.146 18.3915L187.691 18.3823V16.4229H172.576Z" fill="black"/>
<path d="M194.365 33.746C193.289 33.7658 192.23 33.466 191.325 32.8844C190.419 32.3029 189.707 31.4658 189.278 30.4794C188.85 29.493 188.724 28.4017 188.917 27.3438C189.11 26.2858 189.613 25.309 190.362 24.5371C191.112 23.7652 192.074 23.233 193.127 23.0081C194.18 22.7831 195.276 22.8754 196.276 23.2734C197.276 23.6714 198.136 24.357 198.746 25.2435C199.354 26.1299 199.687 27.1771 199.7 28.2524C199.729 28.9675 199.611 29.681 199.355 30.3496C199.1 31.0182 198.71 31.6278 198.211 32.1415C197.713 32.6553 197.114 33.0624 196.453 33.3382C195.792 33.614 195.082 33.7527 194.365 33.746ZM194.365 20.9277C192.89 20.9186 191.446 21.3478 190.217 22.1606C188.987 22.9734 188.027 24.1333 187.459 25.4925C186.891 26.8517 186.74 28.349 187.026 29.7938C187.313 31.2387 188.022 32.566 189.066 33.6068C190.109 34.6477 191.439 35.3551 192.886 35.6391C194.333 35.9231 195.831 35.7709 197.192 35.2018C198.552 34.6327 199.712 33.6725 200.524 32.4431C201.336 31.2138 201.764 29.771 201.754 28.2982C201.774 27.3237 201.598 26.355 201.234 25.4505C200.87 24.546 200.326 23.7246 199.636 23.0358C198.946 22.347 198.122 21.805 197.217 21.4426C196.31 21.0803 195.341 20.9051 194.365 20.9277Z" fill="black"/>
<path d="M292.227 12.0324L259.53 28.0462L292.246 44.0324L276.213 28.037L292.227 12.0324Z" fill="black"/>
<path d="M292.228 12.0324L324.943 28.0186L292.246 44.0324L308.26 28.0279L292.228 12.0324Z" fill="black"/>
<defs>
<clipPath id="clip0_605_60">
<rect width="132" height="32" fill="white" transform="translate(16.5757 12.0324)"/>
</clipPath>
</defs>
</svg>
